<?xml version="1.0" encoding="UTF-8"?>
<svg id="Layer_1" xmlns="http://www.w3.org/2000/svg" version="1.1" viewBox="0 0 804 690.6">
  <!-- Generator: Adobe Illustrator 29.4.0, SVG Export Plug-In . SVG Version: 2.1.0 Build 152)  -->
  <defs>
    <style>
      .st0 {
        fill: #0ac18e;
      }

      .st0, .st1 {
        fill-rule: evenodd;
      }

      .st1 {
        fill: #057148;
      }
    </style>
  </defs>
  <g id="Layer_11" data-name="Layer_1">
    <path class="st1" d="M281,680l446.3-312.5c11.9-8.4,20.3-20.8,23.3-34.5l52.1-236.8c6.3-28.5-12.1-54.8-41.1-58.6L521.4,5.5c-13.9-1.9-28.5,1.8-40.3,10.1L34.6,328.1c-24.9,17.4-32.1,50.2-16.1,73l188.3,269c16,22.9,49.2,27.3,74.1,9.9ZM647.7,100c22.6-15.8,53.8-10.3,69.6,12.3s10.3,53.8-12.3,69.6c-22.6,15.8-53.8,10.3-69.6-12.3s-10.3-53.8,12.3-69.6Z"/>
    <path class="st0" d="M271,675l446.3-312.5c11.9-8.4,20.3-20.8,23.3-34.5l52.1-236.8c6.3-28.5-12.1-54.8-41.1-58.6L511.4.5c-13.9-1.9-28.5,1.8-40.3,10.1L24.6,323.1C-.3,340.5-7.5,373.3,8.5,396.2l188.3,269c16,22.9,49.2,27.3,74.1,9.9ZM637.7,95c22.6-15.8,53.8-10.3,69.6,12.3s10.3,53.8-12.3,69.6c-22.6,15.8-53.8,10.3-69.6-12.3s-10.3-53.8,12.3-69.6Z"/>
  </g>
</svg>