<?xml version="1.0" encoding="UTF-8"?>
<svg id="Layer_1" xmlns="http://www.w3.org/2000/svg" xmlns:xlink="http://www.w3.org/1999/xlink" version="1.1" viewBox="0 0 40.5 40.5">
  <!-- Generator: Adobe Illustrator 29.4.0, SVG Export Plug-In . SVG Version: 2.1.0 Build 152)  -->
  <defs>
    <style>
      .st0 {
        fill: url(#radial-gradient);
        isolation: isolate;
        opacity: .4;
      }

      .st1 {
        fill: #8f97a9;
      }

      .st2 {
        fill: #231f20;
      }

      .st3 {
        fill: #19b954;
      }
    </style>
    <radialGradient id="radial-gradient" cx="20.2" cy="21.8" fx="20.2" fy="21.8" r="19.7" gradientTransform="translate(0 42) scale(1 -1)" gradientUnits="userSpaceOnUse">
      <stop offset="0" stop-color="#19b954"/>
      <stop offset="1" stop-color="#fff"/>
    </radialGradient>
  </defs>
  <circle class="st0" cx="20.2" cy="20.2" r="19.7"/>
  <path class="st3" d="M20.2.5v19.7h0s0,0,0,0h0s0,0,0,0L2.8,10.9c-1.5,2.8-2.3,5.9-2.3,9.3,0,10.9,8.8,19.7,19.7,19.7s19.7-8.8,19.7-19.7c0-10.9-8.8-19.7-19.7-19.7Z"/>
  <path class="st1" d="M20.2,40.5C9.1,40.5,0,31.4,0,20.2S9.1,0,20.2,0s20.2,9.1,20.2,20.2-9.1,20.2-20.2,20.2ZM20.2,1C9.6,1,1,9.6,1,20.2s8.6,19.2,19.2,19.2,19.2-8.6,19.2-19.2S30.8,1,20.2,1Z"/>
  <path class="st2" d="M20.2,21.2c-.2,0-.3,0-.5-.1l-12.2-6.5c-.5-.3-.7-.9-.4-1.4.3-.5.9-.7,1.4-.4l10.7,5.7v-8.2c0-.6.4-1,1-1s1,.4,1,1v9.9c0,.4-.2.7-.5.9-.2,0-.3.1-.5.1Z"/>
</svg>