<?xml version="1.0" encoding="UTF-8"?>
<svg id="Layer_1" xmlns="http://www.w3.org/2000/svg" xmlns:xlink="http://www.w3.org/1999/xlink" version="1.1" viewBox="0 0 40.5 40.5">
  <!-- Generator: Adobe Illustrator 29.4.0, SVG Export Plug-In . SVG Version: 2.1.0 Build 152)  -->
  <defs>
    <style>
      .st0 {
        fill: url(#radial-gradient);
        isolation: isolate;
        opacity: .4;
      }

      .st1 {
        fill: #8f97a9;
      }

      .st2 {
        fill: #231f20;
      }

      .st3 {
        fill: #ca6510;
      }
    </style>
    <radialGradient id="radial-gradient" cx="306" cy="1379.1" fx="306" fy="1379.1" r="19.7" gradientTransform="translate(-285.8 -1358.8)" gradientUnits="userSpaceOnUse">
      <stop offset="0" stop-color="#ca6510"/>
      <stop offset="1" stop-color="#fff"/>
    </radialGradient>
  </defs>
  <path class="st3" d="M20.2,20.2l16.8,9.5c1.6-2.8,2.5-6,2.5-9.5C39.5,9.6,30.9.9,20.2.9v19.3h0s0,0,0,0Z"/>
  <circle class="st0" cx="20.2" cy="20.3" r="19.7"/>
  <path class="st1" d="M20.2,40.5C9.1,40.5,0,31.4,0,20.2S9.1,0,20.2,0s20.2,9.1,20.2,20.2c0,11.2-9.1,20.2-20.2,20.2ZM20.2,1C9.6,1,1,9.6,1,20.2s8.6,19.2,19.2,19.2,19.2-8.6,19.2-19.2c0-10.6-8.6-19.2-19.2-19.2Z"/>
  <path class="st2" d="M32.2,28c-.2,0-.3,0-.5-.1l-12-6.7c-.3-.2-.5-.5-.5-.9v-9.9c0-.6.4-1,1-1s1,.4,1,1v9.3l11.5,6.5c.5.3.6.9.4,1.4-.2.3-.5.5-.9.5Z"/>
</svg>