<?xml version="1.0" encoding="UTF-8"?>
<svg id="Layer_1" xmlns="http://www.w3.org/2000/svg" xmlns:xlink="http://www.w3.org/1999/xlink" version="1.1" viewBox="0 0 40.5 40.5">
  <!-- Generator: Adobe Illustrator 29.4.0, SVG Export Plug-In . SVG Version: 2.1.0 Build 152)  -->
  <defs>
    <style>
      .st0 {
        fill: url(#radial-gradient);
        isolation: isolate;
        opacity: .4;
      }

      .st1 {
        fill: #8f97a9;
      }

      .st2 {
        fill: #231f20;
      }

      .st3 {
        fill: #ffcd39;
      }
    </style>
    <radialGradient id="radial-gradient" cx="305.8" cy="1379" fx="305.8" fy="1379" r="19.8" gradientTransform="translate(-285.8 -1358.8)" gradientUnits="userSpaceOnUse">
      <stop offset="0" stop-color="#ffcd39"/>
      <stop offset="1" stop-color="#fff"/>
    </radialGradient>
  </defs>
  <path class="st3" d="M20.2.7v19.6c0,0-17.5,9.1-17.5,9.1,3.3,6.3,9.8,10.5,17.4,10.5,10.8,0,19.6-8.8,19.6-19.6S31,.8,20.2.7Z"/>
  <circle class="st0" cx="20" cy="20.2" r="19.8"/>
  <path class="st1" d="M20.2,40.5C9.1,40.5,0,31.4,0,20.2S9.1,0,20.2,0s20.2,9.1,20.2,20.2-9.1,20.2-20.2,20.2ZM20.2,1C9.6,1,1,9.6,1,20.2s8.6,19.2,19.2,19.2,19.2-8.6,19.2-19.2c0-10.6-8.6-19.2-19.2-19.2Z"/>
  <path class="st2" d="M8,27.6c-.4,0-.7-.2-.9-.5-.3-.5,0-1.1.4-1.4l11.7-6.1v-9.3c0-.6.4-1,1-1s1,.4,1,1v9.9c0,.4-.2.7-.5.9l-12.2,6.4c-.1,0-.3.1-.5.1Z"/>
</svg>