<?xml version="1.0" encoding="UTF-8"?>
<svg id="Layer_1" xmlns="http://www.w3.org/2000/svg" xmlns:xlink="http://www.w3.org/1999/xlink" version="1.1" viewBox="0 0 40.5 40.5">
  <!-- Generator: Adobe Illustrator 29.4.0, SVG Export Plug-In . SVG Version: 2.1.0 Build 152)  -->
  <defs>
    <style>
      .st0 {
        fill: url(#radial-gradient);
        isolation: isolate;
        opacity: .4;
      }

      .st1 {
        fill: #8f97a9;
      }

      .st2 {
        fill: #231f20;
      }

      .st3 {
        fill: #ffc107;
      }
    </style>
    <radialGradient id="radial-gradient" cx="306" cy="1379" fx="306" fy="1379" r="19.7" gradientTransform="translate(-285.8 -1358.8)" gradientUnits="userSpaceOnUse">
      <stop offset="0" stop-color="#ffc107"/>
      <stop offset="1" stop-color="#fff"/>
    </radialGradient>
  </defs>
  <path class="st3" d="M20.2.9v38.6c10.7,0,19.3-8.6,19.3-19.3S30.9.9,20.2.9Z"/>
  <circle class="st0" cx="20.2" cy="20.2" r="19.7"/>
  <path class="st1" d="M20.2,40.5C9.1,40.5,0,31.4,0,20.2S9.1,0,20.2,0s20.2,9.1,20.2,20.2c0,11.2-9.1,20.2-20.2,20.2ZM20.2,1C9.6,1,1,9.6,1,20.2s8.6,19.2,19.2,19.2,19.2-8.6,19.2-19.2c0-10.6-8.6-19.2-19.2-19.2Z"/>
  <path class="st2" d="M20.2,34.9c-.6,0-1-.4-1-1V10.3c0-.6.4-1,1-1s1,.4,1,1v23.6c0,.6-.4,1-1,1Z"/>
</svg>