<?xml version="1.0" encoding="UTF-8"?>
<svg id="Layer_1" xmlns="http://www.w3.org/2000/svg" version="1.1" viewBox="0 0 124 131.6">
  <!-- Generator: Adobe Illustrator 29.4.0, SVG Export Plug-In . SVG Version: 2.1.0 Build 152)  -->
  <defs>
    <style>
      .st0 {
        fill: #8f97a9;
        fill-rule: evenodd;
      }
    </style>
  </defs>
  <path class="st0" d="M93.7,18.4v7.7h12.2c3.8,0,7.3,1.6,9.9,4.1,2.5,2.5,4.1,6,4.1,9.8h0v73.3h0c0,3.8-1.6,7.3-4.1,9.9-2.5,2.5-6,4.1-9.8,4.1h-61.7c-3.8,0-7.3-1.6-9.9-4.1-2.5-2.5-4.1-6-4.1-9.8h0v-16.4h-12.2c-3.8,0-7.3-1.6-9.9-4.1-2.5-2.6-4.1-6.1-4.1-9.9h0V18.4h0c0-3.8,1.6-7.3,4.1-9.9,2.5-2.5,6-4.1,9.8-4.1h61.7c3.8,0,7.3,1.6,9.9,4.1,2.5,2.5,4.1,6,4.1,9.8h0ZM83.1,26.1v-7.7h0c0-.9-.4-1.8-1-2.4s-1.5-1-2.4-1H18c-.9,0-1.8.4-2.4,1s-1,1.5-1,2.4h0v64.6h0c0,.9.4,1.8,1,2.4s1.5,1,2.4,1h12.2v-46.3h0c0-3.9,1.6-7.3,4.1-9.9,2.5-2.5,6-4.1,9.8-4.1,0,0,39,0,39,0ZM109.3,113.3V40.1h0c0-.9-.4-1.8-1-2.4-.6-.6-1.5-1-2.4-1h-61.7c-.9,0-1.8.4-2.4,1s-1,1.5-1,2.4h0v73.3h0c0,.9.4,1.8,1,2.4s1.5,1,2.4,1h61.7c.9,0,1.8-.4,2.4-1s1-1.5,1-2.4h0Z"/>
</svg>