<?xml version="1.0" encoding="UTF-8"?>
<svg id="Layer_1" xmlns="http://www.w3.org/2000/svg" version="1.1" viewBox="0 0 16 16">
  <!-- Generator: Adobe Illustrator 29.4.0, SVG Export Plug-In . SVG Version: 2.1.0 Build 152)  -->
  <defs>
    <style>
      .st0 {
        fill: #99a1b3;
      }
    </style>
  </defs>
  <path class="st0" d="M1,3.5c0-.8.7-1.5,1.5-1.5h2.8c1,0,1.8.6,2.3,1.2.4.5.9.8,1.4.8h4.5c.8,0,1.5.7,1.5,1.5v7c0,.8-.7,1.5-1.5,1.5H2.5c-.8,0-1.5-.7-1.5-1.5V3.5ZM2.5,3c-.3,0-.5.2-.5.5v2.5h12v-.5c0-.3-.2-.5-.5-.5h-4.5c-1,0-1.7-.6-2.2-1.2-.5-.5-1-.8-1.6-.8h-2.8ZM14,7H2v5.5c0,.3.2.5.5.5h11c.3,0,.5-.2.5-.5v-5.5Z"/>
</svg>