<?xml version="1.0" encoding="utf-8"?>
<!-- Generator: Adobe Illustrator 29.4.0, SVG Export Plug-In . SVG Version: 9.03 Build 0)  -->
<svg version="1.0" id="svg2" xmlns:svg="http://www.w3.org/2000/svg"
	 xmlns="http://www.w3.org/2000/svg" xmlns:xlink="http://www.w3.org/1999/xlink" x="0px" y="0px" viewBox="0 0 22 22"
	 style="enable-background:new 0 0 22 22;" xml:space="preserve">
<style type="text/css">
	.st0{fill-rule:evenodd;clip-rule:evenodd;fill:#8F97A9;}
</style>
<g>
	<path class="st0" d="M2.9,10h1.6V9.8V6.6c0-1.8,0.7-3.5,2-4.7v0c1.2-1.2,2.9-2,4.7-2c1.8,0,3.5,0.7,4.7,2l0,0c1.2,1.2,2,2.9,2,4.7
		v3.2V10h1.3c0.3,0,0.5,0.2,0.5,0.5v10.9c0,0.3-0.2,0.5-0.5,0.5H2.9c-0.3,0-0.5-0.2-0.5-0.5V10.6C2.4,10.3,2.6,10,2.9,10L2.9,10z
		 M7.1,10h8.1V9.8V6.6c0-1.1-0.5-2.1-1.2-2.9l0,0c-0.7-0.7-1.8-1.2-2.9-1.2C10,2.5,9,3,8.3,3.7C7.6,4.5,7.1,5.5,7.1,6.6v3.2L7.1,10
		L7.1,10z M11.2,16l0.8,3.8l-2.2,0l0.7-3.8c-0.6-0.2-1.1-0.8-1.1-1.5c0-0.8,0.7-1.5,1.5-1.5c0.8,0,1.5,0.7,1.5,1.5
		C12.4,15.3,11.9,15.9,11.2,16L11.2,16z"/>
</g>
</svg>
