<?xml version="1.0" encoding="UTF-8"?>
<svg id="Layer_1" xmlns="http://www.w3.org/2000/svg" version="1.1" viewBox="0 0 122.9 122.9">
  <!-- Generator: Adobe Illustrator 29.4.0, SVG Export Plug-In . SVG Version: 2.1.0 Build 152)  -->
  <defs>
    <style>
      .st0 {
        fill: #adb5bd;
      }

      .st0, .st1 {
        fill-rule: evenodd;
      }

      .st1 {
        fill: #8f97a9;
      }
    </style>
  </defs>
  <path class="st1" d="M71.1,10.3l6.2,6.2c1.6,1.6,1.6,4.3,0,5.9l-5,5c1.4,2.6,2.4,5.3,3.1,8.2h6.4c2.3,0,4.2,1.9,4.2,4.2v8.7c0,2.3-1.9,4.2-4.2,4.2h-7c-.9,2.8-2.1,5.5-3.6,8l4.6,4.6c1.6,1.6,1.6,4.3,0,5.9l-6.2,6.2c-1.6,1.6-4.3,1.6-5.9,0l-5-5c-2.6,1.4-5.3,2.4-8.2,3.1v6.4c0,2.3-1.9,4.2-4.2,4.2h-8.7c-2.3,0-4.2-1.9-4.2-4.2v-7c-2.8-.9-5.5-2.1-8-3.6l-4.6,4.6c-1.6,1.6-4.3,1.6-5.9,0l-6.2-6.2c-1.6-1.6-1.6-4.3,0-5.9l5-5c-1.4-2.6-2.4-5.3-3.1-8.2h-6.4c-2.3,0-4.2-1.9-4.2-4.2v-8.7c0-2.3,1.9-4.2,4.2-4.2h7c.9-2.8,2.1-5.5,3.6-8l-4.6-4.6c-1.6-1.6-1.6-4.3,0-5.9l6.2-6.2c1.6-1.6,4.3-1.6,5.9,0l5,5c2.6-1.4,5.3-2.4,8.2-3.1v-6.4c0-2.3,1.9-4.2,4.2-4.2h8.7c2.3,0,4.2,1.9,4.2,4.2v7c2.8.9,5.5,2.1,8,3.6l4.6-4.6c1.6-1.6,4.3-1.6,5.9,0h0ZM43,25.8c9.5,0,17.2,7.7,17.2,17.2s-7.7,17.2-17.2,17.2-17.2-7.7-17.2-17.2c0-9.5,7.7-17.2,17.2-17.2h0Z"/>
  <path class="st0" d="M103,69.4l5.3,1.8c1.4.5,2.1,2,1.7,3.4l-1.5,4.2c1.5,1.1,2.9,2.4,4.1,3.8l3.7-1.8c1.3-.6,2.9,0,3.6,1.2l2.5,5c.6,1.3,0,2.9-1.2,3.6l-4,2c.3,1.9.4,3.8.2,5.6l3.9,1.3c1.4.5,2.1,2,1.7,3.4l-1.8,5.3c-.5,1.4-2,2.1-3.4,1.7l-4.2-1.5c-1.1,1.5-2.4,2.9-3.8,4.1l1.8,3.7c.6,1.3,0,2.9-1.2,3.6l-5,2.5c-1.3.6-2.9,0-3.6-1.2l-2-4c-1.9.3-3.8.4-5.6.2l-1.3,3.9c-.5,1.4-2,2.1-3.4,1.7l-5.3-1.8c-1.4-.5-2.1-2-1.7-3.4l1.5-4.2c-1.5-1.1-2.9-2.4-4.1-3.8l-3.7,1.8c-1.3.6-2.9,0-3.6-1.2l-2.5-5c-.6-1.3,0-2.9,1.2-3.6l4-2c-.3-1.9-.4-3.8-.2-5.6l-3.9-1.3c-1.4-.5-2.1-2-1.7-3.4l1.8-5.3c.5-1.4,2-2.1,3.4-1.7l4.2,1.5c1.1-1.5,2.4-2.9,3.8-4.1l-1.8-3.7c-.6-1.3,0-2.9,1.2-3.6l5-2.5c1.3-.6,2.9,0,3.6,1.2l2,4c1.9-.3,3.8-.4,5.6-.2l1.3-3.9c.5-1.4,2-2.1,3.4-1.7h0ZM91.3,86.2c5.4-2.7,12-.4,14.7,5,2.7,5.4.4,12-5,14.7-5.4,2.7-12,.4-14.7-5-2.7-5.4-.4-12,5-14.7h0Z"/>
</svg>