<?xml version="1.0" encoding="UTF-8"?>
<svg id="Layer_1" xmlns="http://www.w3.org/2000/svg" version="1.1" viewBox="0 0 16 16">
  <!-- Generator: Adobe Illustrator 29.4.0, SVG Export Plug-In . SVG Version: 2.1.0 Build 152)  -->
  <defs>
    <style>
      .st0 {
        fill: #8f97a9;
      }
    </style>
  </defs>
  <path class="st0" d="M0,.5C0,.2.2,0,.5,0h3c.3,0,.5.2.5.5s-.2.5-.5.5H1v2.5c0,.3-.2.5-.5.5s-.5-.2-.5-.5V.5ZM12,.5c0-.3.2-.5.5-.5h3c.3,0,.5.2.5.5v3c0,.3-.2.5-.5.5s-.5-.2-.5-.5V1h-2.5c-.3,0-.5-.2-.5-.5M.5,12c.3,0,.5.2.5.5v2.5h2.5c.3,0,.5.2.5.5s-.2.5-.5.5H.5c-.3,0-.5-.2-.5-.5v-3c0-.3.2-.5.5-.5M15.5,12c.3,0,.5.2.5.5v3c0,.3-.2.5-.5.5h-3c-.3,0-.5-.2-.5-.5s.2-.5.5-.5h2.5v-2.5c0-.3.2-.5.5-.5M4,4h1v1h-1v-1Z"/>
  <path class="st0" d="M7,2H2v5h5V2ZM3,3h3v3h-3v-3ZM5,11h-1v1h1v-1Z"/>
  <path class="st0" d="M7,9H2v5h5v-5ZM3,10h3v3h-3v-3ZM11,4h1v1h-1v-1Z"/>
  <path class="st0" d="M9,2h5v5h-5V2ZM10,3v3h3v-3h-3ZM8,8v2h1v1h-1v1h2v-2h1v2h1v-1h2v-1h-3v-2h-3ZM10,10h-1v-1h1v1ZM14,12h-1v1h-2v1h3v-2ZM10,14v-1h-2v1h2Z"/>
  <path class="st0" d="M12,9h2v-1h-2v1Z"/>
</svg>