<?xml version="1.0" encoding="UTF-8"?>
<svg id="Layer_1" xmlns="http://www.w3.org/2000/svg" version="1.1" viewBox="0 0 16 16">
  <!-- Generator: Adobe Illustrator 29.4.0, SVG Export Plug-In . SVG Version: 2.1.0 Build 152)  -->
  <defs>
    <style>
      .st0 {
        fill: #8f97a9;
      }
    </style>
  </defs>
  <path class="st0" d="M2,2h2v2h-2v-2Z"/>
  <path class="st0" d="M6,0v6H0V0h6ZM5,1H1v4h4V1ZM4,12h-2v2h2v-2Z"/>
  <path class="st0" d="M6,10v6H0v-6h6ZM1,11v4h4v-4H1ZM12,2h2v2h-2v-2Z"/>
  <path class="st0" d="M10,0v6h6V0h-6ZM15,1v4h-4V1h4ZM8,1V0h1v2h-1v2h-1V1h1ZM8,6v-2h1v2h-1ZM6,8v-1h1v-1h1v2h1v-1h5v1h-4v1h-3v-1h-1ZM6,8v1H2v-1h-1v1H0v-2h3v1h3ZM16,9h-1v-2h1v2ZM15,9h-1v2h2v-1h-1v-1ZM11,9h2v1h-1v1h-1v-2ZM13,12v-1h-1v1h-1v1h-2v1h3v-2h1ZM13,12h3v1h-2v1h-1v-2ZM9,11v1h1v-2h-3v1h2Z"/>
  <path class="st0" d="M7,12h1v3h4v1h-5v-4ZM16,14v2h-3v-1h2v-1h1Z"/>
</svg>