<?xml version="1.0" encoding="UTF-8"?>
<svg id="Layer_1" xmlns="http://www.w3.org/2000/svg" version="1.1" viewBox="0 0 16 16">
  <!-- Generator: Adobe Illustrator 29.4.0, SVG Export Plug-In . SVG Version: 2.1.0 Build 152)  -->
  <defs>
    <style>
      .st0 {
        fill: #8f97a9;
      }
    </style>
  </defs>
  <path class="st0" d="M8,15c-3.9,0-7-3.1-7-7S4.1,1,8,1s7,3.1,7,7-3.1,7-7,7M8,16c4.4,0,8-3.6,8-8S12.4,0,8,0,0,3.6,0,8s3.6,8,8,8"/>
  <path class="st0" d="M5.3,5.8c0,.1,0,.2.2.2,0,0,0,0,0,0h.8c.1,0,.2-.1.3-.2,0-.7.5-1.1,1.3-1.1s1.3.3,1.3,1.2-.4.9-1,1.4c-.7.5-1.2,1.1-1.2,2v.2c0,.1.1.2.3.2h.8c.1,0,.2-.1.2-.2h0c0-.8.3-1,1-1.6.6-.5,1.2-1,1.2-2.1s-1.3-2.2-2.7-2.2-2.7.6-2.8,2.3M6.8,11.5c0,.5.4.9,1,.9s1-.4,1-.9-.4-.9-1-.9-1,.4-1,.9"/>
</svg>