<?xml version="1.0" encoding="UTF-8"?>
<svg id="Layer_1" xmlns="http://www.w3.org/2000/svg" version="1.1" viewBox="0 0 16 16">
  <!-- Generator: Adobe Illustrator 29.4.0, SVG Export Plug-In . SVG Version: 2.1.0 Build 152)  -->
  <defs>
    <style>
      .st0 {
        fill: #8f97a9;
      }
    </style>
  </defs>
  <path class="st0" d="M12,2h-2v3h2v-3Z"/>
  <path class="st0" d="M1.5,0C.7,0,0,.7,0,1.5v13c0,.8.7,1.5,1.5,1.5h13c.8,0,1.5-.7,1.5-1.5h0V2.9c0-.4-.2-.8-.4-1.1l-1.4-1.4c-.3-.3-.7-.4-1.1-.4H1.5ZM4,6c-.6,0-1-.4-1-1V1h10v4c0,.6-.4,1-1,1H4ZM3,9h10c.6,0,1,.4,1,1v5H2v-5c0-.6.4-1,1-1"/>
</svg>