<?xml version="1.0" encoding="UTF-8"?>
<svg id="Layer_1" xmlns="http://www.w3.org/2000/svg" version="1.1" viewBox="0 0 120 120">
  <!-- Generator: Adobe Illustrator 29.4.0, SVG Export Plug-In . SVG Version: 2.1.0 Build 152)  -->
  <defs>
    <style>
      .st0 {
        fill: #0fdfa2;
      }

      .st0, .st1, .st2 {
        fill-rule: evenodd;
      }

      .st1 {
        fill: #8c5d0f;
      }

      .st2 {
        fill: #0ac18e;
      }

      .st3 {
        fill: #af7311;
      }
    </style>
  </defs>
  <path class="st0" d="M68.5,56.4l3.1-1.4c7.2,1.6,15.1,19.2,6.3,25.2-10.9,7.4-14.9-7-25,1.3l-5.4,3.8-3.3-9c4.4-2.6,11.3-8,16.3-7.8,3,.1,6.2,1.8,9.2,2.7,2.8.9,5.8-1,3.6-5.3l-4.8-9.6h0Z"/>
  <path class="st2" d="M25.5,43.3c.3-2.1,9.5-5.1,11.6-5.8,10.9-3.5,24.9-4,30.2,8.6.6,1.7.7,3.6.3,5.4l-21.3-4.5,19.9,7.3c-2.3,3.3-5.8,5.6-9.7,6.5-8,1.9-16.5-.3-22.5-5.9-1.2-1.1-2.3-2.2-3.2-3.5-1.2-1.6-5.4-6.7-5.2-8.2h0Z"/>
  <path class="st2" d="M117.4,5.1c-2-2.4-15.9.8-19.1,1.6-16.4,4-34.4,14-31.5,34,.4,2.6,1.9,4.8,3.8,7l23.5-21.9-19.6,24.4c5.5,2.4,11.6,2.6,17.2.8,11.6-3.8,20.5-13,24-24.7.7-2.3,1.1-4.6,1.4-6.9.3-2.9,1.7-12.6.2-14.3Z"/>
  <path class="st1" d="M18.3,81c9.5-7.1,20.2-9.9,27.7-8l.4,8.3,8.8,1.2c1.4,8.2-4.7,19.3-15.7,27.4-13.4,9.9-29,11.4-34.9,3.4-5.9-8,.2-22.4,13.6-32.3Z"/>
  <path class="st3" d="M43.3,72.3c-.6-1.1-.2-2.5,1-3.1s2.5-.2,3.1,1c0,0,0,.2.1.3.8,1.8,1.3,3.7,1.5,5.6,0,1,0,2,0,2.9,1.3,0,2.6.3,3.9.6,2.1.5,4.1,1.5,5.8,2.9,1,.8,1.2,2.2.4,3.3-.8,1-2.2,1.2-3.3.4-1.2-1-2.6-1.7-4.1-2-1.7-.4-3.5-.6-5.2-.4-1.3.1-2.4-.8-2.5-2.1,0-.2,0-.5,0-.7.3-1.4.4-2.9.3-4.3-.1-1.4-.5-2.8-1.1-4.1h0Z"/>
</svg>