<?xml version="1.0" encoding="utf-8"?>
<!-- Generator: Adobe Illustrator 29.4.0, SVG Export Plug-In . SVG Version: 9.03 Build 0)  -->
<svg version="1.0"
	 id="svg7854" xmlns:svg="http://www.w3.org/2000/svg" xmlns:cc="http://creativecommons.org/ns#" xmlns:dc="http://purl.org/dc/elements/1.1/" xmlns:rdf="http://www.w3.org/1999/02/22-rdf-syntax-ns#"
	 xmlns="http://www.w3.org/2000/svg" xmlns:xlink="http://www.w3.org/1999/xlink" x="0px" y="0px" viewBox="0 0 256 256"
	 style="enable-background:new 0 0 256 256;" xml:space="preserve">
<style type="text/css">
	.st0{opacity:0.6;fill:#084298;enable-background:new    ;}
	.st1{fill:#0D6EFD;}
	.st2{fill:url(#path2765_00000134235485603929992380000012826151031121367985_);}
	.st3{fill:url(#path2767_00000090295786234328898930000016082836375541283998_);}
</style>
<g id="g7170" transform="matrix(8.5360982,0,0,8.5344876,2806.7615,-180.84299)">
	<ellipse id="path7691" class="st0" cx="-313.8" cy="36.2" rx="15" ry="15"/>
	<g id="g7564">
		<ellipse id="path7968" class="st1" cx="-313.8" cy="36.2" rx="13.5" ry="13.5"/>
	</g>
</g>
<g id="g2769" transform="matrix(1.6522577,0,0,1.6522577,42.530808,45.139276)">
	
		<linearGradient id="path2765_00000003813289476832947720000009104659217726135739_" gradientUnits="userSpaceOnUse" x1="-447.2039" y1="98.8662" x2="-447.597" y2="191.436" gradientTransform="matrix(4.5107 0 0 -4.5107 2051.4468 542.6076)">
		<stop  offset="0" style="stop-color:#000000"/>
		<stop  offset="1" style="stop-color:#4D4D4D"/>
	</linearGradient>
	<path id="path2765" style="fill:url(#path2765_00000003813289476832947720000009104659217726135739_);" d="M56.2,62.5
		c0-11.5-5.8-17.9-11.4-24.2c-4.3-4.8-8.5-9.4-10.5-16.6l5.8,5.1c0.9,0.8,2,1.2,3.1,1.2c1.3,0,2.6-0.5,3.6-1.6c1.7-2,1.6-5-0.4-6.7
		L29.8,5.2c-0.9-0.8-2-1.2-3.1-1.2c-0.3,0-0.5,0-0.8,0.1c-1.4,0.2-2.6,1.1-3.4,2.3L12.5,24c-1.3,2.3-0.5,5.2,1.8,6.5
		c0.7,0.4,1.5,0.6,2.3,0.6c1.7,0,3.3-0.9,4.1-2.4l3.7-6.5c2.5,10.7,8.3,17.1,13.2,22.5c5,5.5,9,9.9,9,17.8v29c0,2.6,2.1,4.8,4.8,4.8
		c2.6,0,4.8-2.1,4.8-4.8V62.5z"/>
	
		<linearGradient id="path2767_00000167375016975784911720000001663551316218418601_" gradientUnits="userSpaceOnUse" x1="-438.4141" y1="98.9035" x2="-438.8072" y2="191.4733" gradientTransform="matrix(4.5107 0 0 -4.5107 2051.4468 542.6076)">
		<stop  offset="0" style="stop-color:#000000"/>
		<stop  offset="1" style="stop-color:#4D4D4D"/>
	</linearGradient>
	<path id="path2767" style="fill:url(#path2767_00000167375016975784911720000001663551316218418601_);" d="M90.6,35.6L78,19.2
		c-0.9-1.1-2.2-1.8-3.6-1.9c-1.4,0-2.8,0.5-3.7,1.6L56.9,34.6c-1.7,2-1.5,5,0.4,6.7c2,1.7,5,1.5,6.7-0.4l5.5-6.3
		c-1.4,9.2-5.8,14.6-10.5,19.8c0.6,2.4,1,5.1,1,8V68c1.5-2.1,3.2-4.1,5.2-6.3c5.3-5.8,11.8-13,13.7-25.7l4.1,5.4
		c0.9,1.2,2.3,1.9,3.8,1.9c1,0,2-0.3,2.9-1C91.8,40.6,92.2,37.7,90.6,35.6L90.6,35.6z"/>
</g>
</svg>
