<?xml version="1.0" encoding="UTF-8"?>
<svg id="Layer_1" xmlns="http://www.w3.org/2000/svg" version="1.1" viewBox="0 0 213.3 213.3">
  <!-- Generator: Adobe Illustrator 29.4.0, SVG Export Plug-In . SVG Version: 2.1.0 Build 152)  -->
  <defs>
    <style>
      .st0 {
        opacity: .5;
      }

      .st0, .st1, .st2, .st3, .st4, .st5, .st6 {
        fill: #0d6efd;
      }

      .st1 {
        opacity: .6;
      }

      .st2 {
        opacity: .7;
      }

      .st3 {
        opacity: .8;
      }

      .st4 {
        opacity: .9;
      }

      .st5 {
        opacity: .4;
      }
    </style>
  </defs>
  <path class="st6" d="M203.6,101.8h-38.8c-5.4,0-9.7,4.3-9.7,9.7s4.3,9.7,9.7,9.7h38.8c5.4,0,9.7-4.3,9.7-9.7s-4.3-9.7-9.7-9.7Z"/>
  <path class="st1" d="M48.5,101.8H9.7c-5.4,0-9.7,4.3-9.7,9.7s4.3,9.7,9.7,9.7h38.8c5.4,0,9.7-4.3,9.7-9.7s-4.3-9.7-9.7-9.7Z"/>
  <path class="st4" d="M168.4,36.1l-27.4,27.4c-3.8,3.8-3.8,9.9,0,13.7,1.9,1.9,4.4,2.8,6.9,2.8s5-.9,6.9-2.8l27.4-27.4c3.8-3.8,3.8-9.9,0-13.7-3.8-3.8-9.9-3.8-13.7,0Z"/>
  <path class="st5" d="M106.7,169.7c-5.4,0-9.7,4.3-9.7,9.7v19.4c0,5.4,4.3,9.7,9.7,9.7s9.7-4.3,9.7-9.7v-19.4c0-5.4-4.3-9.7-9.7-9.7Z"/>
  <path class="st0" d="M58.7,145.8l-27.4,27.4c-3.8,3.8-3.8,9.9,0,13.7,1.9,1.9,4.4,2.8,6.9,2.8s5-.9,6.9-2.8l27.4-27.4c3.8-3.8,3.8-9.9,0-13.7-3.8-3.8-9.9-3.8-13.7,0Z"/>
  <path class="st3" d="M106.7,4.8c-5.4,0-9.7,4.3-9.7,9.7v38.8c0,5.4,4.3,9.7,9.7,9.7s9.7-4.3,9.7-9.7V14.5c0-5.4-4.3-9.7-9.7-9.7Z"/>
  <path class="st2" d="M45,36.1c-3.8-3.8-9.9-3.8-13.7,0-3.8,3.8-3.8,9.9,0,13.7l27.4,27.4c1.9,1.9,4.4,2.8,6.9,2.8s5-.9,6.9-2.8c3.8-3.8,3.8-9.9,0-13.7l-27.4-27.4Z"/>
</svg>