<?xml version="1.0" encoding="UTF-8"?>
<svg id="Layer_1" xmlns="http://www.w3.org/2000/svg" version="1.1" viewBox="0 0 16 16">
  <!-- Generator: Adobe Illustrator 29.4.0, SVG Export Plug-In . SVG Version: 2.1.0 Build 152)  -->
  <defs>
    <style>
      .st0 {
        fill: #fff;
      }

      .st1 {
        fill: #0ac18e;
      }

      .st2 {
        fill: #99a1b3;
      }
    </style>
  </defs>
  <g>
    <path class="st1" d="M0,2.8c0-.6.4-1,1-1h14c.6,0,1,.4,1,1v8c0,.6-.4,1-1,1H1c-.6,0-1-.4-1-1V2.8ZM3,2.8c0,1.1-.9,2-2,2v4c1.1,0,2,.9,2,2h10c0-1.1.9-2,2-2v-4c-1.1,0-2-.9-2-2,0,0-10,0-10,0Z"/>
    <g>
      <circle class="st1" cx="8" cy="6.8" r="3.5"/>
      <path id="symbol" class="st0" d="M9.1,5.6c-.2-.4-.6-.5-1.1-.4l-.2-.6h-.4c0,0,.2.7.2.7,0,0-.2,0-.3,0l-.2-.6h-.4c0,0,.2.7.2.7,0,0-.8.2-.8.2v.4c.1,0,.4,0,.4,0,.2,0,.2,0,.3.1l.4,1.7s0,.1-.1.2c0,0-.3,0-.3,0v.5s.7-.2.8-.2l.2.6h.4c0,0-.2-.7-.2-.7.1,0,.2,0,.3,0l.2.6h.4c0,0-.2-.7-.2-.7.6-.1,1-.5.9-1.1,0-.3-.4-.6-.7-.6.2-.2.3-.4.2-.7h0ZM8.9,7.1c0,.6-.7.6-1,.7l-.2-.8c.3,0,1-.3,1.2.1ZM8.5,6c0,.5-.6.6-.8.6l-.2-.8c.2,0,.8-.3,1,.1Z"/>
    </g>
  </g>
  <path class="st2" d="M10.1,14.2c-.1,0-.2-.1-.2-.2s.1-.2.2-.2h.5v-.5c0-.8.5-1.6,1.2-2,.1,0,.2-.2.2-.3v-.3c0-.1,0-.2-.2-.3-.8-.4-1.2-1.1-1.2-2v-.5h-.5c-.1,0-.2,0-.2-.2s.1-.2.2-.2h5.3c.1,0,.2,0,.2.2s-.1.2-.2.2h-.5v.5c0,.8-.5,1.6-1.2,2-.1,0-.2.2-.2.3v.3c0,.1,0,.2.2.3.8.4,1.2,1.1,1.2,2v.5h.5c.1,0,.2.1.2.2s-.1.2-.2.2h-5.3ZM11.1,7.9v.5c0,.3,0,.5.2.7h3.1c.1-.2.2-.5.2-.7v-.5h-3.5ZM12.5,11c0,.3-.2.6-.5.7-.6.3-1,.9-1,1.5,0,0,.4-.6,1.5-.7v-1.5ZM13,11v1.5c1,0,1.5.7,1.5.7,0-.7-.4-1.2-1-1.5-.3-.1-.5-.4-.5-.7h0Z"/>
</svg>