<?xml version="1.0" encoding="UTF-8"?>
<svg id="Layer_1" xmlns="http://www.w3.org/2000/svg" version="1.1" viewBox="0 0 16 16">
  <!-- Generator: Adobe Illustrator 29.4.0, SVG Export Plug-In . SVG Version: 2.1.0 Build 152)  -->
  <defs>
    <style>
      .st0 {
        fill: #8f97a9;
      }

      .st1 {
        fill: #fff;
      }

      .st2 {
        fill: #0ac18e;
      }
    </style>
  </defs>
  <g>
    <circle class="st2" cx="8" cy="6.8" r="3"/>
    <path id="symbol" class="st1" d="M8.9,5.8c-.1-.3-.5-.4-.9-.3v-.5c-.1,0-.5,0-.5,0v.5s0,0-.1,0v-.5c-.1,0-.4,0-.4,0v.5c0,0-.5.2-.5.2v.3c0,0,.3,0,.3,0,.1,0,.2,0,.2,0l.4,1.4s0,.1,0,.1c0,0-.2,0-.2,0v.4s.6-.1.7-.2v.5c.1,0,.5,0,.5,0v-.5s0,0,.1,0v.5c.1,0,.5,0,.5,0v-.5c.4-.1.7-.4.6-.9,0-.3-.4-.5-.6-.5.2-.1.2-.3.1-.6h0ZM8.8,7c0,.5-.6.5-.8.6l-.2-.7c.2,0,.9-.3,1,.1ZM8.4,6.1c0,.4-.5.5-.7.5l-.2-.6c.2,0,.7-.3.8.1Z"/>
  </g>
  <g>
    <path class="st2" d="M0,2.8c0-.6.4-1,1-1h14c.6,0,1,.4,1,1v8c0,.6-.4,1-1,1H1c-.6,0-1-.4-1-1V2.8ZM3,2.8c0,1.1-.9,2-2,2v4c1.1,0,2,.9,2,2h10c0-1.1.9-2,2-2v-4c-1.1,0-2-.9-2-2H3Z"/>
    <path class="st0" d="M10.1,14.2c-.1,0-.2-.1-.2-.2s.1-.2.2-.2h.5v-.5c0-.8.5-1.6,1.2-2,.1,0,.2-.2.2-.3v-.3c0-.1,0-.2-.2-.3-.8-.4-1.2-1.1-1.2-2v-.5h-.5c-.1,0-.2-.1-.2-.2s.1-.2.2-.2h5.3c.1,0,.2.1.2.2s-.1.2-.2.2h-.5v.5c0,.8-.5,1.6-1.2,2-.1,0-.2.2-.2.3v.3c0,.1,0,.2.2.3.8.4,1.2,1.1,1.2,2v.5h.5c.1,0,.2.1.2.2s-.1.2-.2.2h-5.3ZM11.1,7.9v.5c0,.3,0,.5.2.7h3.1c.1-.2.2-.5.2-.7v-.5h-3.4ZM12.5,11c0,.3-.2.6-.5.7-.6.3-1,.9-1,1.5,0,0,.4-.6,1.5-.7v-1.5ZM13,11v1.5c1,0,1.5.7,1.5.7,0-.7-.4-1.2-1-1.5-.3-.1-.5-.4-.5-.7h0Z"/>
  </g>
</svg>