<?xml version="1.0" encoding="UTF-8"?>
<svg id="Layer_1" xmlns="http://www.w3.org/2000/svg" version="1.1" viewBox="0 0 122 122">
  <!-- Generator: Adobe Illustrator 29.4.0, SVG Export Plug-In . SVG Version: 2.1.0 Build 152)  -->
  <defs>
    <style>
      .st0 {
        fill: #6e7990;
        fill-rule: evenodd;
      }

      .st1 {
        fill: #201447;
      }

      .st2 {
        fill: #fff;
      }

      .st3 {
        fill: #d1ced9;
      }

      .st4 {
        fill: #0ac18e;
      }
    </style>
  </defs>
  <path class="st0" d="M29.7,109.2v-36.8h16.6c7,1.3,14,5.1,21,9.5h12.9c5.8.3,8.9,6.2,3.2,10.1-4.5,3.3-10.5,3.1-16.6,2.6-4.2-.2-4.4,5.4,0,5.5,1.5,0,3.2-.2,4.6-.2,7.6,0,13.9-1.5,17.7-7.5l1.9-4.5,19.1-9.5c9.6-3.1,16.4,6.9,9.3,13.8-13.9,10.1-28.1,18.4-42.6,25.1-10.6,6.4-21.1,6.2-31.6,0l-15.6-8h0ZM0,68.9h24.7v44H0v-44h0Z"/>
  <g>
    <circle class="st4" cx="70" cy="56.2" r="21.1"/>
    <path id="symbol" class="st2" d="M76.6,49.1c-1.1-2.4-3.5-2.9-6.5-2.4l-1-3.7-2.3.6.9,3.7c-.6.2-1.2.3-1.8.5l-.9-3.7-2.3.6,1,3.7c-.5,0-4.6,1.2-4.6,1.2l.6,2.4s1.7-.5,1.6-.4c.9-.2,1.4.2,1.6.7l2.6,10.2c0,.3,0,.8-.7,1l-1.6.4.2,2.8s4-1,4.6-1.2l1,3.8,2.3-.6-1-3.8c.6,0,1.2-.3,1.8-.5l1,3.8,2.3-.6-1-3.8c3.5-.8,5.9-3,5.4-6.4-.3-2-2.5-3.7-4.4-3.9,1.1-1,1.7-2.5,1-4.4h.2ZM75.5,57.9c.5,3.3-4.2,3.7-5.7,4.1l-1.3-5c1.5-.4,6.3-2.1,7,.8h0ZM72.8,51.2c.5,3-3.5,3.3-4.8,3.6l-1.2-4.5c1.3-.3,5-1.9,6,.9Z"/>
  </g>
  <g>
    <circle id="purple" class="st1" cx="93.6" cy="27.8" r="22"/>
    <g id="barcode">
      <path class="st3" d="M80.5,39.7l-2.4,2.2c.2.3.5.5.7.8l2.3-2.3c-.2-.2-.4-.4-.6-.7Z"/>
      <path class="st3" d="M79.2,38.1c0-.2-.3-.4-.4-.6l-2.7,1.8c.2.2.3.5.5.7l2.7-1.9h0Z"/>
      <path class="st3" d="M74.9,37.2l2.9-1.5c-.2-.4-.4-.9-.6-1.3l-3,1.2c.2.5.5,1.1.7,1.6Z"/>
      <path class="st3" d="M73.6,33.9l3.1-.9c0-.2,0-.5-.2-.7l-3.2.8c0,.3.2.6.2.8h0Z"/>
      <path class="st3" d="M73,31.5l3.2-.6c0-.2,0-.5,0-.7l-3.2.4c0,.3,0,.6,0,.8h0Z"/>
      <path class="st3" d="M72.8,29.9l3.2-.3v-1.4h-3.3v1.8h.1Z"/>
      <path class="st3" d="M73,23.9l3.2.6c0-.2,0-.5.2-.7l-3.2-.7c0,.3,0,.6-.2.9h0Z"/>
      <path class="st3" d="M73.4,22.4l3.1.9c.3-.9.6-1.9,1-2.7l-3-1.3c-.5,1-.9,2.1-1.2,3.2h0Z"/>
      <path class="st3" d="M75.3,17.8l2.9,1.6c0-.2.2-.4.4-.6l-2.8-1.7c0,.2-.3.5-.4.7h0Z"/>
      <path class="st3" d="M77.2,14.9l2.6,2c.2-.2.3-.4.5-.6l-2.5-2.1c-.2.2-.4.4-.6.7Z"/>
      <path class="st3" d="M81.1,15.3c.3-.3.7-.7,1.1-1l-2.1-2.5c-.4.4-.9.8-1.3,1.2l2.3,2.3Z"/>
      <path class="st3" d="M84.4,12.8c.2-.1.4-.2.6-.4l-1.6-2.8c-.3.1-.5.3-.7.4l1.7,2.8Z"/>
      <path class="st3" d="M86.4,11.7c.4-.2.9-.4,1.4-.5l-1.1-3.1c-.5.2-1.1.4-1.6.6,0,0,1.3,3,1.3,3Z"/>
      <path class="st3" d="M88.4,11c.7-.2,1.4-.4,2.1-.5l-.6-3.2c-.8.2-1.7.4-2.5.6l1,3.1Z"/>
      <path class="st3" d="M92.5,10.2h.7v-3.3h-.9s.2,3.3.2,3.3Z"/>
      <path class="st3" d="M94.7,10.2h.7l.3-3.2h-.9l-.2,3.3h0Z"/>
      <path class="st3" d="M97.4,10.6c1,.2,1.9.5,2.8.9l1.2-3c-1-.4-2.1-.8-3.3-1l-.7,3.2h0Z"/>
      <path class="st3" d="M100.8,11.7c.2,0,.4.2.7.3l1.4-2.9c-.3-.1-.5-.3-.8-.4,0,0-1.3,3-1.3,3Z"/>
      <path class="st3" d="M102.8,12.8c.4.3.8.5,1.2.8l1.9-2.6c-.5-.3-.9-.7-1.4-1l-1.7,2.8Z"/>
      <path class="st3" d="M106.5,15.9l2.4-2.2c-.2-.2-.4-.4-.6-.6l-2.3,2.3c.2.2.3.3.5.5Z"/>
      <path class="st3" d="M110,14.9l-2.6,2c.2.2.3.4.4.6l2.6-1.9c-.2-.2-.3-.5-.5-.7h0Z"/>
      <path class="st3" d="M111.5,17.1l-2.8,1.7c0,.2.3.4.4.6l2.9-1.6c0-.3-.3-.5-.4-.8h0Z"/>
      <path class="st3" d="M112.3,18.5l-2.9,1.4c.2.4.4.9.6,1.3l3-1.2c-.2-.5-.4-1.1-.7-1.6h0Z"/>
      <path class="st3" d="M113.5,21.6l-3.1,1c0,.2,0,.5.2.7l3.1-.9c0-.3-.2-.5-.2-.8Z"/>
      <path class="st3" d="M114.5,28.4v-1.7l-3.3.2v1.5h3.3Z"/>
      <path class="st3" d="M114.2,31.6l-3.2-.6c0,.2,0,.5,0,.7l3.2.7c0-.3,0-.6.2-.8h0Z"/>
      <path class="st3" d="M113.8,33.2l-3.2-.8c0,.2,0,.5-.2.7l3.1,1c0-.3.2-.5.2-.8h0Z"/>
      <path class="st3" d="M112.6,36.5l-3-1.4c0,.2-.2.4-.3.7l2.9,1.5c0-.3.3-.5.4-.8Z"/>
      <path class="st3" d="M111.9,37.9l-2.9-1.6c-.5.9-1,1.7-1.6,2.4l2.6,2c.7-.9,1.3-1.8,1.9-2.8Z"/>
      <path class="st3" d="M106.6,39.7c-.2.2-.4.4-.6.6l2.3,2.3c.2-.2.5-.5.7-.7,0,0-2.4-2.2-2.4-2.2Z"/>
    </g>
    <g id="BCH">
      <circle id="green" class="st4" cx="93.6" cy="27.8" r="16.5"/>
      <path id="symbol1" class="st2" d="M98.7,22.3c-.8-1.9-2.7-2.3-5.1-1.9l-.8-2.9-1.8.5.7,2.9c-.5.1-.9.2-1.4.4l-.7-2.9-1.8.5.8,2.9-3.6.9.5,1.9s1.3-.4,1.3-.3c.7-.2,1.1.2,1.2.5l2.1,8c0,.2,0,.6-.5.8l-1.3.3.2,2.2s3.2-.8,3.6-.9l.8,2.9,1.8-.5-.8-3c.5,0,1-.2,1.4-.4l.8,2.9,1.8-.5-.8-2.9c2.7-.7,4.6-2.4,4.3-5-.3-1.6-2-2.9-3.4-3,.9-.8,1.3-1.9.8-3.4h0ZM97.9,29.2c.4,2.6-3.3,2.9-4.5,3.2l-1-3.9c1.2-.3,4.9-1.6,5.5.7ZM95.7,23.9c.4,2.3-2.7,2.6-3.7,2.8l-.9-3.5c1-.2,3.9-1.4,4.7.7h0Z"/>
    </g>
    <g id="text">
      <path id="s" class="st2" d="M104.6,45.1c0,0,.2,0,.2-.2v-.2h-1.3s0,0-.2-.2c0-.2,0-.4,0-.6,0-.2.2-.4.5-.5,0,0,.2,0,.4-.2h.3l.2.5h-.2s-.2,0-.3,0c-.2,0-.2.2-.2.3h1s0,0,.2,0c0,0,0,0,.2.2,0,.2,0,.4,0,.6,0,.2-.3.4-.5.5s-.3.2-.5.2h-.3l-.2-.5h.3c0,0,.2,0,.3-.2h0Z"/>
      <path id="n" class="st2" d="M100.9,45.1s.2-.2.3-.3c0,0,.3-.2.5-.3.2,0,.3,0,.5,0h.4c0,0,.2,0,.3.2,0,0,.2.2.2.4l.6,1.2-.6.3-.5-1.1c0-.2-.2-.3-.3-.4h-.5l.8,1.6-.6.3-1-2v.2Z"/>
      <path id="e" class="st2" d="M98.8,46.9v-.5c0-.2,0-.3,0-.4,0,0,.2-.2.3-.3,0,0,.2-.2.4-.2.3,0,.6,0,.8,0,.2,0,.4.4.5.7h0v.2l-1.4.5c0,0,0,.2.3.2h.5c0,0,.2,0,.3,0,0,0,.2,0,.2-.2l.3.5h0s0,0-.2,0c0,0,0,0-.2,0h-.7c-.2,0-.3,0-.4,0,0,0-.2-.2-.3-.3s-.2-.3-.2-.4l-.2.2ZM100.2,46.2h0q0,0,0-.2h-.6v.5l.8-.3h-.1Z"/>
      <path id="k" class="st2" d="M97.2,46.9s0-.2.2-.3c0,0,0-.2.2-.3,0,0,0-.2,0-.2,0,0,0,0,0-.2l.8-.2c0,.2-.2.4-.3.6,0,.2-.2.4-.4.6,0,0,.2,0,.3.2,0,0,.2.2.3.3,0,0,.2.2.3.3,0,0,.2.2.2.3h-.9l-.2-.2s-.2,0-.3-.2c0,0-.2,0-.3-.2l.2,1h-.6c0,0-.7-3.1-.7-3.1l.6-.2.4,1.9h0Z"/>
      <path id="o" class="st2" d="M96.1,47.5v.5c0,.2,0,.3-.2.4,0,0-.2.2-.3.3s-.3,0-.5,0h-.5c0,0-.3,0-.4-.2,0,0-.2-.2-.3-.4,0,0,0-.3,0-.5v-.5c0-.2,0-.3.2-.4,0,0,.2-.2.3-.3,0,0,.3,0,.4,0h.5c0,0,.3,0,.4.2,0,0,.2.2.3.4s0,.3,0,.5h0ZM95.4,47.5c0-.2,0-.4-.2-.5s-.2-.2-.4,0c0,0-.3,0-.3.2s0,.3,0,.5,0,.4.2.5c0,0,.2.2.4.2s.3,0,.3-.2,0-.3,0-.5h0Z"/>
      <path id="T" class="st2" d="M94,45.8v.6h-.9v2.4h-.8v-2.4c0,0-.8,0-.8,0v-.6h2.5c0,0,0,0,0,0Z"/>
      <path id="h" class="st2" d="M88.8,48.2l.6-3.2h.7l-.2,1.1h.4c.2,0,.3,0,.4.2,0,0,.2.2.3.3s0,.2,0,.4v.4l-.2,1.3h-.6c0,0,.2-1.3.2-1.3v-.5s0-.2-.3-.2h-.3l-.3,1.7h-.6v-.2Z"/>
      <path id="s1" class="st2" d="M87.4,47.3h.4v-.3s0,0-.2-.2c0,0-.2,0-.2-.2,0,0,0,0-.2-.2s0,0,0-.2v-.3c0-.2.2-.3.4-.4h.7c0,0,.3,0,.4.2,0,0,.2,0,.3.2l-.3.5s0,0-.2,0-.2,0-.3,0h-.3,0c0,0,.2.3.3.4,0,0,0,.2.2.2v.5c0,.2-.2.4-.4.4h-.7c-.2,0-.4,0-.5-.2,0,0-.2,0-.2-.2l.3-.5s.2,0,.3.2c0,0,.2,0,.3,0l-.2.2Z"/>
      <path id="a" class="st2" d="M86,44.8c.2,0,.3.2.4.3,0,0,.2.2.2.3v.3c0,0,0,.2,0,.4l-.5,1.2h-.4c-.2,0-.4,0-.6-.2,0,0-.3,0-.4-.2l-.2-.2v-.7c0,0,0-.2.2-.3,0,0,.2,0,.3,0h.3c0,0,.2,0,.3,0,0,0,0,0,.2,0h0v-.3s0-.2-.3-.2-.2,0-.3,0h-.3v-.5h1.1ZM85.3,46.5h.3l.2-.5h-.6v.3s0,0,.2.2h0Z"/>
      <path id="C" class="st2" d="M82.8,45.9c-.4-.3-.7-.6-.7-.9s0-.8.3-1.2c0-.2.3-.4.5-.5s.3-.2.5-.3h.6c.2,0,.4,0,.6.2,0,0,.2,0,.3.2,0,0,0,0,.2.2s0,0,0,.2h0c0,0-.5.5-.5.5,0,0,0-.2-.2-.3,0,0-.2-.2-.3-.3,0,0-.2,0-.3,0s-.2,0-.3,0-.2,0-.3.2c0,0-.2.2-.3.3,0,0,0,.2-.2.4v.3c0,0,0,.2,0,.3,0,0,.2.2.3.3,0,0,.2,0,.2,0s0,0,.2,0h.3v.6h-.6c-.2,0-.4,0-.6-.3h.1Z"/>
    </g>
  </g>
</svg>