<?xml version="1.0" encoding="UTF-8"?>
<svg id="CashTokens" xmlns="http://www.w3.org/2000/svg" version="1.1" viewBox="0 0 360 360">
  <!-- Generator: Adobe Illustrator 29.4.0, SVG Export Plug-In . SVG Version: 2.1.0 Build 152)  -->
  <defs>
    <style>
      .st0 {
        fill: #201447;
      }

      .st1 {
        fill: #fff;
      }

      .st2 {
        fill: #0ac18e;
      }
    </style>
  </defs>
  <circle id="purple" class="st0" cx="180" cy="180" r="176.4"/>
  <g id="BCH">
    <circle id="green" class="st2" cx="180" cy="180" r="132.3"/>
    <path id="symbol" class="st1" d="M221.3,135.6c-6.6-15.1-21.9-18.3-40.6-15.2l-6-23.3-14.2,3.7,5.9,23.2c-3.7.9-7.6,1.7-11.4,2.8l-5.9-23.1-14.2,3.7,6,23.3c-3.1.9-28.6,7.4-28.6,7.4l3.9,15.2s10.4-2.9,10.3-2.7c5.8-1.5,8.5,1.4,9.8,4.1l16.5,63.9c.2,1.8-.1,5-4.1,6.1.2.1-10.3,2.7-10.3,2.7l1.5,17.7s25.3-6.5,28.6-7.3l6.1,23.6,14.2-3.7-6.1-23.7c3.9-.9,7.7-1.8,11.4-2.8l6,23.6,14.2-3.7-6.1-23.5c21.8-5.3,37.2-19.1,34.1-40.1-2-12.7-15.9-23.1-27.4-24.3,7.1-6.3,10.7-15.4,6.3-27.4h0ZM214.5,191.1c2.8,20.9-26.2,23.4-35.7,25.9l-8.3-31.2c9.6-2.5,39.3-13.1,44.1,5.3ZM197,148.7c3,18.5-21.8,20.7-29.8,22.7l-7.6-28.3c8-2,31.3-11.6,37.4,5.6Z"/>
  </g>
</svg>