<?xml version="1.0" encoding="UTF-8"?>
<svg id="Layer_1" xmlns="http://www.w3.org/2000/svg" version="1.1" viewBox="0 0 122 122">
  <!-- Generator: Adobe Illustrator 29.4.0, SVG Export Plug-In . SVG Version: 2.1.0 Build 152)  -->
  <defs>
    <style>
      .st0 {
        fill: #201447;
      }

      .st1 {
        fill: #fff;
      }

      .st2 {
        fill: #0ac18e;
      }

      .st3 {
        fill: #8f97a9;
        fill-rule: evenodd;
      }
    </style>
  </defs>
  <path class="st3" d="M29.7,109.2v-36.8h16.6c7,1.3,14,5.1,21,9.5h12.9c5.8.3,8.9,6.2,3.2,10.1-4.5,3.3-10.5,3.1-16.6,2.6-4.2-.2-4.4,5.4,0,5.5,1.5,0,3.2-.2,4.6-.2,7.6,0,13.9-1.5,17.7-7.5l1.9-4.5,19.1-9.5c9.6-3.1,16.4,6.9,9.3,13.8-13.9,10.1-28.1,18.4-42.6,25.1-10.6,6.4-21.1,6.2-31.6,0l-15.6-8h0ZM0,68.9h24.7v44H0v-44h0Z"/>
  <g>
    <circle class="st2" cx="70" cy="56.2" r="21.1"/>
    <path id="symbol" class="st1" d="M76.6,49.1c-1.1-2.4-3.5-2.9-6.5-2.4l-1-3.7-2.3.6.9,3.7c-.6.2-1.2.3-1.8.5l-.9-3.7-2.3.6,1,3.7c-.5,0-4.6,1.2-4.6,1.2l.6,2.4s1.7-.5,1.6-.4c.9-.2,1.4.2,1.6.7l2.6,10.2c0,.3,0,.8-.7,1l-1.6.4.2,2.8s4-1,4.6-1.2l1,3.8,2.3-.6-1-3.8c.6,0,1.2-.3,1.8-.5l1,3.8,2.3-.6-1-3.8c3.5-.8,5.9-3,5.4-6.4-.3-2-2.5-3.7-4.4-3.9,1.1-1,1.7-2.5,1-4.4,0,0,.2,0,.2,0ZM75.5,57.9c.5,3.3-4.2,3.7-5.7,4.1l-1.3-5c1.5-.4,6.3-2.1,7,.8h0ZM72.8,51.2c.5,3-3.5,3.3-4.8,3.6l-1.2-4.5c1.3-.3,5-1.9,6,.9Z"/>
  </g>
  <circle id="purple" class="st0" cx="93.6" cy="27.8" r="22"/>
  <g id="BCH">
    <circle id="green" class="st2" cx="93.6" cy="27.8" r="16.5"/>
  </g>
</svg>