<?xml version="1.0" encoding="UTF-8"?>
<svg id="Layer_1" xmlns="http://www.w3.org/2000/svg" version="1.1" viewBox="0 0 16 16">
  <!-- Generator: Adobe Illustrator 29.4.0, SVG Export Plug-In . SVG Version: 2.1.0 Build 152)  -->
  <defs>
    <style>
      .st0 {
        fill: #8f97a9;
      }
    </style>
  </defs>
  <path class="st0" d="M16,.7c.1-.3,0-.5-.3-.6h-.4L.8,5.9h0l-.5.2c-.3,0-.4.4-.3.6,0,0,.1.2.2.2l.4.3h0l5,3.2,3.2,5h0l.3.4c.1.2.5.3.7.2,0,0,.2-.1.2-.2L16,.7ZM14.1,2.6l-7.5,7.5-.2-.3s0-.1-.2-.2l-.3-.2L13.4,1.9l1.2-.5s-.5,1.2-.5,1.2Z"/>
</svg>