<?xml version="1.0" encoding="UTF-8"?>
<svg xmlns="http://www.w3.org/2000/svg" xmlns:svg="http://www.w3.org/2000/svg" xmlns:sodipodi="http://sodipodi.sourceforge.net/DTD/sodipodi-0.dtd" xmlns:rdf="http://www.w3.org/1999/02/22-rdf-syntax-ns#" xmlns:inkscape="http://www.inkscape.org/namespaces/inkscape" xmlns:dc="http://purl.org/dc/elements/1.1/" xmlns:cc="http://creativecommons.org/ns#" version="1.1" viewBox="0 0 64 64">
  <!-- Generator: Adobe Illustrator 29.4.0, SVG Export Plug-In . SVG Version: 2.1.0 Build 152)  -->
  <defs>
    <style>
      .st0 {
        fill: #010101;
      }

      .st1 {
        fill: #7e4798;
      }

      .st2 {
        fill: #f5f8de;
      }

      .st3 {
        fill: #68b044;
      }
    </style>
  </defs>
  <g id="Layer_1" inkscape:export-filename="F:\dev\Electron-Cash\icons\tor_logo.png" inkscape:export-xdpi="96" inkscape:export-ydpi="96" inkscape:version="0.92.4 (5da689c313, 2019-01-14)" sodipodi:docname="tor_logo.svg">
    <g id="layer3">
      <g id="layer5">
        <g id="path2554">
          <path class="st3" d="M35.3,4.8l-1.7,6.8C36,6.8,39.9,3.2,44.3,0c-3.2,3.7-6.2,7.5-8,11.3,3-4.3,7.1-6.6,11.7-8.3-6.1,5.4-11,11.4-14.7,17.2l-3-1.3c.5-4.7,2.3-9.5,4.9-14.2h0Z"/>
        </g>
        <g id="path2534">
          <path class="st2" d="M27.4,17.8l5.6,2.3c0,1.4-.1,5.8.8,7.1,9.3,12,7.8,36.2-1.9,36.7-14.7,0-20.3-10-20.3-19.1s10-13.9,16-18.9c1.6-1.3,1.3-4.3-.1-8.1h0Z"/>
        </g>
        <g id="path2536">
          <path class="st1" d="M33,20l2,1.1c-.2,1.3,0,4.3,1.4,5,5.9,3.7,11.4,7.6,13.6,11.7,7.8,14.1-5.4,27.1-16.9,25.8,6.2-4.6,8-14.1,5.7-24.4-.9-4-2.4-7.7-5-11.9-1.1-1.9-.7-4.4-.8-7.3h0Z"/>
        </g>
      </g>
      <g id="layer4">
        <g id="path2540">
          <path class="st0" d="M30.8,26.7c-.4,2.2-.9,6.1-2.8,7.6-.8.6-1.6,1.1-2.5,1.7-3.5,2.3-6.8,4.5-8.4,10.1-.4,1.2,0,2.5.2,3.7.8,3.5,3.2,7.1,5.2,9.3,0,0,.4.4.4.4,1.6,1.8,2,2.4,8,3.7v.6c-3.7-.9-6.6-1.8-8.5-4,0,0-.4-.4-.4-.4-2-2.3-4.4-6.1-5.3-9.7-.4-1.4-.6-2.5-.2-4,1.6-5.8,5.2-8.1,8.7-10.5.8-.5,1.8-1,2.5-1.6,1.6-1.1,2.4-4.4,3.2-7.1h0Z"/>
        </g>
        <g id="path2542">
          <path class="st0" d="M32.3,35.9c0,2.5-.2,3.7.4,5.5.4,1.1,1.7,2.5,2,3.9.5,1.8,1.1,3.9,1.1,5.2s0,4.1-.7,6.9c-.5,2.3-1.6,4.4-3.4,5.5-1.9-.4-4.1-1.1-5.4-2.2-2.5-2.2-4.7-5.9-5-9-.2-2.6,2.2-6.5,5.6-8.4,2.8-1.7,3.5-3.5,4.2-6.6-.8,2.7-1.7,4.9-4.4,6.4-4,2.1-6.1,5.6-5.9,9,.3,4.3,2,7.2,5.4,9.5,1.4,1,4.1,2,5.8,2.3v-.2c1.3-.2,2.9-2.3,3.7-5.1.7-2.5,1-5.7.9-7.8,0-1.2-.6-3.7-1.6-6.1-.5-1.3-1.3-2.5-1.8-3.5-.6-1.1-.6-3-.9-5.3Z"/>
        </g>
        <g id="path2544">
          <path class="st0" d="M31.9,45.6c0,1.7.7,3.8,1,6,.2,1.6.1,3.2,0,4.7,0,1.6-.6,4.6-1.3,6.1-.7-.4-1-.7-1.5-1.3-.6-.8-1-1.6-1.3-2.5-.3-.7-.6-1.6-.8-2.5-.2-1.4-.1-3.7,1.5-5.9,1.3-1.8,1.6-2,2-4-.6,1.8-1,2-2.3,3.6-1.5,1.7-1.7,4.2-1.7,6.3s.4,1.8.7,2.7c.4.9.7,1.9,1.2,2.6.8,1.1,1.8,1.8,2.3,1.9h0c.9-1.1,1.5-2.1,1.7-3.2.2-1.3.3-2.5.4-4,.1-1.3,0-2.9-.3-4.6-.4-2.1-1.2-4.3-1.6-5.9h0Z"/>
        </g>
        <g id="path2550">
          <path class="st0" d="M32.2,24.8c0,2.5.2,7.1.9,8.9.2.6,2,3.3,3.2,6.6.8,2.3,1.1,4.4,1.2,5,.6,2.7-.1,7.3-1.1,11.6-.5,2.3-2.1,5.2-4,6.4l-.4.6c1.1,0,3.6-2.5,4.5-5.7,1.6-5.3,2.1-7.8,1.4-13.7,0-.6-.4-2.5-1.3-4.6-1.3-3.2-3.2-6.2-3.5-6.8-.5-1-1.1-5.4-1.1-8.3h0Z"/>
        </g>
        <g id="path2552">
          <path class="st0" d="M33,20.2c-.1,2.5-.1,4.5.3,6.4.5,2,3.2,5,4.3,8.4,2.1,6.5,1.6,15,0,21.5-.6,2.3-3.2,5.7-6,6.8l2,.5c1.1,0,3.9-2.7,5-5.6,1.8-4.7,2.1-10.3,1.4-16.2,0-.6-1-5.6-1.9-7.8-1.3-3.2-3.3-5.4-4-7.4-.6-1.5-.8-5.4-.4-6.2l-.7-.4Z"/>
        </g>
      </g>
    </g>
  </g>
</svg>