<?xml version="1.0" encoding="UTF-8"?>
<svg xmlns="http://www.w3.org/2000/svg" version="1.1" viewBox="0 0 456 511.8">
  <!-- Generator: Adobe Illustrator 29.4.0, SVG Export Plug-In . SVG Version: 2.1.0 Build 152)  -->
  <defs>
    <style>
      .st0 {
        fill: #dc3545;
        fill-rule: evenodd;
      }
    </style>
  </defs>
  <g id="Layer_1" image-rendering="optimizeQuality" shape-rendering="geometricPrecision" text-rendering="geometricPrecision">
    <path class="st0" d="M48.4,140.1h362c17.4,0,29.8,9.8,28.1,28.2l-30.7,317.1c-1.2,13.4-9,26.4-25.3,26.4H76.3c-13.6-.7-23.7-9.8-25.1-24.1L20.8,169c-1.7-18.4,9.8-28.9,27.6-28.9ZM24.5,38.2h136.5v-10.1c0-15.9,10.2-28.1,27-28.1h81.3c17.3,0,27.6,11.8,27.6,28v10.1h138.7c.6,0,1.1,0,1.7.1,10.2.9,18.1,9,18.7,19.2,0,.8,0,1.4,0,2.2v42.8c0,6-4.7,10.9-10.6,11.2-.5,0-1.1,0-1.6,0H11.2c-5.9,0-10.8-4.6-11.2-10.4C0,102.5,0,101.8,0,101v-39.5C0,50.6,4.2,40.8,16.8,38.5c2.5-.5,5.1-.4,7.7-.4ZM108.3,246.5c-.5-10.2,8.2-18.8,19.5-19.3,11.3-.5,20.9,7.4,21.5,17.6l8.7,160.6c.5,10.2-8.2,18.8-19.5,19.3-11.3.5-20.9-7.4-21.5-17.6l-8.7-160.6ZM310,244.8c.5-10.2,10.1-18.1,21.5-17.6,11.3.5,20,9.1,19.5,19.3l-8.7,160.6c-.5,10.2-10.1,18-21.5,17.6-11.3-.5-20-9.1-19.5-19.3l8.7-160.6h0ZM207,245.7c0-10.2,9.2-18.5,20.6-18.5s20.6,8.3,20.6,18.5v160.6c0,10.2-9.2,18.5-20.6,18.5s-20.6-8.3-20.6-18.5v-160.6h0Z"/>
  </g>
</svg>