<?xml version="1.0" encoding="UTF-8"?>
<svg id="Layer_1" xmlns="http://www.w3.org/2000/svg" version="1.1" viewBox="0 0 35 35">
  <!-- Generator: Adobe Illustrator 29.4.0, SVG Export Plug-In . SVG Version: 2.1.0 Build 152)  -->
  <defs>
    <style>
      .st0 {
        fill-rule: evenodd;
      }

      .st1 {
        fill: #8f97a9;
        isolation: isolate;
      }

      .st2 {
        fill: #0ac18e;
      }
    </style>
  </defs>
  <path class="st0" d="M14.3,0c-2.3.2-4.5,1.4-5.9,3.2-.9,1.1-1.4,2.3-1.6,3.6,0,.4,0,.7-.1,2.2v1.7h-3.5v9.3s0,9.3,0,9.3l6,2.8,6,2.8,6-2.8,6-2.8v-9.3s0-9.3,0-9.3h-3.5v-1.7c0-1.8,0-2.1-.3-2.9-.5-1.9-1.8-3.7-3.5-4.8-.5-.3-1.5-.8-2-1-1.2-.4-2.4-.5-3.6-.4M15.9,4.4c1.5.2,2.7,1.2,3.2,2.4.2.6.2.8.2,2.4v1.5h-8.3v-1.6c0-1.5,0-1.6.1-1.9.6-2,2.6-3.1,4.8-2.8M22.3,20.8v5.6l-3.6,1.7-3.6,1.7-3.6-1.7-3.6-1.7v-11.2h14.3v5.6Z"/>
  <g id="g7170">
    <circle id="path7691" class="st1" cx="24.6" cy="27" r="7.2"/>
    <g id="g7564">
      <circle id="path7968" class="st2" cx="24.6" cy="27" r="6.5"/>
    </g>
  </g>
</svg>