<?xml version="1.0" encoding="utf-8"?>
<!-- Generator: Adobe Illustrator 29.4.0, SVG Export Plug-In . SVG Version: 9.03 Build 0)  -->
<svg version="1.0"
	 id="svg2" xmlns:inkscape="http://www.inkscape.org/namespaces/inkscape" xmlns:sodipodi="http://sodipodi.sourceforge.net/DTD/sodipodi-0.dtd" xmlns:svg="http://www.w3.org/2000/svg" xmlns:cc="http://web.resource.org/cc/" xmlns:dc="http://purl.org/dc/elements/1.1/" xmlns:rdf="http://www.w3.org/1999/02/22-rdf-syntax-ns#" inkscape:output_extension="org.inkscape.output.svg.inkscape" inkscape:version="0.45" sodipodi:docbase="/home/dobey/Projects/gnome-icon-theme/scalable/actions" sodipodi:docname="system-run.svg" sodipodi:version="0.32"
	 xmlns="http://www.w3.org/2000/svg" xmlns:xlink="http://www.w3.org/1999/xlink" x="0px" y="0px" viewBox="0 0 48 48"
	 style="enable-background:new 0 0 48 48;" xml:space="preserve">
<style type="text/css">
	.st0{fill-rule:evenodd;clip-rule:evenodd;fill:#8F97A9;}
</style>
<sodipodi:namedview  bordercolor="#666666" borderlayer="true" borderopacity="1.0" gridempspacing="2" gridspacingx="0.5px" gridspacingy="0.5px" gridtolerance="10000" height="48px" id="base" inkscape:current-layer="layer1" inkscape:cx="31.777116" inkscape:cy="6.2374543" inkscape:document-units="px" inkscape:grid-bbox="true" inkscape:grid-points="false" inkscape:guide-bbox="false" inkscape:object-paths="false" inkscape:pageopacity="0.0" inkscape:pageshadow="2" inkscape:showpageshadow="false" inkscape:window-height="738" inkscape:window-width="1051" inkscape:window-x="263" inkscape:window-y="212" inkscape:zoom="1" pagecolor="#ffffff" showborder="false" showgrid="false" width="48px">
	</sodipodi:namedview>
<path class="st0" d="M21.2,4.2l1.6,1.6c0.4,0.4,0.4,1.1,0,1.5l-1.3,1.3c0.4,0.7,0.6,1.3,0.8,2.1h1.6c0.6,0,1.1,0.5,1.1,1.1v2.2
	c0,0.6-0.5,1.1-1.1,1.1h-1.8c-0.2,0.7-0.5,1.4-0.9,2l1.2,1.2c0.4,0.4,0.4,1.1,0,1.5l-1.6,1.6c-0.4,0.4-1.1,0.4-1.5,0l-1.3-1.3
	c-0.7,0.4-1.3,0.6-2.1,0.8v1.6c0,0.6-0.5,1.1-1.1,1.1h-2.2c-0.6,0-1.1-0.5-1.1-1.1v-1.8c-0.7-0.2-1.4-0.5-2-0.9l-1.2,1.2
	c-0.4,0.4-1.1,0.4-1.5,0l-1.6-1.6c-0.4-0.4-0.4-1.1,0-1.5l1.3-1.3c-0.4-0.7-0.6-1.3-0.8-2.1H4.3c-0.6,0-1.1-0.5-1.1-1.1v-2.2
	c0-0.6,0.5-1.1,1.1-1.1h1.8c0.2-0.7,0.5-1.4,0.9-2L5.8,6.9c-0.4-0.4-0.4-1.1,0-1.5l1.6-1.6c0.4-0.4,1.1-0.4,1.5,0l1.3,1.3
	c0.7-0.4,1.3-0.6,2.1-0.8V2.7c0-0.6,0.5-1.1,1.1-1.1h2.2c0.6,0,1.1,0.5,1.1,1.1v1.8c0.7,0.2,1.4,0.5,2,0.9l1.2-1.2
	C20.1,3.8,20.8,3.8,21.2,4.2C21.2,4.2,21.2,4.2,21.2,4.2z M14.1,8.1c2.4,0,4.3,1.9,4.3,4.3s-1.9,4.3-4.3,4.3s-4.3-1.9-4.3-4.3
	S11.7,8.1,14.1,8.1L14.1,8.1z"/>
<path class="st0" d="M42.7,16.9l0.7,2.1c0.2,0.5-0.1,1.2-0.6,1.3l-1.7,0.6c0,0.7,0,1.5-0.2,2.2l1.5,0.7c0.5,0.2,0.8,0.9,0.5,1.4
	l-0.9,2c-0.2,0.5-0.9,0.8-1.4,0.5L39,27c-0.5,0.5-1.1,1-1.7,1.4l0.6,1.5c0.2,0.5-0.1,1.2-0.6,1.3L35.2,32c-0.5,0.2-1.2-0.1-1.3-0.6
	l-0.6-1.7c-0.7,0-1.5,0-2.2-0.2L30.3,31c-0.2,0.5-0.9,0.8-1.4,0.5l-2-0.9c-0.5-0.2-0.8-0.9-0.5-1.4l0.8-1.6c-0.5-0.5-1-1.1-1.4-1.7
	l-1.5,0.6c-0.5,0.2-1.2-0.1-1.3-0.6l-0.7-2.1c-0.2-0.5,0.1-1.2,0.6-1.3l1.7-0.6c0-0.7,0-1.5,0.2-2.2l-1.5-0.7
	c-0.5-0.2-0.8-0.9-0.5-1.4l0.9-2c0.2-0.5,0.9-0.8,1.4-0.5l1.6,0.8c0.5-0.5,1.1-1,1.7-1.4l-0.6-1.5c-0.2-0.5,0.1-1.2,0.6-1.3l2.1-0.7
	c0.5-0.2,1.2,0.1,1.3,0.6l0.6,1.7c0.7,0,1.5,0,2.2,0.2l0.7-1.5c0.2-0.5,0.9-0.8,1.4-0.5l2,0.9c0.5,0.2,0.8,0.9,0.5,1.4l-0.8,1.6
	c0.5,0.5,1,1.1,1.4,1.7l1.5-0.6C41.9,16.1,42.5,16.3,42.7,16.9C42.7,16.9,42.7,16.9,42.7,16.9z M34.7,17.4c2.2,1,3.1,3.6,2.1,5.8
	c-1,2.2-3.6,3.1-5.8,2.1c-2.2-1-3.1-3.6-2.1-5.8S32.5,16.4,34.7,17.4L34.7,17.4z"/>
<path class="st0" d="M24.5,26.9l1.5,1.7c0.4,0.4,0.3,1.1-0.1,1.5l-1.3,1.2c0.3,0.7,0.5,1.4,0.6,2.1l1.6,0.1c0.6,0,1,0.5,1,1.1
	l-0.1,2.2c0,0.6-0.5,1-1.1,1l-1.8-0.1c-0.3,0.7-0.6,1.4-1,2l1.1,1.2c0.4,0.4,0.3,1.1-0.1,1.5L23,43.8c-0.4,0.4-1.1,0.3-1.5-0.1
	l-1.2-1.3c-0.7,0.3-1.4,0.5-2.1,0.6l-0.1,1.6c0,0.6-0.5,1-1.1,1l-2.2-0.1c-0.6,0-1-0.5-1-1.1l0.1-1.8c-0.7-0.3-1.4-0.6-2-1l-1.2,1.1
	C10.3,43,9.6,43,9.3,42.5l-1.5-1.7c-0.4-0.4-0.3-1.1,0.1-1.5l1.3-1.2c-0.3-0.7-0.5-1.4-0.6-2.1L7,36c-0.6,0-1-0.5-1-1.1l0.1-2.2
	c0-0.6,0.5-1,1.1-1L9,31.8c0.3-0.7,0.6-1.4,1-2L9,28.6c-0.4-0.4-0.3-1.1,0.1-1.5l1.7-1.5c0.4-0.4,1.1-0.3,1.5,0.1l1.2,1.3
	c0.7-0.3,1.4-0.5,2.1-0.6l0.1-1.6c0-0.6,0.5-1,1.1-1l2.2,0.1c0.6,0,1,0.5,1,1.1l-0.1,1.8c0.7,0.3,1.4,0.6,2,1l1.2-1.1
	C23.4,26.5,24.1,26.5,24.5,26.9C24.5,26.9,24.5,26.9,24.5,26.9z M17.2,30.4c2.4,0.2,4.2,2.2,4.1,4.6c-0.2,2.4-2.2,4.2-4.6,4.1
	c-2.4-0.2-4.2-2.2-4.1-4.6C12.7,32,14.8,30.2,17.2,30.4L17.2,30.4z"/>
</svg>
