<?xml version="1.0" encoding="utf-8"?>
<!-- Generator: Adobe Illustrator 29.4.0, SVG Export Plug-In . SVG Version: 9.03 Build 0)  -->
<svg version="1.0"
	 id="svg2" xmlns:inkscape="http://www.inkscape.org/namespaces/inkscape" xmlns:sodipodi="http://sodipodi.sourceforge.net/DTD/sodipodi-0.dtd" xmlns:svg="http://www.w3.org/2000/svg" xmlns:cc="http://creativecommons.org/ns#" xmlns:dc="http://purl.org/dc/elements/1.1/" xmlns:rdf="http://www.w3.org/1999/02/22-rdf-syntax-ns#" inkscape:version="0.47 r22583" sodipodi:docname="unlock.svg"
	 xmlns="http://www.w3.org/2000/svg" xmlns:xlink="http://www.w3.org/1999/xlink" x="0px" y="0px" viewBox="0 0 22 22"
	 style="enable-background:new 0 0 22 22;" xml:space="preserve">
<style type="text/css">
	.st0{fill-rule:evenodd;clip-rule:evenodd;fill:#8F97A9;}
</style>
<sodipodi:namedview  bordercolor="#666666" borderopacity="1" gridtolerance="10" guidetolerance="10" id="namedview56" inkscape:current-layer="svg2" inkscape:cx="11" inkscape:cy="11.670999" inkscape:pageopacity="0" inkscape:pageshadow="2" inkscape:window-height="722" inkscape:window-maximized="0" inkscape:window-width="989" inkscape:window-x="0" inkscape:window-y="0" inkscape:zoom="10.727273" objecttolerance="10" pagecolor="#ffffff" showgrid="false">
	</sodipodi:namedview>
<defs>
	
		<inkscape:perspective  id="perspective60" inkscape:persp3d-origin="11 : 7.3333333 : 1" inkscape:vp_x="0 : 11 : 1" inkscape:vp_y="0 : 1000 : 0" inkscape:vp_z="22 : 11 : 1" sodipodi:type="inkscape:persp3d">
		</inkscape:perspective>
</defs>
<path class="st0" d="M2.9,10h1.6V6.7c0-1.8,0.7-3.4,1.9-4.7l0,0c2.6-2.6,6.8-2.6,9.3,0c0,0,0,0,0,0l0,0c1.2,1.2,1.9,2.9,1.9,4.7v0.2
	h-2.6V6.6c0-1.1-0.4-2.1-1.2-2.9l0,0c-1.6-1.6-4.1-1.6-5.7,0C7.5,4.5,7.1,5.5,7.1,6.6V10h12c0.3,0,0.5,0.2,0.5,0.5v10.9
	c0,0.3-0.2,0.5-0.5,0.5H2.9c-0.3,0-0.5-0.2-0.5-0.5V10.5C2.4,10.3,2.6,10,2.9,10C2.9,10,2.9,10,2.9,10z M11.2,16l0.8,3.8H9.8
	l0.7-3.8c-0.8-0.3-1.2-1.1-1-1.9c0.3-0.8,1.1-1.2,1.9-1s1.2,1.1,1,1.9C12.2,15.5,11.7,15.9,11.2,16L11.2,16z"/>
</svg>
