<?xml version="1.0" encoding="UTF-8"?>
<svg id="Layer_1" xmlns="http://www.w3.org/2000/svg" xmlns:xlink="http://www.w3.org/1999/xlink" version="1.1" viewBox="0 0 256 256">
  <!-- Generator: Adobe Illustrator 29.4.0, SVG Export Plug-In . SVG Version: 2.1.0 Build 152)  -->
  <defs>
    <style>
      .st0 {
        fill: #ca6510;
        opacity: .7;
      }

      .st0, .st1, .st2, .st3, .st4 {
        stroke: #000;
        stroke-miterlimit: 10;
      }

      .st0, .st1, .st2, .st4 {
        stroke-width: 2px;
      }

      .st5 {
        fill: url(#radial-gradient);
        opacity: .6;
      }

      .st5, .st1 {
        isolation: isolate;
      }

      .st1 {
        fill: #ffc107;
        opacity: .3;
      }

      .st6 {
        fill: #8f97a9;
      }

      .st7 {
        fill: #dc3545;
      }

      .st2 {
        fill: #b02a37;
        opacity: .8;
      }

      .st3 {
        fill: #fff;
        fill-rule: evenodd;
        stroke-width: 4px;
      }

      .st4 {
        fill: #842029;
      }
    </style>
    <radialGradient id="radial-gradient" cx="413.7" cy="1486.8" fx="413.7" fy="1486.8" r="124.5" gradientTransform="translate(-285.8 -1358.8)" gradientUnits="userSpaceOnUse">
      <stop offset=".7" stop-color="#dc3545"/>
      <stop offset=".9" stop-color="#dc3545"/>
    </radialGradient>
  </defs>
  <path class="st7" d="M234.1,62.7C212.1,27.1,172.9,3.3,127.9,3.3v124.7l106.2-65.3Z"/>
  <circle class="st5" cx="127.9" cy="128.1" r="124.5"/>
  <path class="st6" d="M127.9,256C57.4,256,0,198.6,0,128.1S57.4.1,127.9.1s127.9,57.4,127.9,127.9c0,70.6-57.4,127.9-127.9,127.9ZM127.9,6.4C60.9,6.4,6.3,61,6.3,128.1s54.6,121.6,121.6,121.6,121.6-54.6,121.6-121.6c0-67.1-54.6-121.6-121.6-121.6Z"/>
  <path class="st1" d="M122.2,131.9L64,63.7c-2.6-3.1-2.3-7.7.8-10.3h0c3.1-2.6,7.7-2.3,10.3.8h0l58.2,68.1c2.6,3.1,2.3,7.7-.8,10.3h0c-1.4,1.2-3.1,1.8-4.8,1.8h0c-2.1,0-4.1-.9-5.6-2.6h0Z"/>
  <path class="st0" d="M120.5,128.4l-16.3-88.1c-.7-4,1.9-7.8,5.9-8.5h0c4-.7,7.8,1.9,8.6,5.9h0l16.3,88.1c.7,4-1.9,7.8-5.9,8.5h0c-.5,0-.9.1-1.3.1h0c-3.5,0-6.6-2.5-7.2-6h0Z"/>
  <path class="st2" d="M125.3,134c-3.8-1.4-5.8-5.5-4.5-9.4h0l29.9-84.5c1.4-3.8,5.5-5.8,9.4-4.5h0c3.8,1.4,5.8,5.5,4.5,9.4h0l-29.9,84.5c-1.1,3-3.9,4.9-6.9,4.9h0c-.8,0-1.6-.1-2.4-.4h0Z"/>
  <path class="st4" d="M125.3,134l-64.4-22.8c-3.8-1.4-5.8-5.5-4.5-9.4h0c1.4-3.8,5.5-5.8,9.4-4.5h0l60.5,21.4,64.9-55.4c3.1-2.6,7.7-2.3,10.3.8h0c2.6,3.1,2.3,7.7-.8,10.3h0l-68.1,58.2c-1.3,1.2-3,1.8-4.8,1.8h0c-.8,0-1.6-.1-2.4-.4h0Z"/>
  <g>
    <path class="st3" d="M201.2,219.9c3.4-3.3,7.5-5,11.6-5.2,2.7-.2,5.4.2,8,1.2,2.5,1,4.8,2.4,6.7,4.3,5.5,5.5,7,13.9,3.7,20.9-2.2,4.6-5.7,7.8-9.7,9.4-2.4,1-5,1.5-7.6,1.4-2.6,0-5.2-.7-7.5-1.7-4-1.9-7.4-5.1-9.4-9.8-2.1-5.1-1.8-10.4.5-15.3.9-2,2.2-3.8,3.8-5.2h0Z"/>
    <path class="st3" d="M228.3,195.2c-.6,15.9-27.6,15.9-28.2,0-2.7-27.3-9.7-88.4-9.5-114.1.2-7.9,6.8-12.6,15.2-14.4,2.6-.6,5.4-.8,8.3-.8,2.9,0,5.7.3,8.3.8,8.7,1.8,15.4,6.7,15.4,14.8v.8s-9.5,112.9-9.5,112.9h0Z"/>
  </g>
</svg>