<?xml version="1.0" encoding="UTF-8"?>
<svg xmlns="http://www.w3.org/2000/svg" version="1.1" viewBox="0 0 512 463.4">
  <!-- Generator: Adobe Illustrator 29.4.0, SVG Export Plug-In . SVG Version: 2.1.0 Build 152)  -->
  <defs>
    <style>
      .st0 {
        fill: #ffc100;
        fill-rule: evenodd;
      }
    </style>
  </defs>
  <g id="Layer_1" image-rendering="optimizeQuality" shape-rendering="geometricPrecision" text-rendering="geometricPrecision">
    <path class="st0" d="M189.5,44c34.3-58.7,99.2-58.8,133.2.1l1,1.8,175.3,304.4c33.7,56.4-1.2,113.8-66.2,113h0c0,.1-359.2.1-359.2.1-.9,0-1.8,0-2.7-.1-58.3-.8-86.6-54.2-61.9-106.8.4-.9.8-1.7,1.3-2.5h0S189.5,44.1,189.5,44.1h0s0,0,0,0ZM239.8,346.4c4.3-4.1,9.4-6.2,14.4-6.6,3.4-.2,6.8.3,9.9,1.5,3.1,1.2,6,3,8.4,5.4,6.9,6.9,8.7,17.4,4.6,26.2-2.7,5.8-7.1,9.7-12.1,11.8-3,1.3-6.3,1.8-9.6,1.8-3.3,0-6.5-.8-9.4-2.2-5-2.3-9.3-6.4-11.7-12.2-2.6-6.4-2.3-13,.6-19.1,1.1-2.5,2.8-4.8,4.7-6.5h0ZM273.6,299.3c-.8,19.9-34.5,19.9-35.3,0-3.4-34.1-12.1-110.5-11.9-142.6.3-9.9,8.5-15.7,18.9-17.9,3.2-.7,6.8-1,10.4-1,3.6,0,7.2.4,10.4,1.1,10.8,2.3,19.3,8.4,19.3,18.4v1s-11.9,141.1-11.9,141.1h0Z"/>
  </g>
</svg>