<?xml version="1.0" encoding="UTF-8"?>
<svg id="Layer_1" xmlns="http://www.w3.org/2000/svg" version="1.1" viewBox="0 0 100 100">
  <!-- Generator: Adobe Illustrator 29.4.0, SVG Export Plug-In . SVG Version: 2.1.0 Build 152)  -->
  <defs>
    <style>
      .st0 {
        fill: #0ac18e;
      }
    </style>
  </defs>
  <path class="st0" d="M87.8,62.5v-25.8c3.1-1,5.4-4,5.4-7.5s-3.5-7.9-7.9-7.9-4,.8-5.4,2.2l-22-12.7c.1-.5.2-1.1.2-1.6,0-4.3-3.5-7.9-7.9-7.9s-7.9,3.5-7.9,7.9,0,1.1.2,1.6l-22.2,12.8c-1.4-1.4-3.4-2.3-5.6-2.3-4.4,0-7.9,3.5-7.9,7.9s2.5,6.7,5.8,7.6v25.6c-3.4.9-5.8,4-5.8,7.6s3.5,7.9,7.9,7.9,4-.8,5.4-2.2l22.5,13c-.2.7-.3,1.4-.3,2.1,0,4.3,3.5,7.9,7.9,7.9s7.9-3.5,7.9-7.9-.1-1.4-.3-2.1l22.3-12.9c1.4,1.2,3.2,2,5.2,2,4.3,0,7.9-3.5,7.9-7.9,0-3.5-2.2-6.4-5.4-7.5ZM83.8,73.5c-1.3-.6-2.2-1.8-2.3-3.3,0,0,0-.1,0-.2h0c0-.1,0-.2,0-.2,0-1.2.7-2.3,1.7-3,0,0,.1,0,.2-.1,0,0,0,0,.1,0,.5-.3,1.1-.4,1.7-.4s1.6.3,2.3.8c0,0,.1.1.2.2.8.7,1.3,1.7,1.3,2.8,0,2.1-1.7,3.8-3.8,3.8s-.8,0-1.2-.2c0,0-.2,0-.2,0ZM50.2,94.6c-2,0-3.7-1.6-3.8-3.6,0,0,0,0,0-.1s0,0,0,0c0-1.3.7-2.4,1.7-3.1.2-.1.4-.2.6-.3,0,0,.2,0,.3,0,.4-.1.8-.2,1.2-.2s.8,0,1.2.2c0,0,.2,0,.3,0,.2,0,.4.2.6.3,1,.7,1.7,1.8,1.7,3.1,0,0,0,0,0,0,0,0,0,0,0,.1,0,2-1.7,3.6-3.8,3.6ZM16.2,73.5c-.5.2-1,.3-1.5.3-2.1,0-3.8-1.7-3.8-3.8s.7-2.5,1.7-3.2c0,0,.1,0,.2-.1.6-.3,1.2-.5,1.9-.5s.1,0,.2,0c.8,0,1.5.3,2,.8,0,0,.1.1.2.2.7.6,1.1,1.4,1.3,2.4,0,0,0,.2,0,.2s0,.1,0,.2c0,.2,0,.3,0,.5-.1,1.3-.9,2.3-2,2.9,0,0-.2,0-.2.1ZM10.9,29.2c0-2.1,1.7-3.8,3.8-3.8s1.2.1,1.7.4h.2c.6.5,1.1,1,1.4,1.6.3.5.5,1.2.5,1.8s0,.3,0,.5c0,0,0,.2,0,.3-.1.6-.4,1.1-.7,1.6-.1.2-.3.4-.5.5,0,0-.1.1-.2.2-.6.5-1.4.8-2.3.8s-1.3-.2-1.9-.5c0,0-.1,0-.2-.1-1-.7-1.7-1.8-1.7-3.2ZM50.2,5.4c1.8,0,3.4,1.3,3.7,3.1,0,0,0,.2,0,.3,0,.1,0,.3,0,.5,0,1.4-.8,2.6-1.8,3.2h-.2c-.5.3-1,.5-1.5.5,0,0-.1,0-.2,0-.6,0-1.2-.1-1.7-.4h-.2c-.6-.5-1.1-1-1.4-1.7-.3-.5-.4-1.1-.4-1.7s0-.3,0-.5c0,0,0-.2,0-.3.3-1.7,1.8-3.1,3.7-3.1ZM83.8,25.7c.5-.2,1-.3,1.5-.3,2.1,0,3.8,1.7,3.8,3.8s-.5,2.1-1.3,2.8c0,0-.1.1-.2.2-.6.5-1.4.8-2.3.8s-1-.1-1.5-.3c-.1,0-.2-.1-.4-.2,0,0-.1,0-.2-.1-.9-.6-1.6-1.6-1.7-2.7,0,0,0-.2,0-.2s0-.1,0-.2c0-.7.2-1.3.5-1.8.4-.7.9-1.2,1.6-1.5,0,0,.2,0,.2-.1ZM79.8,64.4l-21.9-12.7c.2-.7.3-1.3.3-2s0-1.4-.3-2l22.1-12.8c.9.9,2.1,1.5,3.3,1.9v25.6c-1.3.4-2.6,1.1-3.5,2ZM22.2,31.5h8.8c.4,1.3,1.1,2.4,2,3.3l-15.9,27.5v-25.6c2.4-.8,4.3-2.7,5.1-5.2ZM38.5,25.4c2.1,0,3.8,1.7,3.8,3.8s-.3,1.7-.8,2.3c-.6.8-1.6,1.4-2.7,1.5,0,0-.2,0-.3,0-2.1,0-3.8-1.7-3.8-3.8s.2-1.3.5-1.8c.6-1.1,1.8-1.9,3.2-2,0,0,0,0,.1,0ZM36.6,36.9c.6.2,1.3.2,1.9.2,3.5,0,6.6-2.4,7.5-5.6h31.5l-21.9,12.6c-1.4-1.4-3.4-2.3-5.6-2.3-4.3,0-7.9,3.5-7.9,7.9s0,1.4.3,2l-21.9,12.6s15.9-27.5,15.9-27.5ZM50.2,53.5c-.6,0-1.2-.2-1.7-.4-.1,0-.2-.1-.3-.2-1-.7-1.7-1.8-1.7-3.2s0-.1,0-.2c.1-2,1.8-3.6,3.8-3.6s1.2.2,1.7.4c1.2.6,2,1.8,2.1,3.2,0,0,0,.1,0,.2s0,.1,0,.2c-.1,2-1.8,3.6-3.8,3.6ZM46.2,27.4c-.3-1.4-1-2.7-2-3.7l4-6.9c.7.2,1.3.3,2,.3,2.2,0,4.1-.9,5.6-2.3l21.9,12.6h-31.4ZM40.6,21.6c-.7-.2-1.4-.3-2.1-.3-3.7,0-6.9,2.6-7.7,6.1h-8.1l21.8-12.6s-3.9,6.8-3.9,6.8ZM22.3,68.2l22.3-12.9c1,1,2.2,1.7,3.5,2v25.9c-1.2.3-2.2.9-3.1,1.7l-22.7-13.1c.1-.6.2-1.2.2-1.8s0-1.2-.2-1.8ZM52.3,83.2v-25.9c1.3-.4,2.5-1.1,3.5-2l21.9,12.7c-.2.7-.3,1.3-.3,2s0,1.4.3,2l-22.3,12.9c-.9-.8-2-1.4-3.1-1.7h0Z"/>
</svg>