<?xml version="1.0" encoding="UTF-8" standalone="no"?>
<svg
   xmlns:dc="http://purl.org/dc/elements/1.1/"
   xmlns:cc="http://creativecommons.org/ns#"
   xmlns:rdf="http://www.w3.org/1999/02/22-rdf-syntax-ns#"
   xmlns:svg="http://www.w3.org/2000/svg"
   xmlns="http://www.w3.org/2000/svg"
   id="svg13"
   version="1.1"
   viewBox="0 0 128 128"
   enable-background="new 0 0 128 128">
  <metadata
     id="metadata19">
    <rdf:RDF>
      <cc:Work
         rdf:about="">
        <dc:format>image/svg+xml</dc:format>
        <dc:type
           rdf:resource="http://purl.org/dc/dcmitype/StillImage" />
      </cc:Work>
    </rdf:RDF>
  </metadata>
  <defs
     id="defs17" />
  <linearGradient
     gradientUnits="userSpaceOnUse"
     y2="24.059"
     y1="102.26"
     x2="64"
     x1="64"
     id="a">
    <stop
       id="stop2"
       offset=".2153"
       stop-color="#E53935" />
    <stop
       id="stop4"
       offset=".6952"
       stop-color="#EF5350" />
  </linearGradient>
  <path
     id="path7"
     fill="url(#a)"
     d="m59.47 121.86-46.15-53.93c-1.96-2.26-1.96-5.6 0-7.86l46.15-53.93c2.39-2.76 6.67-2.76 9.07 0l46.15 53.93c1.96 2.26 1.96 5.6 0 7.86l-46.15 53.93c-2.4 2.76-6.68 2.76-9.07 0z" />
  <g
     id="g11"
     opacity=".2">
    <path
       id="path9"
       fill="#424242"
       d="m64 8.07c0.34 0 0.99 0.09 1.49 0.67l46.16 53.95c0.65 0.75 0.65 1.87-0.02 2.64l-46.13 53.91c-0.52 0.6-1.17 0.69-1.51 0.69s-0.99-0.09-1.49-0.67l-46.16-53.95c-0.65-0.75-0.65-1.87 0.02-2.64l46.13-53.91c0.52-0.6 1.17-0.69 1.51-0.69m0-4c-1.67 0-3.34 0.69-4.53 2.07l-46.15 53.93c-1.96 2.26-1.96 5.6 0 7.86l46.15 53.93c1.2 1.38 2.86 2.07 4.53 2.07s3.34-0.69 4.53-2.07l46.15-53.93c1.96-2.26 1.96-5.6 0-7.86l-46.15-53.93c-1.19-1.38-2.86-2.07-4.53-2.07z" />
  </g>
</svg>
