<?xml version="1.0" encoding="UTF-8" standalone="no"?>
<svg
   xmlns:dc="http://purl.org/dc/elements/1.1/"
   xmlns:cc="http://creativecommons.org/ns#"
   xmlns:rdf="http://www.w3.org/1999/02/22-rdf-syntax-ns#"
   xmlns:svg="http://www.w3.org/2000/svg"
   xmlns="http://www.w3.org/2000/svg"
   id="svg189"
   version="1.1"
   viewBox="0 0 128 128"
   enable-background="new 0 0 128 128">
  <metadata
     id="metadata195">
    <rdf:RDF>
      <cc:Work
         rdf:about="">
        <dc:format>image/svg+xml</dc:format>
        <dc:type
           rdf:resource="http://purl.org/dc/dcmitype/StillImage" />
      </cc:Work>
    </rdf:RDF>
  </metadata>
  <defs
     id="defs193" />
  <linearGradient
     gradientUnits="userSpaceOnUse"
     y2="115.36"
     y1="17.039"
     x2="84.433"
     x1="45.224"
     id="i">
    <stop
       id="stop2"
       offset=".275"
       stop-color="#FECC81" />
    <stop
       id="stop4"
       offset=".4148"
       stop-color="#FDBE64" />
    <stop
       id="stop6"
       offset=".5584"
       stop-color="#FCB44B" />
    <stop
       id="stop8"
       offset=".7038"
       stop-color="#FBAC38" />
    <stop
       id="stop10"
       offset=".8503"
       stop-color="#FAA82D" />
    <stop
       id="stop12"
       offset="1"
       stop-color="#FAA629" />
  </linearGradient>
  <path
     id="path15"
     fill="url(#i)"
     d="m111.2 99.02c4.75-3.87 8.66-9.43 10.9-16.16 2.28-6.89 2.44-13.87 0.84-19.95-0.33-1.26-1.69-12.36-1.66-13.68 0.19-10.12-4.01-19.24-11.29-23.9-1.79-1.15-17.47-13.99-18.9-15.42-2.26-2.26-4.96-4-8.05-5.05-3.16-1.07-6.4-0.8-9.66-0.85-30.05-0.41-44.72 7.19-50.45 14.33-0.94 1.17-8.36 12.08-8.96 12.7-3.46 3.61-6.29 8.21-8.06 13.55-1.94 5.84-2.35 11.74-1.46 17.11 0.22 1.3 1.89 16.06 1.89 17.29 0.07 9.72 4.19 18.41 11.21 22.94 1.67 1.08 15.16 16.5 26.55 20.36s32.06-0.04 33.65-0.04c18.66 0.03 32.54-22.48 33.45-23.23z" />
  <linearGradient
     gradientUnits="userSpaceOnUse"
     y2="39.194"
     y1="24.4"
     x2="84.912"
     x1="70.118"
     id="h">
    <stop
       id="stop17"
       offset=".0609"
       stop-color="#D38A29" />
    <stop
       id="stop19"
       offset=".2381"
       stop-color="#D48C2B" />
    <stop
       id="stop21"
       offset=".4115"
       stop-color="#D89232" />
    <stop
       id="stop23"
       offset=".5835"
       stop-color="#DE9C41" />
    <stop
       id="stop25"
       offset=".7536"
       stop-color="#E6AC58" />
    <stop
       id="stop27"
       offset=".895"
       stop-color="#F0BD71" />
  </linearGradient>
  <path
     id="path30"
     fill="url(#h)"
     d="m84.58 31.71c3.67 5.78-1.99 8.82-7.63 8.09-4.43-0.57-6.38-2.71-5.55-6.13 0.92-3.81 2.24-10.98 6.7-10.98s4.6 6.06 6.48 9.02z" />
  <radialGradient
     gradientUnits="userSpaceOnUse"
     r="8.7133"
     cy="29.424"
     cx="78.327"
     id="g">
    <stop
       id="stop32"
       offset=".1093"
       stop-color="#8E513C" />
    <stop
       id="stop34"
       offset=".1202"
       stop-color="#8D503B" />
    <stop
       id="stop36"
       offset=".784"
       stop-color="#6C3825" />
  </radialGradient>
  <path
     id="path39"
     fill="url(#g)"
     d="m83.34 31.63c2.92 4.61-1.59 7.03-6.08 6.45-3.53-0.45-5.08-2.16-4.42-4.88 0.74-3.04 1.78-8.75 5.34-8.75 3.56-0.01 3.66 4.82 5.16 7.18z" />
  <linearGradient
     gradientUnits="userSpaceOnUse"
     gradientTransform="matrix(.9897 -.1428 .1428 .9897 -5.9683 -2.2404)"
     y2="47.65"
     y1="35.983"
     x2="35.675"
     x1="24.008"
     id="f">
    <stop
       id="stop41"
       offset=".0609"
       stop-color="#D38A29" />
    <stop
       id="stop43"
       offset=".2381"
       stop-color="#D48C2B" />
    <stop
       id="stop45"
       offset=".4115"
       stop-color="#D89232" />
    <stop
       id="stop47"
       offset=".5835"
       stop-color="#DE9C41" />
    <stop
       id="stop49"
       offset=".7536"
       stop-color="#E6AC58" />
    <stop
       id="stop51"
       offset=".895"
       stop-color="#F0BD71" />
  </linearGradient>
  <path
     id="path54"
     fill="url(#f)"
     d="m35.04 34.02c3.51 4.1-0.56 7.11-5.04 7.18-3.52 0.05-5.28-1.4-5.02-4.16 0.29-3.08 0.51-8.82 4-9.33 3.48-0.5 4.26 4.21 6.06 6.31z" />
  <radialGradient
     gradientUnits="userSpaceOnUse"
     gradientTransform="matrix(.9897 -.1428 .1428 .9897 -5.9683 -2.2404)"
     r="6.8718"
     cy="39.946"
     cx="30.482"
     id="e">
    <stop
       id="stop56"
       offset=".1093"
       stop-color="#8E513C" />
    <stop
       id="stop58"
       offset=".1202"
       stop-color="#8D503B" />
    <stop
       id="stop60"
       offset=".784"
       stop-color="#6C3825" />
  </radialGradient>
  <path
     id="path63"
     fill="url(#e)"
     d="m34.07 34.1c2.8 3.27-0.45 5.66-4.02 5.72-2.81 0.04-4.21-1.12-4-3.31 0.23-2.46 0.4-7.03 3.19-7.43 2.77-0.41 3.39 3.34 4.83 5.02z" />
  <linearGradient
     gradientUnits="userSpaceOnUse"
     gradientTransform="matrix(.8368 .5476 -.5476 .8368 43.558 -17.409)"
     y2="98.696"
     y1="84.798"
     x2="82.69"
     x1="68.791"
     id="d">
    <stop
       id="stop65"
       offset=".0609"
       stop-color="#D38A29" />
    <stop
       id="stop67"
       offset=".2381"
       stop-color="#D48C2B" />
    <stop
       id="stop69"
       offset=".4115"
       stop-color="#D89232" />
    <stop
       id="stop71"
       offset=".5835"
       stop-color="#DE9C41" />
    <stop
       id="stop73"
       offset=".7536"
       stop-color="#E6AC58" />
    <stop
       id="stop75"
       offset=".895"
       stop-color="#F0BD71" />
  </linearGradient>
  <path
     id="path78"
     fill="url(#d)"
     d="m62.29 104.4c-0.09 6.43-6.1 5.91-10.16 2.44-3.19-2.73-3.62-5.41-1.21-7.67 2.69-2.52 7.41-7.48 10.92-5.18 3.51 2.29 0.5 7.11 0.45 10.41z" />
  <radialGradient
     gradientUnits="userSpaceOnUse"
     gradientTransform="matrix(.8368 .5476 -.5476 .8368 43.558 -17.409)"
     r="8.1857"
     cy="89.518"
     cx="76.503"
     id="c">
    <stop
       id="stop80"
       offset=".1093"
       stop-color="#8E513C" />
    <stop
       id="stop82"
       offset=".1202"
       stop-color="#8D503B" />
    <stop
       id="stop84"
       offset=".784"
       stop-color="#6C3825" />
  </radialGradient>
  <path
     id="path87"
     fill="url(#c)"
     d="m61.36 103.7c-0.07 5.13-4.86 4.71-8.1 1.94-2.54-2.17-2.88-4.31-0.96-6.11 2.14-2.01 5.9-5.96 8.7-4.13s0.4 5.67 0.36 8.3z" />
  <linearGradient
     gradientUnits="userSpaceOnUse"
     gradientTransform="matrix(.9586 -.2846 .2846 .9586 -60.202 35.725)"
     y2="97.506"
     y1="80.374"
     x2="139.94"
     x1="122.81"
     id="b">
    <stop
       id="stop89"
       offset=".0609"
       stop-color="#D38A29" />
    <stop
       id="stop91"
       offset=".2381"
       stop-color="#D48C2B" />
    <stop
       id="stop93"
       offset=".4115"
       stop-color="#D89232" />
    <stop
       id="stop95"
       offset=".5835"
       stop-color="#DE9C41" />
    <stop
       id="stop97"
       offset=".7536"
       stop-color="#E6AC58" />
    <stop
       id="stop99"
       offset=".895"
       stop-color="#F0BD71" />
  </linearGradient>
  <path
     id="path102"
     fill="url(#b)"
     d="m98.86 81.17c5.98 5.21 0.7 10.44-5.8 11.5-5.11 0.83-7.97-0.91-8.18-4.97-0.23-4.54-1.14-12.93 3.82-14.4s7.1 5.2 10.16 7.87z" />
  <radialGradient
     gradientUnits="userSpaceOnUse"
     gradientTransform="matrix(.9586 -.2846 .2846 .9586 -60.202 35.725)"
     r="10.09"
     cy="86.193"
     cx="132.31"
     id="a">
    <stop
       id="stop104"
       offset=".1093"
       stop-color="#8E513C" />
    <stop
       id="stop106"
       offset=".1202"
       stop-color="#8D503B" />
    <stop
       id="stop108"
       offset=".784"
       stop-color="#6C3825" />
  </radialGradient>
  <path
     id="path111"
     fill="url(#a)"
     d="m97.46 81.49c4.76 4.15 0.55 8.32-4.62 9.16-4.07 0.66-6.35-0.73-6.52-3.96-0.18-3.62-0.91-10.3 3.05-11.48s5.65 4.15 8.09 6.28z" />
  <linearGradient
     gradientUnits="userSpaceOnUse"
     gradientTransform="matrix(.9247 .3806 -.3806 .9247 17.121 -30.979)"
     y2="78.818"
     y1="60.835"
     x2="75.398"
     x1="57.414"
     id="o">
    <stop
       id="stop113"
       offset=".0609"
       stop-color="#D38A29" />
    <stop
       id="stop115"
       offset=".2381"
       stop-color="#D48C2B" />
    <stop
       id="stop117"
       offset=".4115"
       stop-color="#D89232" />
    <stop
       id="stop119"
       offset=".5835"
       stop-color="#DE9C41" />
    <stop
       id="stop121"
       offset=".7536"
       stop-color="#E6AC58" />
    <stop
       id="stop123"
       offset=".895"
       stop-color="#F0BD71" />
  </linearGradient>
  <path
     id="path126"
     fill="url(#o)"
     d="m59.93 62.04c1.45 8.2-6.32 8.99-12.32 5.57-4.72-2.69-5.91-6-3.4-9.45 2.8-3.86 7.59-11.31 12.62-9.24 5.01 2.06 2.35 8.92 3.1 13.12z" />
  <radialGradient
     gradientUnits="userSpaceOnUse"
     gradientTransform="matrix(.9247 .3806 -.3806 .9247 17.121 -30.979)"
     r="10.592"
     cy="66.942"
     cx="67.393"
     id="n">
    <stop
       id="stop128"
       offset=".1093"
       stop-color="#8E513C" />
    <stop
       id="stop130"
       offset=".1202"
       stop-color="#8D503B" />
    <stop
       id="stop132"
       offset=".784"
       stop-color="#6C3825" />
  </radialGradient>
  <path
     id="path135"
     fill="url(#n)"
     d="m58.57 61.37c1.15 6.53-5.03 7.16-9.82 4.44-3.76-2.14-4.71-4.78-2.71-7.54 2.24-3.08 6.05-9.01 10.06-7.37 4 1.66 1.88 7.12 2.47 10.47z" />
  <linearGradient
     gradientUnits="userSpaceOnUse"
     gradientTransform="matrix(.9817 -.1907 .1907 .9817 -41.299 -19.873)"
     y2="117.98"
     y1="104.36"
     x2="51.14"
     x1="37.522"
     id="m">
    <stop
       id="stop137"
       offset=".0609"
       stop-color="#D38A29" />
    <stop
       id="stop139"
       offset=".2381"
       stop-color="#D48C2B" />
    <stop
       id="stop141"
       offset=".4115"
       stop-color="#D89232" />
    <stop
       id="stop143"
       offset=".5835"
       stop-color="#DE9C41" />
    <stop
       id="stop145"
       offset=".7536"
       stop-color="#E6AC58" />
    <stop
       id="stop147"
       offset=".895"
       stop-color="#F0BD71" />
  </linearGradient>
  <path
     id="path150"
     fill="url(#m)"
     d="m29.78 79.49c4.33 4.58-0.25 8.32-5.47 8.65-4.11 0.26-6.24-1.33-6.09-4.56 0.17-3.61 0.09-10.32 4.13-11.1 4.04-0.79 5.21 4.66 7.43 7.01z" />
  <radialGradient
     gradientUnits="userSpaceOnUse"
     gradientTransform="matrix(.9817 -.1907 .1907 .9817 -41.299 -19.873)"
     r="8.0206"
     cy="108.99"
     cx="45.078"
     id="l">
    <stop
       id="stop152"
       offset=".1093"
       stop-color="#8E513C" />
    <stop
       id="stop154"
       offset=".1202"
       stop-color="#8D503B" />
    <stop
       id="stop156"
       offset=".784"
       stop-color="#6C3825" />
  </radialGradient>
  <path
     id="path159"
     fill="url(#l)"
     d="m28.65 79.63c3.45 3.65-0.2 6.63-4.36 6.9-3.27 0.21-4.97-1.06-4.85-3.64 0.13-2.88 0.07-8.22 3.29-8.85 3.21-0.62 4.15 3.72 5.92 5.59z" />
  <linearGradient
     gradientUnits="userSpaceOnUse"
     gradientTransform="matrix(.9817 -.1907 .1907 .9817 -41.299 -19.873)"
     y2="108.7"
     y1="98.609"
     x2="131.42"
     x1="121.33"
     id="k">
    <stop
       id="stop161"
       offset=".0609"
       stop-color="#D38A29" />
    <stop
       id="stop163"
       offset=".2381"
       stop-color="#D48C2B" />
    <stop
       id="stop165"
       offset=".4115"
       stop-color="#D89232" />
    <stop
       id="stop167"
       offset=".5835"
       stop-color="#DE9C41" />
    <stop
       id="stop169"
       offset=".7536"
       stop-color="#E6AC58" />
    <stop
       id="stop171"
       offset=".895"
       stop-color="#F0BD71" />
  </linearGradient>
  <path
     id="path174"
     fill="url(#k)"
     d="m107.24 56.81c3.21 3.39-0.19 6.16-4.05 6.41-3.04 0.2-4.62-0.99-4.51-3.38 0.12-2.67 0.07-7.64 3.06-8.22 2.98-0.59 3.85 3.45 5.5 5.19z" />
  <radialGradient
     gradientUnits="userSpaceOnUse"
     gradientTransform="matrix(.9817 -.1907 .1907 .9817 -41.299 -19.873)"
     r="5.9403"
     cy="102.03"
     cx="126.93"
     id="j">
    <stop
       id="stop176"
       offset=".1093"
       stop-color="#8E513C" />
    <stop
       id="stop178"
       offset=".1202"
       stop-color="#8D503B" />
    <stop
       id="stop180"
       offset=".784"
       stop-color="#6C3825" />
  </radialGradient>
  <path
     id="path183"
     fill="url(#j)"
     d="m106.4 56.91c2.55 2.7-0.15 4.91-3.23 5.11-2.42 0.16-3.68-0.79-3.59-2.69 0.1-2.13 0.05-6.09 2.44-6.55 2.37-0.47 3.07 2.74 4.38 4.13z" />
  <g
     id="g187"
     opacity=".2">
    <path
       id="path185"
       fill="#434343"
       d="m71.02 7c0.76 0 1.54 0.01 2.32 0.02 0.32 0 0.65 0.01 0.97 0.01h0.94 0.91c1.96 0 4.03 0.05 5.9 0.69 2.58 0.87 4.89 2.33 6.89 4.33 1.51 1.52 17.3 14.48 19.41 15.83 6.28 4.02 10.08 12.19 9.91 21.31-0.03 1.56 1.35 12.94 1.76 14.49 1.5 5.71 1.22 12.19-0.79 18.24-1.99 5.99-5.42 11.1-9.94 14.78-0.41 0.33-0.67 0.69-1.44 1.74-10.13 13.82-20.25 20.82-30.12 20.82-0.45 0-1 0.07-2.67 0.3-3.45 0.47-10.62 1.45-17.65 1.45-5.18 0-9.34-0.52-12.36-1.55-8.25-2.8-18.06-12.51-22.78-17.18-1.84-1.83-2.51-2.48-3.1-2.86-6.1-3.94-9.78-11.59-9.84-20.44-0.01-1.49-1.72-16.49-1.93-17.76-0.84-5.07-0.38-10.49 1.34-15.67 1.57-4.73 4.12-9.02 7.38-12.41 0.41-0.42 1.21-1.55 5.03-7.06 1.66-2.39 3.73-5.37 4.1-5.84 3.2-4 14.06-13.24 45.76-13.24m0-3c-28.47 0-42.51 7.39-48.1 14.34-0.94 1.17-8.36 12.08-8.96 12.7-3.46 3.61-6.29 8.21-8.06 13.55-1.93 5.84-2.34 11.74-1.45 17.11 0.22 1.3 1.89 16.06 1.89 17.29 0.07 9.72 4.19 18.41 11.21 22.94 1.67 1.08 15.16 16.5 26.55 20.36 3.77 1.28 8.55 1.71 13.33 1.71 9.65 0 19.25-1.75 20.32-1.75h0.03c18.64 0 32.5-22.49 33.42-23.23 4.75-3.87 8.66-9.43 10.9-16.16 2.28-6.89 2.44-13.87 0.84-19.95-0.33-1.26-1.69-12.36-1.66-13.68 0.19-10.12-4.01-19.24-11.29-23.9-1.79-1.15-17.47-13.99-18.9-15.42-2.26-2.26-4.96-4-8.05-5.05-2.26-0.77-4.56-0.85-6.87-0.85-0.62 0-1.24 0.01-1.85 0.01-0.31 0-0.62 0-0.93-0.01-0.8 0-1.59-0.01-2.37-0.01z" />
  </g>
</svg>
