<?xml version="1.0" encoding="UTF-8" standalone="no"?>
<svg
   xmlns:dc="http://purl.org/dc/elements/1.1/"
   xmlns:cc="http://creativecommons.org/ns#"
   xmlns:rdf="http://www.w3.org/1999/02/22-rdf-syntax-ns#"
   xmlns:svg="http://www.w3.org/2000/svg"
   xmlns="http://www.w3.org/2000/svg"
   id="svg71"
   version="1.1"
   viewBox="0 0 128 128"
   enable-background="new 0 0 128 128">
  <metadata
     id="metadata77">
    <rdf:RDF>
      <cc:Work
         rdf:about="">
        <dc:format>image/svg+xml</dc:format>
        <dc:type
           rdf:resource="http://purl.org/dc/dcmitype/StillImage" />
      </cc:Work>
    </rdf:RDF>
  </metadata>
  <defs
     id="defs75" />
  <linearGradient
     gradientUnits="userSpaceOnUse"
     y2="120.89"
     y1="21.82"
     x2="98.662"
     x1="98.662"
     id="g">
    <stop
       id="stop2"
       offset=".006854"
       stop-color="#FFECB3" />
    <stop
       id="stop4"
       offset="1"
       stop-color="#FFE082" />
  </linearGradient>
  <path
     id="path7"
     fill="url(#g)"
     d="m123.8 118.75-6.18-16.49-4.25-11.35c-0.96-2.93-2.59-5.59-4.77-7.77l-9.82-9.82-25.46 25.46 9.82 9.82c2.18 2.18 4.84 3.81 7.77 4.77l11.35 4.25 16.49 6.18c3.11 1.01 6.06-1.94 5.05-5.05z" />
  <g
     id="g13"
     fill="none">
    <path
       id="path9"
       d="m85.58 106.78-0.03-0.03 0.03 0.03z" />
    <path
       id="path11"
       d="m106.73 85.55 0.21 0.21c-0.07-0.07-0.12-0.16-0.19-0.23l-0.02 0.02z" />
  </g>
  <g
     id="g17"
     opacity=".2">
    <path
       id="path15"
       fill="#424242"
       d="m98.78 77.57 7.69 7.69c1.84 1.84 3.23 4.11 4.04 6.58l0.04 0.12 4.25 11.35 6.15 16.41c0.09 0.31 0.04 0.59-0.14 0.84-0.2 0.27-0.49 0.43-0.8 0.43-0.09 0-0.19-0.01-0.29-0.04l-16.41-6.15-11.35-4.25-0.12-0.04c-2.47-0.81-4.74-2.2-6.58-4.04l-7.69-7.69 21.21-21.21m0-4.25-25.46 25.46 9.82 9.82c2.18 2.18 4.84 3.81 7.77 4.77l11.35 4.25 16.49 6.18c0.43 0.14 0.85 0.2 1.26 0.2 2.58 0 4.66-2.56 3.78-5.25l-6.18-16.49-4.25-11.35c-0.96-2.93-2.59-5.59-4.77-7.77l-9.81-9.82z" />
  </g>
  <linearGradient
     gradientUnits="userSpaceOnUse"
     y2="122.67"
     y1="80.167"
     x2="113.13"
     x1="113.13"
     id="f">
    <stop
       id="stop19"
       offset="0"
       stop-color="#757575" />
    <stop
       id="stop21"
       offset="1"
       stop-color="#424242" />
  </linearGradient>
  <path
     id="path24"
     fill="url(#f)"
     d="m123.8 118.75-6.18-16.49c-3.22 1.6-6.25 3.73-8.94 6.42s-4.82 5.71-6.42 8.94l16.49 6.18c3.11 1.01 6.06-1.94 5.05-5.05z" />
  <g
     id="g28"
     opacity=".2">
    <path
       id="path26"
       fill="#eee"
       d="m116.04 106.59 4.92 13.13c0.09 0.31 0.04 0.59-0.14 0.84-0.2 0.27-0.49 0.43-0.8 0.43-0.09 0-0.19-0.01-0.29-0.04l-13.13-4.92c1.21-1.89 2.61-3.64 4.21-5.24 1.58-1.58 3.34-2.99 5.23-4.2m1.58-4.33c-3.22 1.6-6.25 3.73-8.94 6.42s-4.82 5.71-6.42 8.94l16.49 6.18c0.43 0.14 0.85 0.2 1.26 0.2 2.58 0 4.66-2.56 3.78-5.25l-6.17-16.49z" />
  </g>
  <linearGradient
     gradientUnits="userSpaceOnUse"
     y2="55.263"
     y1="12.25"
     x2="34.627"
     x1="34.627"
     id="e">
    <stop
       id="stop30"
       offset="0"
       stop-color="#E0E0E0" />
    <stop
       id="stop32"
       offset="1"
       stop-color="#9E9E9E" />
  </linearGradient>
  <polygon
     id="polygon35"
     fill="url(#e)"
     points="51.6 26.14 26.14 51.6 17.66 43.11 43.11 17.66" />
  <rect
     id="rect37"
     fill="#9E9E9E"
     height="4"
     width="36"
     y="32.63"
     x="16.63"
     transform="matrix(.7071 -.7071 .7071 .7071 -14.343 34.627)" />
  <linearGradient
     gradientUnits="userSpaceOnUse"
     y2="39.468"
     y1="-1.8333"
     x2="23.556"
     x1="23.556"
     id="d">
    <stop
       id="stop39"
       offset="0"
       stop-color="#E57373" />
    <stop
       id="stop41"
       offset="1"
       stop-color="#F44336" />
  </linearGradient>
  <path
     id="path44"
     fill="url(#d)"
     d="M43.11,17.66L17.66,43.11L6.34,31.8c-3.12-3.12-3.12-8.19,0-11.31L20.49,6.34 c3.12-3.12,8.19-3.12,11.31,0L43.11,17.66z" />
  <linearGradient
     gradientUnits="userSpaceOnUse"
     y2="90.995"
     y1="16.167"
     x2="65.102"
     x1="65.102"
     id="c">
    <stop
       id="stop46"
       offset="0"
       stop-color="#FFC107" />
    <stop
       id="stop48"
       offset="1"
       stop-color="#FFA000" />
  </linearGradient>
  <path
     id="path51"
     fill="url(#c)"
     d="m33.68 44.06 10.37-10.37 52.37 52.37 0.09 2.04c0.19 4.4-4.02 8.61-8.42 8.42l-2.04-0.09-52.37-52.37z" />
  <linearGradient
     gradientUnits="userSpaceOnUse"
     gradientTransform="matrix(.7071 -.7071 .7071 .7071 -35.227 39.444)"
     y2="113"
     y1="41.5"
     x2="40.134"
     x1="40.134"
     id="b">
    <stop
       id="stop53"
       offset="0"
       stop-color="#FFCA28" />
    <stop
       id="stop55"
       offset="1"
       stop-color="#FFB300" />
  </linearGradient>
  <path
     id="path58"
     fill="url(#b)"
     d="m26.14 51.6 54.7 54.7c3.07-1.29 5.45-4.5 5.3-7.83l-0.09-2.04-52.37-52.37-7.54 7.54z" />
  <linearGradient
     gradientUnits="userSpaceOnUse"
     gradientTransform="matrix(.7071 -.7071 .7071 .7071 -35.227 39.444)"
     y2="113"
     y1="41.5"
     x2="65.467"
     x1="65.467"
     id="a">
    <stop
       id="stop60"
       offset="0"
       stop-color="#FFCA28" />
    <stop
       id="stop62"
       offset="1"
       stop-color="#FFB300" />
  </linearGradient>
  <path
     id="path65"
     fill="url(#a)"
     d="m44.06 33.68 52.37 52.37 2.04 0.09c3.33 0.14 6.55-2.23 7.83-5.3l-54.7-54.7-7.54 7.54z" />
  <g
     id="g69"
     opacity=".2">
    <path
       id="path67"
       fill="#424242"
       d="m26.14 7c1.34 0 2.59 0.52 3.54 1.46l72.83 72.83c-1.01 1.12-2.42 1.86-3.75 1.86h-0.16l-2.04-0.09h-0.13c-0.79 0-1.56 0.31-2.12 0.88-0.59 0.59-0.91 1.41-0.88 2.25l0.09 2.04c0.05 1.22-0.5 2.52-1.52 3.58-1.03 1.07-2.38 1.71-3.62 1.71h-0.16l-2.04-0.09h-0.13c-0.79 0-1.56 0.31-2.12 0.88-0.59 0.59-0.91 1.41-0.88 2.25l0.09 2.04c0.06 1.39-0.68 2.87-1.85 3.91l-72.83-72.83c-0.94-0.95-1.46-2.2-1.46-3.54s0.52-2.59 1.46-3.54l14.15-14.14c0.94-0.94 2.2-1.46 3.53-1.46m0-3c-2.05 0-4.09 0.78-5.66 2.34l-14.14 14.15c-3.12 3.12-3.12 8.19 0 11.31l74.5 74.5c3.07-1.29 5.45-4.5 5.3-7.83l-0.09-2.04 2.04 0.09c0.1 0 0.19 0.01 0.29 0.01 4.29 0 8.32-4.12 8.13-8.43l-0.09-2.04 2.04 0.09c0.1 0 0.19 0.01 0.29 0.01 3.23 0 6.29-2.33 7.54-5.31l-63.19-63.19-11.3-11.32c-1.56-1.56-3.61-2.34-5.66-2.34z" />
  </g>
</svg>
