<?xml version="1.0" encoding="UTF-8" standalone="no"?>
<svg
   xmlns:dc="http://purl.org/dc/elements/1.1/"
   xmlns:cc="http://creativecommons.org/ns#"
   xmlns:rdf="http://www.w3.org/1999/02/22-rdf-syntax-ns#"
   xmlns:svg="http://www.w3.org/2000/svg"
   xmlns="http://www.w3.org/2000/svg"
   id="svg43"
   version="1.1"
   viewBox="0 0 128 128"
   enable-background="new 0 0 128 128">
  <metadata
     id="metadata49">
    <rdf:RDF>
      <cc:Work
         rdf:about="">
        <dc:format>image/svg+xml</dc:format>
        <dc:type
           rdf:resource="http://purl.org/dc/dcmitype/StillImage" />
      </cc:Work>
    </rdf:RDF>
  </metadata>
  <defs
     id="defs47" />
  <linearGradient
     gradientUnits="userSpaceOnUse"
     y2="38.041"
     y1="11.356"
     x2="64"
     x1="64"
     id="c">
    <stop
       id="stop2"
       offset=".0005936"
       stop-color="#A1887F" />
    <stop
       id="stop4"
       offset=".2381"
       stop-color="#927971" />
    <stop
       id="stop6"
       offset=".6929"
       stop-color="#6C524B" />
    <stop
       id="stop8"
       offset="1"
       stop-color="#4E342E" />
  </linearGradient>
  <path
     id="path11"
     fill="url(#c)"
     d="m79.46 20.88v12.32h-30.92v-12.32h30.92m4.18-9.42h-39.28c-2.89 0-5.23 2.34-5.23 5.23v20.69c0 2.89 2.34 5.23 5.23 5.23h39.28c2.89 0 5.23-2.34 5.23-5.23v-20.69c0-2.89-2.34-5.23-5.23-5.23z" />
  <linearGradient
     gradientUnits="userSpaceOnUse"
     y2="116.06"
     y1="34.378"
     x2="64"
     x1="64"
     id="b">
    <stop
       id="stop13"
       offset="0"
       stop-color="#4E342E" />
    <stop
       id="stop15"
       offset=".424"
       stop-color="#503630" />
    <stop
       id="stop17"
       offset=".618"
       stop-color="#583D36" />
    <stop
       id="stop19"
       offset=".7651"
       stop-color="#644941" />
    <stop
       id="stop21"
       offset=".8878"
       stop-color="#765950" />
    <stop
       id="stop23"
       offset=".9933"
       stop-color="#8D6E63" />
  </linearGradient>
  <path
     id="path26"
     fill="url(#b)"
     d="m14.22 33.44h99.57c4.43 0 8.03 3.59 8.03 8.03v67.16c0 4.43-3.59 8.03-8.03 8.03h-99.57c-4.44 0-8.03-3.6-8.03-8.03v-67.16c0-4.43 3.59-8.03 8.03-8.03z" />
  <linearGradient
     gradientUnits="userSpaceOnUse"
     y2="80.463"
     y1="29.93"
     x2="64"
     x1="64"
     id="a">
    <stop
       id="stop28"
       offset=".0067402"
       stop-color="#BCAAA4" />
    <stop
       id="stop30"
       offset="1"
       stop-color="#6D4C41" />
  </linearGradient>
  <path
     id="path33"
     fill="url(#a)"
     d="m116.88 29.78h-105.76c-3.77 0-6.82 3.05-6.82 6.82v27.27c0 1.08 0.54 2.07 1.44 2.68 13.26 8.99 35.93 13.89 58.26 14.34 22.33-0.45 45-5.35 58.26-14.34 0.89-0.6 1.44-1.6 1.44-2.68v-27.27c0-3.76-3.05-6.82-6.82-6.82z" />
  <path
     id="path35"
     fill="#FFCA28"
     d="m72.45 79.94v8.71c0 0.49-0.73 0.89-1.63 0.89h-13.64c-0.9 0-1.63-0.4-1.63-0.89v-8.71c0-0.49 0.73-0.89 1.63-0.89h13.64c0.9 0 1.63 0.39 1.63 0.89z" />
  <path
     id="path37"
     fill="#F9A825"
     d="m74.49 77.2v1.96c0 0.9-0.73 1.63-1.63 1.63h-17.72c-0.9 0-1.63-0.73-1.63-1.63v-1.96c0-0.9 0.73-1.63 1.63-1.63h17.71c0.91 0 1.64 0.73 1.64 1.63z" />
  <g
     id="g41"
     opacity=".2">
    <path
       id="path39"
       fill="#424242"
       d="m83.64 14.46c1.23 0 2.23 1 2.23 2.23v13.09c0 1.66 1.34 3 3 3h28.01c2.11 0 3.82 1.71 3.82 3.82v27.27c0 0.07-0.04 0.14-0.12 0.19-0.04 0.03-0.08 0.05-0.13 0.08-0.1 0.06-0.2 0.12-0.3 0.19-0.84 0.56-1.35 1.5-1.35 2.5v41.8c0 2.77-2.26 5.03-5.03 5.03h-99.55c-2.77 0-5.03-2.26-5.03-5.03v-41.8c0-1.01-0.51-1.95-1.35-2.5-0.1-0.06-0.2-0.13-0.3-0.19-0.04-0.03-0.09-0.05-0.13-0.08-0.07-0.05-0.12-0.12-0.12-0.19v-27.27c0-2.11 1.71-3.82 3.82-3.82h28.01c1.66 0 3-1.34 3-3v-13.09c0-1.23 1-2.23 2.23-2.23h39.29m-35.1 18.32h30.92c1.66 0 3-1.34 3-3v-8.9c0-1.66-1.34-3-3-3h-30.92c-1.66 0-3 1.34-3 3v8.9c0 1.66 1.35 3 3 3m35.1-21.32h-39.28c-2.89 0-5.23 2.34-5.23 5.23v13.09h-28.01c-3.77 0-6.82 3.05-6.82 6.82v27.27c0 1.08 0.54 2.07 1.44 2.68 0.14 0.1 0.3 0.19 0.45 0.28v41.8c0 4.44 3.6 8.03 8.03 8.03h99.57c4.43 0 8.03-3.59 8.03-8.03v-41.8c0.15-0.1 0.31-0.19 0.45-0.28 0.89-0.6 1.44-1.6 1.44-2.68v-27.27c0-3.77-3.05-6.82-6.82-6.82h-28.02v-13.09c0-2.89-2.34-5.23-5.23-5.23zm-35.1 18.32v-8.9h30.91v8.9h-30.91z" />
  </g>
</svg>
