<?xml version="1.0" encoding="UTF-8" standalone="no"?>
<svg
   xmlns:dc="http://purl.org/dc/elements/1.1/"
   xmlns:cc="http://creativecommons.org/ns#"
   xmlns:rdf="http://www.w3.org/1999/02/22-rdf-syntax-ns#"
   xmlns:svg="http://www.w3.org/2000/svg"
   xmlns="http://www.w3.org/2000/svg"
   id="svg41"
   version="1.1"
   viewBox="0 0 128 128"
   enable-background="new 0 0 128 128">
  <metadata
     id="metadata47">
    <rdf:RDF>
      <cc:Work
         rdf:about="">
        <dc:format>image/svg+xml</dc:format>
        <dc:type
           rdf:resource="http://purl.org/dc/dcmitype/StillImage" />
      </cc:Work>
    </rdf:RDF>
  </metadata>
  <defs
     id="defs45" />
  <linearGradient
     gradientUnits="userSpaceOnUse"
     y2="124.04"
     y1="8.4902"
     x2="64.001"
     x1="64.001"
     id="c">
    <stop
       id="stop2"
       offset=".0065487"
       stop-color="#D1A773" />
    <stop
       id="stop4"
       offset=".9989"
       stop-color="#916843" />
  </linearGradient>
  <path
     id="path7"
     fill="url(#c)"
     d="m108.34 124.04h-88.68c-2.21 0-4-1.79-4-4v-107.55c0-2.21 1.79-4 4-4h88.67c2.21 0 4 1.79 4 4v107.55c0.01 2.21-1.78 4-3.99 4z" />
  <linearGradient
     gradientUnits="userSpaceOnUse"
     y2="115.59"
     y1="19.166"
     x2="64.001"
     x1="64.001"
     id="b">
    <stop
       id="stop9"
       offset="0"
       stop-color="#fff" />
    <stop
       id="stop11"
       offset="1"
       stop-color="#C8C9CA" />
  </linearGradient>
  <path
     id="path14"
     fill="url(#b)"
     d="m98.79 114.97h-69.58c-1.34 0-2.43-1.11-2.43-2.48v-91.16c0-1.37 1.09-2.48 2.43-2.48h69.57c1.34 0 2.44 1.11 2.44 2.48v91.16c0 1.37-1.09 2.48-2.43 2.48z" />
  <linearGradient
     gradientUnits="userSpaceOnUse"
     y2="30.477"
     y1="4.9356"
     x2="64.001"
     x1="64.001"
     id="a">
    <stop
       id="stop16"
       offset="0"
       stop-color="#fff" />
    <stop
       id="stop18"
       offset=".8627"
       stop-color="#C8C9CA" />
    <stop
       id="stop20"
       offset="1"
       stop-color="#757575" />
  </linearGradient>
  <path
     id="path23"
     fill="url(#a)"
     d="m74.74 14.67c-0.01-5.91-4.82-10.71-10.74-10.71s-10.72 4.79-10.74 10.71h-17.41v16.07h56.3v-16.07h-17.41zm-10.74 3.65c-2.38 0-4.31-1.93-4.31-4.31s1.93-4.31 4.31-4.31 4.31 1.93 4.31 4.31-1.93 4.31-4.31 4.31z" />
  <g
     id="g27"
     opacity=".2">
    <path
       id="path25"
       fill="#424242"
       d="m64 6.96c2.49 0 4.85 1.22 6.31 3.27 0.56 0.79 1.47 1.26 2.44 1.26h35.19c0.77 0 1.39 0.63 1.39 1.39v106.76c0 0.77-0.63 1.39-1.39 1.39h-87.88c-0.77 0-1.39-0.63-1.39-1.39v-106.76c0-0.77 0.63-1.39 1.39-1.39h35.19c0.97 0 1.88-0.47 2.44-1.26 1.46-2.05 3.82-3.27 6.31-3.27m0-3c-3.61 0-6.8 1.79-8.75 4.53h-35.19c-2.43 0-4.39 1.97-4.39 4.39v106.76c0 2.43 1.97 4.39 4.39 4.39h87.88c2.43 0 4.39-1.97 4.39-4.39v-106.76c0-2.43-1.97-4.39-4.39-4.39h-35.19c-1.94-2.74-5.13-4.53-8.75-4.53z" />
  </g>
  <g
     id="g39"
     fill="#757575">
    <path
       id="path29"
       d="m91.25 48.99h-54.5c-1.22 0-2.22-0.99-2.22-2.22 0-1.22 0.99-2.22 2.22-2.22h54.51c1.22 0 2.22 0.99 2.22 2.22-0.01 1.23-1 2.22-2.23 2.22z" />
    <path
       id="path31"
       d="m91.25 61.16h-54.5c-1.22 0-2.22-0.99-2.22-2.22s0.99-2.22 2.22-2.22h54.51c1.22 0 2.22 0.99 2.22 2.22s-1 2.22-2.23 2.22z" />
    <path
       id="path33"
       d="m91.25 73.33h-54.5c-1.22 0-2.22-0.99-2.22-2.22s0.99-2.22 2.22-2.22h54.51c1.22 0 2.22 0.99 2.22 2.22s-1 2.22-2.23 2.22z" />
    <path
       id="path35"
       d="m91.25 85.5h-54.5c-1.22 0-2.22-0.99-2.22-2.22 0-1.22 0.99-2.22 2.22-2.22h54.51c1.22 0 2.22 0.99 2.22 2.22-0.01 1.23-1 2.22-2.23 2.22z" />
    <path
       id="path37"
       d="m60.06 97.67h-23.31c-1.22 0-2.22-0.99-2.22-2.22s0.99-2.22 2.22-2.22h23.31c1.22 0 2.22 0.99 2.22 2.22s-1 2.22-2.22 2.22z" />
  </g>
</svg>
