<?xml version="1.0" encoding="UTF-8" standalone="no"?>
<svg
   xmlns:dc="http://purl.org/dc/elements/1.1/"
   xmlns:cc="http://creativecommons.org/ns#"
   xmlns:rdf="http://www.w3.org/1999/02/22-rdf-syntax-ns#"
   xmlns:svg="http://www.w3.org/2000/svg"
   xmlns="http://www.w3.org/2000/svg"
   xmlns:xlink="http://www.w3.org/1999/xlink"
   id="svg192"
   version="1.1"
   viewBox="0 0 128 128"
   enable-background="new 0 0 128 128">
  <metadata
     id="metadata196">
    <rdf:RDF>
      <cc:Work
         rdf:about="">
        <dc:format>image/svg+xml</dc:format>
        <dc:type
           rdf:resource="http://purl.org/dc/dcmitype/StillImage" />
      </cc:Work>
    </rdf:RDF>
  </metadata>
  <linearGradient
     gradientUnits="userSpaceOnUse"
     y2="74.642"
     y1="125.84"
     x2="36.001"
     x1="36.001"
     id="i">
    <stop
       id="stop2"
       offset=".1318"
       stop-color="#D4D4D4" />
    <stop
       id="stop4"
       offset=".2029"
       stop-color="#D7D7D7" />
    <stop
       id="stop6"
       offset=".2638"
       stop-color="#E2E2E2" />
    <stop
       id="stop8"
       offset=".3208"
       stop-color="#F3F3F3" />
    <stop
       id="stop10"
       offset=".3484"
       stop-color="#fff" />
  </linearGradient>
  <path
     id="path13"
     fill="url(#i)"
     d="m32.99 116.11c-0.46-4-2.31-20.04-3.01-27.64 1.82 1.61 4.69 3.61 7.72 3.61 0.66 0 1.31-0.1 1.93-0.29 0 0 0.06-0.02 0.2-0.02 0.81 0 1.91 0.46 2.18 0.76-0.78 6.39-1.94 19.78-2.25 23.34l-6.77 0.24z" />
  <path
     id="path15"
     fill="#B0B0B0"
     d="m31.21 90.72c1.81 1.26 4.08 2.36 6.5 2.36 0.73 0 1.45-0.1 2.13-0.3 0.32 0 0.78 0.13 1.1 0.27-0.73 6.14-1.72 17.5-2.1 21.86l-4.97 0.18c-0.52-4.62-1.92-16.81-2.66-24.37m-2.44-4.9c0.4 6.17 3.34 31.31 3.34 31.31l8.58-0.3s1.42-16.93 2.33-24.31c0.12-0.95-1.97-1.76-3.18-1.76-0.19 0-0.36 0.02-0.5 0.06-0.54 0.17-1.09 0.24-1.63 0.24-4.56 0.01-8.94-5.24-8.94-5.24z" />
  <linearGradient
     gradientUnits="userSpaceOnUse"
     y2="74.733"
     y1="125.81"
     x2="97.784"
     x1="97.784"
     id="h">
    <stop
       id="stop17"
       offset=".1318"
       stop-color="#D4D4D4" />
    <stop
       id="stop19"
       offset=".2029"
       stop-color="#D7D7D7" />
    <stop
       id="stop21"
       offset=".2638"
       stop-color="#E2E2E2" />
    <stop
       id="stop23"
       offset=".3208"
       stop-color="#F3F3F3" />
    <stop
       id="stop25"
       offset=".3484"
       stop-color="#fff" />
  </linearGradient>
  <path
     id="path28"
     fill="url(#h)"
     d="m96.39 116.16c-0.71-3.9-3.62-19.99-4.58-27.63 1.83 1.6 4.66 3.55 7.65 3.55 0.66 0 1.31-0.1 1.93-0.29 0 0 0.06-0.02 0.2-0.02 0.81 0 1.91 0.46 2.18 0.76-0.78 6.4-1.95 19.82-2.25 23.35l-5.13 0.28z" />
  <path
     id="path30"
     fill="#B0B0B0"
     d="m93.13 90.83c1.78 1.21 3.99 2.24 6.33 2.24 0.73 0 1.45-0.1 2.13-0.3 0.32 0 0.78 0.13 1.1 0.27-0.73 6.16-1.73 17.56-2.1 21.89l-3.38 0.18c-0.81-4.49-2.99-16.68-4.08-24.28m-2.61-5.01c0.4 6.17 5.05 31.38 5.05 31.38l6.88-0.38s1.42-16.93 2.33-24.31c0.12-0.95-1.97-1.76-3.18-1.76-0.19 0-0.36 0.02-0.5 0.06-0.54 0.17-1.09 0.24-1.63 0.24-4.57 0.02-8.95-5.23-8.95-5.23z" />
  <linearGradient
     gradientUnits="userSpaceOnUse"
     y2="115.82"
     y1="38.893"
     x2="69.568"
     x1="69.568"
     id="g">
    <stop
       id="stop32"
       offset=".3374"
       stop-color="#fff" />
    <stop
       id="stop34"
       offset="1"
       stop-color="#D4D4D4" />
  </linearGradient>
  <path
     id="path37"
     stroke-width="2"
     stroke-miterlimit="10"
     stroke-linejoin="round"
     stroke="#B0B0B0"
     fill="url(#g)"
     d="m107.85 51.17c-11.33-6.5-65.67-6-65.67-6s-20.45 6.62-18.5 22.92c2.2 18.49 4.94 24.77 12.48 28.43 0.56 10.98 3.03 21.16 3.03 21.16s7.87 0.63 8-0.17c0.45-2.79 2.17-13.33 4-22.67 8.87 1.16 19.73 3.31 44-1 5 10.33 5.5 23.5 5.5 23.5s6.07 0.05 6.12 0.12c1.17-4.83 2.48-10.75 3.71-17.29 1.65-8.82 3.13-11.26 3.83-20.17 0.5-6.33 4.84-22.33-6.5-28.83z" />
  <path
     id="path39"
     stroke-width="2"
     stroke-miterlimit="10"
     stroke-linejoin="round"
     stroke="#4D4D4D"
     fill="#666"
     d="m43.52 123.72c0-4.37-3.48-7.91-7.76-7.91-4.29 0-7.76 3.54-7.76 7.91 0 0.09 0.01 0.18 0.01 0.28h6.64c0.67-1.04 0.66-2.17 1.03-3.17 0 0.77 0.59 2.12 1.32 3.17h6.5c0.01-0.09 0.02-0.18 0.02-0.28z" />
  <path
     id="path41"
     stroke-width="2"
     stroke-miterlimit="10"
     stroke-linejoin="round"
     stroke="#4D4D4D"
     fill="#666"
     d="m50.65 123.72c0-4.37-3.48-7.91-7.76-7.91-4.29 0-7.76 3.54-7.76 7.91 0 0.09 0.01 0.18 0.01 0.28h6.64c0.67-1.04 0.66-2.17 1.03-3.17 0 0.77 0.59 2.12 1.32 3.17h6.5c0.01-0.09 0.02-0.18 0.02-0.28z" />
  <path
     id="path43"
     stroke-width="2"
     stroke-miterlimit="10"
     stroke-linejoin="round"
     stroke="#4D4D4D"
     fill="#666"
     d="m103.65 123.72c0-4.37-3.48-7.91-7.76-7.91-4.29 0-7.76 3.54-7.76 7.91 0 0.09 0.01 0.18 0.01 0.28h6.64c0.67-1.04 0.66-2.17 1.03-3.17 0 0.77 0.59 2.12 1.32 3.17h6.5c0.01-0.09 0.02-0.18 0.02-0.28z" />
  <path
     id="path45"
     stroke-width="2"
     stroke-miterlimit="10"
     stroke-linejoin="round"
     stroke="#4D4D4D"
     fill="#666"
     d="m111.4 123.72c0-4.37-3.48-7.91-7.76-7.91-4.29 0-7.76 3.54-7.76 7.91 0 0.09 0.01 0.18 0.01 0.28h6.64c0.67-1.04 0.66-2.17 1.03-3.17 0 0.77 0.59 2.12 1.32 3.17h6.5c0.01-0.09 0.02-0.18 0.02-0.28z" />
  <linearGradient
     gradientUnits="userSpaceOnUse"
     y2="97.026"
     y1="85.686"
     x2="94.602"
     x1="94.602"
     id="f">
    <stop
       id="stop47"
       offset=".5376"
       stop-color="#C69C6D" />
    <stop
       id="stop49"
       offset=".6265"
       stop-color="#BE9466" />
    <stop
       id="stop51"
       offset=".7641"
       stop-color="#A87F52" />
    <stop
       id="stop53"
       offset=".9323"
       stop-color="#855C32" />
    <stop
       id="stop55"
       offset=".9981"
       stop-color="#754C24" />
  </linearGradient>
  <path
     id="path58"
     stroke-width="2"
     stroke-miterlimit="10"
     stroke-linejoin="round"
     stroke-linecap="round"
     stroke="#B0B0B0"
     fill="url(#f)"
     d="m92.62 86.61c1.33 3.36 2.64 7.36 3.96 10.72" />
  <path
     id="path60"
     stroke-width="2"
     stroke-miterlimit="10"
     stroke-linejoin="round"
     stroke="#B0B0B0"
     fill="none"
     d="m114.19 62.96c5.38-0.62 9.37 6.27 8.73 11.19-0.34 2.65-1.72 5.04-3.02 7.38s-2.59 4.8-2.72 7.48c-0.13 2.67 1.22 5.61 3.76 6.46" />
  <path
     id="path62"
     fill="#4D4D4D"
     d="m121.19 104.99c-0.34-3.37-3.93-1.46-5.17-6.07-0.74-2.76 0.3-5.65 3.14-5.5 8.77 0.45 2.32 14.41 2.03 11.57z" />
  <path
     id="path64"
     stroke-width="2"
     stroke-miterlimit="10"
     stroke-linejoin="round"
     stroke-linecap="round"
     stroke="#B0B0B0"
     fill="none"
     d="m36.19 97.17c-0.35-3.65-0.41-6.53-0.68-8.85" />
  <path
     id="path66"
     stroke-width="2"
     stroke-miterlimit="10"
     stroke-linejoin="round"
     stroke-linecap="round"
     stroke="#B0B0B0"
     fill="none"
     d="m50.6 98.09c0.43-3.29 0.85-6.58 1.28-9.87" />
  <defs
     id="defs69">
    <path
       d="m106.94 52.08c-11.21-6.41-64.95-5.92-64.95-5.92s-19.32 5.68-17.4 21.75c2.18 18.23 3.75 22.75 11.3 27.2 0.55 10.83 3.13 22.56 3.13 22.56s7.79 0.62 7.91-0.16c0.45-2.75 2.14-14.38 3.96-23.59 8.78 1.15 19.18 3.33 43.2-0.92 4.95 10.19 5.77 24.34 5.77 24.34s6 0.05 6.06 0.12c1.15-4.77 2.46-10.6 3.67-17.05 1.64-8.7 3.1-11.1 3.79-19.89 0.48-6.25 4.77-22.03-6.44-28.44z"
       id="e" />
  </defs>
  <clipPath
     id="a">
    <use
       id="use71"
       xlink:href="#e" />
  </clipPath>
  <path
     id="path74"
     clip-path="url(#a)"
     d="m103.32 51.59c0 7.87-6.44 14.3-14.3 14.3h-4.79c-7.87 0-14.3-6.44-14.3-14.3 0-7.87 6.44-14.3 14.3-14.3h4.79c7.86 0 14.3 6.44 14.3 14.3z" />
  <path
     id="path76"
     clip-path="url(#a)"
     d="m75.54 73.29h-2.51c-6.33 0-11.51-5.18-11.51-11.51s5.18-11.51 11.51-11.51h2.51c6.33 0 11.51 5.18 11.51 11.51s-5.18 11.51-11.51 11.51z" />
  <path
     id="path78"
     clip-path="url(#a)"
     d="m27.25 89.06c-6.35 0-11.54-5.19-11.54-11.54v-5.29c0-6.35 5.19-11.54 11.54-11.54s11.54 5.19 11.54 11.54v5.29c0 6.35-5.19 11.54-11.54 11.54z" />
  <path
     id="path80"
     clip-path="url(#a)"
     d="m74.01 109.65h-5.59c-6.42 0-11.67-5.25-11.67-11.67v-2.59c0-6.42 5.25-11.67 11.67-11.67h5.59c6.42 0 11.67 5.25 11.67 11.67v2.59c-0.01 6.42-5.26 11.67-11.67 11.67z" />
  <path
     id="path82"
     clip-path="url(#a)"
     d="m116.62 93.54h-4.69c-6.42 0-11.67-5.25-11.67-11.67v-6.2c0-6.42 5.25-11.67 11.67-11.67h4.69c6.42 0 11.67 5.25 11.67 11.67v6.2c0 6.42-5.25 11.67-11.67 11.67z" />
  <g
     id="g106"
     stroke-width="2"
     stroke-miterlimit="10"
     stroke-linejoin="round"
     stroke="#B0B0B0">
    <linearGradient
       gradientUnits="userSpaceOnUse"
       y2="-16.577"
       y1="68.799"
       x2="10.09"
       x1="10.09"
       id="d">
      <stop
         id="stop84"
         offset="0"
         stop-color="#E3E3E3" />
      <stop
         id="stop86"
         offset=".138"
         stop-color="#E6E6E6" />
      <stop
         id="stop88"
         offset=".2561"
         stop-color="#F1F1F1" />
      <stop
         id="stop90"
         offset=".3484"
         stop-color="#fff" />
    </linearGradient>
    <path
       id="path93"
       fill="url(#d)"
       d="m15.48 32.7s-4.06-1.98-8.41 2.37-2.37 8.41-2.37 8.41 4.06 1.98 8.41-2.37 2.37-8.41 2.37-8.41z" />
    <linearGradient
       gradientUnits="userSpaceOnUse"
       y2="-16.577"
       y1="68.799"
       x2="59.703"
       x1="59.703"
       id="c">
      <stop
         id="stop95"
         offset="0"
         stop-color="#E3E3E3" />
      <stop
         id="stop97"
         offset=".138"
         stop-color="#E6E6E6" />
      <stop
         id="stop99"
         offset=".2561"
         stop-color="#F1F1F1" />
      <stop
         id="stop101"
         offset=".3484"
         stop-color="#fff" />
    </linearGradient>
    <path
       id="path104"
       fill="url(#c)"
       d="m65.09 43.48s1.98-4.06-2.37-8.41-8.41-2.37-8.41-2.37-1.98 4.06 2.37 8.41c4.36 4.35 8.41 2.37 8.41 2.37z" />
  </g>
  <g
     id="g138"
     stroke-width="2"
     stroke-miterlimit="10"
     stroke-linejoin="round"
     stroke="#E57373">
    <linearGradient
       gradientUnits="userSpaceOnUse"
       y2="21.419"
       y1="21.419"
       x2="24.2"
       x1="14.549"
       id="b">
      <stop
         id="stop108"
         offset="0"
         stop-color="#E69488" />
      <stop
         id="stop110"
         offset=".0986"
         stop-color="#E7968B" />
      <stop
         id="stop112"
         offset=".183"
         stop-color="#EC9C96" />
      <stop
         id="stop114"
         offset=".2622"
         stop-color="#F3A5A8" />
      <stop
         id="stop116"
         offset=".3378"
         stop-color="#FDB2C0" />
      <stop
         id="stop118"
         offset=".35"
         stop-color="#FFB5C5" />
    </linearGradient>
    <path
       id="path121"
       fill="url(#b)"
       d="m20.35 21.22c-1.6-2.78-0.13-6.63-2.9-5.03-2.78 1.6-3.73 5.15-2.12 7.93 1.6 2.78 5.15 3.73 7.93 2.12 2.77-1.6-1.3-2.25-2.91-5.02z" />
    <linearGradient
       gradientUnits="userSpaceOnUse"
       y2="21.419"
       y1="21.419"
       x2="55.243"
       x1="45.593"
       id="n">
      <stop
         id="stop123"
         offset="0"
         stop-color="#E69488" />
      <stop
         id="stop125"
         offset=".0986"
         stop-color="#E7968B" />
      <stop
         id="stop127"
         offset=".183"
         stop-color="#EC9C96" />
      <stop
         id="stop129"
         offset=".2622"
         stop-color="#F3A5A8" />
      <stop
         id="stop131"
         offset=".3378"
         stop-color="#FDB2C0" />
      <stop
         id="stop133"
         offset=".35"
         stop-color="#FFB5C5" />
    </linearGradient>
    <path
       id="path136"
       fill="url(#n)"
       d="m49.44 21.22c1.6-2.78 0.13-6.63 2.9-5.03 2.78 1.6 3.73 5.15 2.12 7.93-1.6 2.78-5.15 3.73-7.93 2.12-2.77-1.6 1.31-2.25 2.91-5.02z" />
  </g>
  <linearGradient
     gradientUnits="userSpaceOnUse"
     y2="-14.619"
     y1="67.381"
     x2="35.447"
     x1="35.447"
     id="m">
    <stop
       id="stop140"
       offset=".1318"
       stop-color="#D4D4D4" />
    <stop
       id="stop142"
       offset=".2029"
       stop-color="#D7D7D7" />
    <stop
       id="stop144"
       offset=".2638"
       stop-color="#E2E2E2" />
    <stop
       id="stop146"
       offset=".3208"
       stop-color="#F3F3F3" />
    <stop
       id="stop148"
       offset=".3484"
       stop-color="#fff" />
  </linearGradient>
  <path
     id="path151"
     fill="url(#m)"
     d="M15.51,62l-1.48-22.34C14.04,28.92,22.83,20,33.63,20h3.64c10.8,0,19.59,8.92,19.59,19.73 L54.96,62H15.51z" />
  <path
     id="path153"
     fill="#B0B0B0"
     d="M37.27,21c10.22,0,18.55,8.43,18.59,18.64L54.04,61H16.45l-1.41-21.34 C15.07,29.44,23.4,21,33.63,21H37 M37.27,19h-3.64c-11.32,0-20.59,9.4-20.59,20.73L14.58,63h41.3l1.98-23.27 C57.86,28.4,48.59,19,37.27,19L37.27,19z" />
  <defs
     id="defs156">
    <path
       d="M39,20h-4.11c-10.95,0-19.9,8.9-19.9,20.23L16.47,63h40.35l1.78-22.77"
       id="l" />
  </defs>
  <clipPath
     id="k">
    <use
       id="use158"
       xlink:href="#l" />
  </clipPath>
  <path
     id="path161"
     fill="#C4C4C4"
     clip-path="url(#k)"
     d="M34,42.4C34,36.66,29.35,32,23.79,32h-0.18C18.05,32,14,36.66,14,42.4 v1.19c0,5.75,4.05,10.4,9.61,10.4h0.18C29.35,54,34,49.34,34,43.6V42.4z" />
  <g
     id="g167"
     fill="#404040">
    <ellipse
       id="ellipse163"
       ry="5.06"
       rx="4.48"
       cy="42.16"
       cx="20.99" />
    <ellipse
       id="ellipse165"
       ry="5.06"
       rx="4.48"
       cy="42.16"
       cx="48.8" />
  </g>
  <linearGradient
     gradientUnits="userSpaceOnUse"
     y2="29.249"
     y1="81.01"
     x2="35.219"
     x1="35.219"
     id="j">
    <stop
       id="stop169"
       offset="0"
       stop-color="#E69488" />
    <stop
       id="stop171"
       offset=".0986"
       stop-color="#E7968B" />
    <stop
       id="stop173"
       offset=".183"
       stop-color="#EC9C96" />
    <stop
       id="stop175"
       offset=".2622"
       stop-color="#F3A5A8" />
    <stop
       id="stop177"
       offset=".3378"
       stop-color="#FDB2C0" />
    <stop
       id="stop179"
       offset=".35"
       stop-color="#FFB5C5" />
  </linearGradient>
  <path
     id="path182"
     fill="url(#j)"
     d="M25.14,73.97c-5.48,0-9.93-4.21-9.93-9.39v-0.17c0-5.18,4.46-9.39,9.93-9.39H45.3 c5.48,0,9.93,4.21,9.93,9.39v0.17c0,5.18-4.46,9.39-9.93,9.39H25.14z" />
  <path
     id="path184"
     fill="#E57373"
     d="m45.3 56.05c4.91 0 8.91 3.75 8.91 8.37v0.17c0 4.61-4 8.37-8.91 8.37h-20.16c-4.91 0-8.91-3.75-8.91-8.37v-0.17c0-4.61 4-8.37 8.91-8.37h20.16m0-2.05h-20.16c-6.05 0-10.96 4.66-10.96 10.42v0.17c0 5.75 4.91 10.42 10.96 10.42h20.16c6.05 0 10.96-4.66 10.96-10.42v-0.17c0-5.76-4.91-10.42-10.96-10.42z" />
  <g
     id="g190"
     fill="#754C24">
    <ellipse
       id="ellipse186"
       ry="4.3"
       rx="3.5"
       cy="64.2"
       cx="25.34" />
    <ellipse
       id="ellipse188"
       ry="4.3"
       rx="3.5"
       cy="64.2"
       cx="44.46" />
  </g>
</svg>
