<?xml version="1.0" encoding="UTF-8" standalone="no"?>
<svg
   xmlns:dc="http://purl.org/dc/elements/1.1/"
   xmlns:cc="http://creativecommons.org/ns#"
   xmlns:rdf="http://www.w3.org/1999/02/22-rdf-syntax-ns#"
   xmlns:svg="http://www.w3.org/2000/svg"
   xmlns="http://www.w3.org/2000/svg"
   id="svg172"
   version="1.1"
   viewBox="0 0 128 128"
   enable-background="new 0 0 128 128">
  <metadata
     id="metadata178">
    <rdf:RDF>
      <cc:Work
         rdf:about="">
        <dc:format>image/svg+xml</dc:format>
        <dc:type
           rdf:resource="http://purl.org/dc/dcmitype/StillImage" />
      </cc:Work>
    </rdf:RDF>
  </metadata>
  <defs
     id="defs176" />
  <rect
     id="rect2"
     fill="#E0E0E0"
     height="4.24"
     width="6.12"
     y="14.46"
     x="108.37"
     transform="matrix(.7071 .7071 -.7071 .7071 44.36 -73.935)" />
  <path
     id="path4"
     fill="#FFA000"
     d="m121.39 15.26-8.65-8.65c-0.6-0.6-0.6-1.56 0-2.16s1.56-0.6 2.16 0l8.65 8.65c0.6 0.6 0.6 1.56 0 2.16-0.59 0.59-1.56 0.59-2.16 0z" />
  <linearGradient
     gradientUnits="userSpaceOnUse"
     gradientTransform="matrix(.7071 .7071 -.7071 .7071 66.689 -5.3917)"
     y2="-18.23"
     y1="-26.325"
     x2="49.961"
     x1="45.554"
     id="i">
    <stop
       id="stop6"
       offset="0"
       stop-color="#FFD740" />
    <stop
       id="stop8"
       offset="1"
       stop-color="#FFAB00" />
  </linearGradient>
  <path
     id="path11"
     fill="url(#i)"
     d="m121.38 15.25-8.63-8.63s-2.08 2.24-2.16 6.49l4.31 4.31c4.5 0.08 6.48-2.17 6.48-2.17z" />
  <path
     id="path13"
     fill="#BDBDBD"
     d="m55.92 48.91-2.83 2.83-1.15-1.15c-0.39-0.39-0.39-1.02 0-1.41l1.41-1.41c0.39-0.39 1.02-0.39 1.41 0l1.16 1.14z" />
  <rect
     id="rect15"
     fill="#BDBDBD"
     height="7.92"
     width="2"
     y="48.46"
     x="55.6"
     transform="matrix(.7071 -.7071 .7071 .7071 -20.492 55.375)" />
  <linearGradient
     gradientUnits="userSpaceOnUse"
     y2="87.068"
     y1="55.818"
     x2="91.238"
     x1="60.071"
     id="h">
    <stop
       id="stop17"
       offset="0"
       stop-color="#FFC400" />
    <stop
       id="stop19"
       offset="1"
       stop-color="#FFAB00" />
  </linearGradient>
  <polygon
     id="polygon22"
     fill="url(#h)"
     points="61.99 53.57 93.53 85.03 89.28 89.28 57.75 57.82" />
  <path
     id="path24"
     fill="#E0E0E0"
     d="m95.96 87.46-4.24 4.24c-0.39 0.39-1.02 0.39-1.41 0l-1.41-1.41 5.66-5.66 1.41 1.41c0.38 0.4 0.38 1.03-0.01 1.42z" />
  <polygon
     id="polygon26"
     fill="#BDBDBD"
     points="94.55 84.64 88.89 90.3 88.89 88.89 93.14 84.64" />
  <path
     id="path28"
     fill="#E0E0E0"
     d="m62.01 53.59-4.24 4.24c-0.39 0.39-1.02 0.39-1.41 0l-1.41-1.41 5.66-5.66 1.41 1.41c0.38 0.4 0.38 1.03-0.01 1.42z" />
  <path
     id="path30"
     fill="#eee"
     d="m60.6 50.77-5.66 5.66v-0.59c0-0.53 0.21-1.04 0.59-1.41l3.07-3.07c0.38-0.38 0.88-0.59 1.41-0.59h0.59z" />
  <path
     id="path32"
     fill="#E0E0E0"
     d="m55.99 48.99-2.83 2.83c-0.39 0.39-1.02 0.39-1.41 0s-0.39-1.02 0-1.41l2.83-2.83c0.39-0.39 1.02-0.39 1.41 0s0.39 1.02 0 1.41z" />
  <path
     id="path34"
     fill="#BDBDBD"
     d="m63.79 41.04-2.83 2.83-1.15-1.15c-0.39-0.39-0.39-1.02 0-1.41l1.41-1.41c0.39-0.39 1.02-0.39 1.41 0l1.16 1.14z" />
  <rect
     id="rect36"
     fill="#BDBDBD"
     height="7.92"
     width="2"
     y="40.59"
     x="63.47"
     transform="matrix(.7071 -.7071 .7071 .7071 -12.617 58.637)" />
  <linearGradient
     gradientUnits="userSpaceOnUse"
     y2="79.193"
     y1="47.943"
     x2="99.113"
     x1="67.946"
     id="g">
    <stop
       id="stop38"
       offset="0"
       stop-color="#FFC400" />
    <stop
       id="stop40"
       offset="1"
       stop-color="#FFAB00" />
  </linearGradient>
  <polygon
     id="polygon43"
     fill="url(#g)"
     points="69.87 45.7 101.4 77.16 97.16 81.4 65.62 49.94" />
  <path
     id="path45"
     fill="#E0E0E0"
     d="m103.83 79.59-4.24 4.24c-0.39 0.39-1.02 0.39-1.41 0l-1.41-1.41 5.66-5.66 1.41 1.41c0.38 0.4 0.38 1.03-0.01 1.42z" />
  <polygon
     id="polygon47"
     fill="#BDBDBD"
     points="102.43 76.77 96.77 82.43 96.77 81.01 101.01 76.77" />
  <path
     id="path49"
     fill="#E0E0E0"
     d="m69.88 45.71-4.24 4.24c-0.39 0.39-1.02 0.39-1.41 0l-1.41-1.41 5.66-5.66 1.41 1.41c0.38 0.4 0.38 1.03-0.01 1.42z" />
  <path
     id="path51"
     fill="#eee"
     d="m68.47 42.89-5.66 5.66v-0.59c0-0.53 0.21-1.04 0.59-1.41l3.07-3.07c0.38-0.38 0.88-0.59 1.41-0.59h0.59z" />
  <path
     id="path53"
     fill="#E0E0E0"
     d="m63.87 41.11-2.83 2.83c-0.39 0.39-1.02 0.39-1.41 0s-0.39-1.02 0-1.41l2.83-2.83c0.39-0.39 1.02-0.39 1.41 0s0.39 1.02 0 1.41z" />
  <path
     id="path55"
     fill="#BDBDBD"
     d="m71.67 33.16-2.83 2.83-1.15-1.15c-0.39-0.39-0.39-1.02 0-1.41l1.41-1.41c0.39-0.39 1.02-0.39 1.41 0l1.16 1.14z" />
  <rect
     id="rect57"
     fill="#BDBDBD"
     height="7.92"
     width="2"
     y="32.71"
     x="71.35"
     transform="matrix(.7071 -.7071 .7071 .7071 -4.7422 61.899)" />
  <linearGradient
     gradientUnits="userSpaceOnUse"
     y2="71.318"
     y1="40.068"
     x2="106.99"
     x1="75.821"
     id="f">
    <stop
       id="stop59"
       offset="0"
       stop-color="#FFC400" />
    <stop
       id="stop61"
       offset="1"
       stop-color="#FFAB00" />
  </linearGradient>
  <polygon
     id="polygon64"
     fill="url(#f)"
     points="77.74 37.82 109.28 69.28 105.03 73.53 73.5 42.07" />
  <path
     id="path66"
     fill="#E0E0E0"
     d="m111.71 71.71-4.24 4.24c-0.39 0.39-1.02 0.39-1.41 0l-1.41-1.41 5.66-5.66 1.41 1.41c0.38 0.4 0.38 1.03-0.01 1.42z" />
  <polygon
     id="polygon68"
     fill="#BDBDBD"
     points="110.3 68.89 104.64 74.55 104.64 73.14 108.89 68.89" />
  <path
     id="path70"
     fill="#E0E0E0"
     d="m77.76 37.84-4.24 4.24c-0.39 0.39-1.02 0.39-1.41 0l-1.41-1.41 5.66-5.66 1.41 1.41c0.38 0.4 0.38 1.03-0.01 1.42z" />
  <path
     id="path72"
     fill="#eee"
     d="m76.35 35.02-5.66 5.66v-0.59c0-0.53 0.21-1.04 0.59-1.41l3.07-3.07c0.38-0.38 0.88-0.59 1.41-0.59h0.59z" />
  <path
     id="path74"
     fill="#E0E0E0"
     d="m71.74 33.24-2.83 2.83c-0.39 0.39-1.02 0.39-1.41 0s-0.39-1.02 0-1.41l2.83-2.83c0.39-0.39 1.02-0.39 1.41 0s0.39 1.02 0 1.41z" />
  <g
     id="g78"
     opacity=".2">
    <path
       id="path76"
       fill="#424242"
       d="m113.82 5.5 0.02 0.01 8.64 8.64-0.04 0.04-1.11-1.08-1.06 1.13c-0.06 0.07-1.6 1.67-5.11 1.67h-0.22l-0.64-0.01-2.22 2.22-2.2-2.2 2.19-2.19 0.01-0.6c0.07-3.55 1.7-5.42 1.76-5.49l0.98-1.11-1.02-1.02c0.01-0.01 0.01-0.01 0.02-0.01m0-1.5c-0.39 0-0.78 0.15-1.08 0.45-0.6 0.6-0.6 1.56 0 2.16l0.01 0.01s-2.08 2.24-2.16 6.48l-2.82 2.82 4.32 4.32 2.83-2.83h0.25c4.32 0 6.22-2.16 6.22-2.16l0.01 0.01c0.3 0.3 0.69 0.45 1.08 0.45s0.78-0.15 1.08-0.45c0.6-0.6 0.6-1.56 0-2.16l-8.65-8.65c-0.3-0.3-0.69-0.45-1.09-0.45z" />
  </g>
  <linearGradient
     gradientUnits="userSpaceOnUse"
     y2="125.32"
     y1="18"
     x2="59.041"
     x1="59.041"
     id="e">
    <stop
       id="stop80"
       offset="0"
       stop-color="#FFC400" />
    <stop
       id="stop82"
       offset=".5942"
       stop-color="#FFC200" />
    <stop
       id="stop84"
       offset=".808"
       stop-color="#fb0" />
    <stop
       id="stop86"
       offset=".9601"
       stop-color="#FFB000" />
    <stop
       id="stop88"
       offset="1"
       stop-color="#FFAB00" />
  </linearGradient>
  <path
     id="path91"
     fill="url(#e)"
     d="m44.95 102.68c1.82-11.16 3.64-17.89 11.64-25.89l56.05-55.31c0.59-0.58 0.6-1.54 0.01-2.13l-4.02-4.02c-0.58-0.58-1.53-0.59-2.11-0.01l-56.06 55.34c-7.99 7.99-14.73 9.81-25.89 11.64-6.33 1.03-19.24-1.76-19.57-1.73l22.39 22.39 20.03 20.04c0.16 0.29-3.51-14-2.47-20.32z" />
  <path
     id="path93"
     fill="#FFA000"
     d="m48.13 123.71-43.84-43.84c-0.39-0.39-0.39-1.02 0-1.41 0.78-0.78 2.05-0.78 2.83 0l42.43 42.43c0.78 0.78 0.78 2.05 0 2.83-0.39 0.38-1.03 0.38-1.42-0.01z" />
  <linearGradient
     gradientUnits="userSpaceOnUse"
     gradientTransform="matrix(.7778 -.2222 -.2222 .7778 31.684 31.684)"
     y2="86.843"
     y1="59.761"
     x2="91.014"
     x1="64.004"
     id="d">
    <stop
       id="stop95"
       offset="0"
       stop-color="#FF8F00" />
    <stop
       id="stop97"
       offset=".3773"
       stop-opacity="0"
       stop-color="#FF8F00" />
    <stop
       id="stop99"
       offset=".5143"
       stop-opacity="0"
       stop-color="#FF8F00" />
    <stop
       id="stop101"
       offset=".6341"
       stop-opacity="0"
       stop-color="#FF8F00" />
    <stop
       id="stop103"
       offset="1"
       stop-color="#FF8F00" />
  </linearGradient>
  <polygon
     id="polygon106"
     fill="url(#d)"
     points="67.99 59.57 85.53 77.03 81.28 81.28 63.75 63.82" />
  <linearGradient
     gradientUnits="userSpaceOnUse"
     gradientTransform="matrix(.746 -.254 -.254 .746 37.353 37.353)"
     y2="79.193"
     y1="47.943"
     x2="99.113"
     x1="67.946"
     id="c">
    <stop
       id="stop108"
       offset="0"
       stop-color="#FF8F00" />
    <stop
       id="stop110"
       offset=".3773"
       stop-opacity="0"
       stop-color="#FF8F00" />
    <stop
       id="stop112"
       offset=".5143"
       stop-opacity="0"
       stop-color="#FF8F00" />
    <stop
       id="stop114"
       offset=".6341"
       stop-opacity="0"
       stop-color="#FF8F00" />
    <stop
       id="stop116"
       offset="1"
       stop-color="#FF8F00" />
  </linearGradient>
  <polygon
     id="polygon119"
     fill="url(#c)"
     points="77.87 53.7 93.4 69.16 89.16 73.4 73.62 57.94" />
  <linearGradient
     gradientUnits="userSpaceOnUse"
     y2="47.769"
     y1="62.956"
     x2="83.481"
     x1="98.668"
     id="b">
    <stop
       id="stop121"
       offset="0"
       stop-color="#FF8F00" />
    <stop
       id="stop123"
       offset=".3773"
       stop-opacity="0"
       stop-color="#FF8F00" />
    <stop
       id="stop125"
       offset=".5143"
       stop-opacity="0"
       stop-color="#FF8F00" />
    <stop
       id="stop127"
       offset=".6341"
       stop-opacity="0"
       stop-color="#FF8F00" />
    <stop
       id="stop129"
       offset="1"
       stop-color="#FF8F00" />
  </linearGradient>
  <polygon
     id="polygon132"
     fill="url(#b)"
     points="85.74 45.82 101.28 61.28 97.03 65.53 81.5 50.07" />
  <g
     id="g136"
     opacity=".2">
    <path
       id="path134"
       fill="#424242"
       d="m59.98 52.27 0.61 0.61-0.71 0.71 1.06 1.06 31.13 31.05 0.44 0.44h1.41l0.61 0.61-3.54 3.54-0.61-0.61v-1.41l-0.44-0.44-31.12-31.06-1.06-1.06-0.71 0.71-0.61-0.61c0.01-0.12 0.06-0.23 0.15-0.32l3.07-3.07c0.09-0.09 0.2-0.14 0.32-0.15m-4.69-4.99c-0.26 0-0.51 0.1-0.71 0.29l-0.04 0.04c-0.16-0.09-0.33-0.13-0.5-0.13-0.25 0-0.49 0.09-0.68 0.28l-1.41 1.41c-0.32 0.32-0.36 0.8-0.15 1.18l-0.04 0.04c-0.39 0.39-0.39 1.02 0 1.41 0.2 0.2 0.45 0.29 0.71 0.29s0.51-0.1 0.71-0.29l0.71-0.71 2.49 2.49-0.83 0.83c-0.38 0.38-0.59 0.88-0.59 1.41v0.57l-0.01 0.01 1.41 1.41c0.2 0.2 0.45 0.29 0.71 0.29s0.51-0.1 0.71-0.29l31.13 31.05v1.4l-0.01 0.01 1.41 1.41c0.2 0.2 0.45 0.29 0.71 0.29s0.51-0.1 0.71-0.29l4.24-4.24c0.39-0.39 0.39-1.02 0-1.41l-1.41-1.41-0.01 0.01h-1.4l-31.14-31.04c0.39-0.39 0.39-1.02 0-1.41l-1.41-1.41-0.01 0.01h-0.57c-0.53 0-1.04 0.21-1.41 0.59l-0.83 0.83-2.49-2.49 0.71-0.71c0.39-0.39 0.39-1.02 0-1.41-0.2-0.21-0.46-0.31-0.71-0.31z" />
  </g>
  <g
     id="g140"
     opacity=".2">
    <path
       id="path138"
       fill="#424242"
       d="m67.85 44.39 0.61 0.61-0.71 0.71 1.06 1.06 31.13 31.05 0.44 0.44h1.41l0.61 0.61-3.54 3.54-0.61-0.61v-1.41l-0.44-0.44-31.11-31.05-1.06-1.06-0.71 0.71-0.61-0.61c0.01-0.12 0.06-0.23 0.15-0.32l3.07-3.07c0.08-0.1 0.19-0.15 0.31-0.16m-4.69-4.98c-0.26 0-0.51 0.1-0.71 0.29l-0.04 0.04c-0.16-0.09-0.33-0.13-0.5-0.13-0.25 0-0.49 0.09-0.68 0.28l-1.41 1.41c-0.32 0.32-0.36 0.8-0.15 1.18l-0.04 0.04c-0.39 0.39-0.39 1.02 0 1.41 0.2 0.2 0.45 0.29 0.71 0.29s0.51-0.1 0.71-0.29l0.71-0.71 2.49 2.49-0.83 0.83c-0.38 0.38-0.59 0.88-0.59 1.41v0.57l-0.01 0.01 1.41 1.41c0.2 0.2 0.45 0.29 0.71 0.29s0.51-0.1 0.71-0.29l31.13 31.05v1.4l-0.01 0.01 1.41 1.41c0.2 0.2 0.45 0.29 0.71 0.29s0.51-0.1 0.71-0.29l4.24-4.24c0.39-0.39 0.39-1.02 0-1.41l-1.41-1.41-0.01 0.01h-1.4l-31.14-31.05c0.39-0.39 0.39-1.02 0-1.41l-1.41-1.41-0.01 0.01h-0.57c-0.53 0-1.04 0.21-1.41 0.59l-0.83 0.83-2.49-2.49 0.71-0.71c0.39-0.39 0.39-1.02 0-1.41-0.2-0.2-0.45-0.3-0.71-0.3z" />
  </g>
  <g
     id="g144"
     opacity=".2">
    <path
       id="path142"
       fill="#424242"
       d="m75.73 36.52 0.61 0.61-0.71 0.71 1.06 1.06 31.13 31.05 0.44 0.44h1.41l0.61 0.61-3.54 3.54-0.61-0.61v-1.41l-0.44-0.44-31.12-31.06-1.06-1.06-0.71 0.71-0.61-0.61c0.01-0.12 0.06-0.23 0.15-0.32l3.07-3.07c0.09-0.09 0.2-0.14 0.32-0.15m-4.69-4.99c-0.26 0-0.51 0.1-0.71 0.29l-0.04 0.04c-0.16-0.09-0.33-0.13-0.5-0.13-0.25 0-0.49 0.09-0.68 0.28l-1.41 1.41c-0.32 0.32-0.36 0.8-0.15 1.18l-0.04 0.04c-0.39 0.39-0.39 1.02 0 1.41 0.2 0.2 0.45 0.29 0.71 0.29s0.51-0.1 0.71-0.29l0.71-0.71 2.49 2.49-0.83 0.83c-0.38 0.38-0.59 0.88-0.59 1.41v0.57l-0.01 0.01 1.41 1.41c0.2 0.2 0.45 0.29 0.71 0.29s0.51-0.1 0.71-0.29l31.13 31.05v1.4l-0.01 0.01 1.41 1.41c0.2 0.2 0.45 0.29 0.71 0.29s0.51-0.1 0.71-0.29l4.24-4.24c0.39-0.39 0.39-1.02 0-1.41l-1.41-1.41-0.01 0.01h-1.4l-31.14-31.04c0.39-0.39 0.39-1.02 0-1.41l-1.41-1.41-0.01 0.01h-0.57c-0.53 0-1.04 0.21-1.41 0.59l-0.83 0.83-2.49-2.49 0.71-0.71c0.39-0.39 0.39-1.02 0-1.41-0.2-0.21-0.46-0.31-0.71-0.31z" />
  </g>
  <linearGradient
     gradientUnits="userSpaceOnUse"
     y2="22.562"
     y1="93.083"
     x2="105.44"
     x1="34.917"
     id="a">
    <stop
       id="stop146"
       offset="0"
       stop-opacity="0"
       stop-color="#FF8F00" />
    <stop
       id="stop148"
       offset=".2652"
       stop-color="#FF8F00" />
    <stop
       id="stop150"
       offset=".8714"
       stop-color="#FF8F00" />
    <stop
       id="stop152"
       offset="1"
       stop-opacity="0"
       stop-color="#FF8F00" />
  </linearGradient>
  <path
     id="path155"
     opacity=".7"
     fill="url(#a)"
     d="m44.95 102.68c1.82-11.16 3.64-17.89 11.64-25.89l56.05-55.31c0.59-0.58 0.6-1.54 0.01-2.13l-4.02-4.02c-0.58-0.58-1.53-0.59-2.11-0.01l-56.06 55.34c-7.99 7.99-14.73 9.81-25.89 11.64-6.33 1.03-19.24-1.76-19.57-1.73l22.39 22.39 20.03 20.04c0.16 0.29-3.51-14-2.47-20.32z" />
  <g
     id="g159"
     opacity=".2">
    <path
       id="path157"
       fill="#424242"
       d="m107.57 18.51 1.89 1.89-55 54.27c-8.87 8.87-10.7 16.66-12.48 27.53-0.43 2.62-0.23 6.55 0.59 11.72l-28.92-28.94c2.92 0.36 5.44 0.55 7.54 0.55 1.47 0 2.77-0.09 3.86-0.27 10.87-1.78 18.65-3.6 27.51-12.46l55.01-54.29m0.01-3.61c-0.38 0-0.76 0.14-1.05 0.43l-56.07 55.33c-7.99 7.99-14.73 9.81-25.89 11.64-0.99 0.16-2.14 0.23-3.38 0.23-3.55 0-7.81-0.56-11.08-1.08l-2.99-2.99c-0.39-0.39-0.9-0.59-1.41-0.59s-1.02 0.2-1.41 0.59-0.39 1.02 0 1.41l43.84 43.84c0.2 0.2 0.45 0.29 0.71 0.29s0.51-0.1 0.71-0.29c0.78-0.78 0.78-2.05 0-2.83l-3.26-3.26c-0.92-4.65-1.96-11.2-1.34-14.95 1.82-11.16 3.64-17.89 11.64-25.89l56.05-55.31c0.59-0.58 0.6-1.54 0.01-2.13l-1.66-1.64-2.37-2.37c-0.28-0.29-0.67-0.43-1.05-0.43z" />
  </g>
  <linearGradient
     gradientUnits="userSpaceOnUse"
     y2="112.85"
     y1="34.833"
     x2="82.743"
     x1="82.743"
     id="j">
    <stop
       id="stop161"
       offset="0"
       stop-color="#FFD740" />
    <stop
       id="stop163"
       offset="1"
       stop-color="#FFAB00" />
  </linearGradient>
  <path
     id="path166"
     fill="url(#j)"
     d="m114.96 31.27c-3.29-3.34-7.69-5.2-12.41-5.24s-9.15 1.75-12.5 5.03l-39.32 38.79c-3.34 3.29-5.2 7.69-5.24 12.41s1.75 9.15 5.03 12.5c3.29 3.34 7.69 5.2 12.41 5.24s9.15-1.75 12.5-5.03l39.33-38.79c3.34-3.29 5.2-7.69 5.24-12.41s-1.75-9.16-5.04-12.5zm-7.26 17.73-39.33 38.79c-1.43 1.41-3.34 2.18-5.36 2.16s-3.91-0.82-5.32-2.25c-2.92-2.97-2.88-7.76 0.09-10.67l39.33-38.79c1.43-1.41 3.34-2.18 5.36-2.16s3.91 0.82 5.32 2.25c2.92 2.97 2.88 7.75-0.09 10.67z" />
  <g
     id="g170"
     opacity=".2">
    <path
       id="path168"
       fill="#424242"
       d="m102.4 29.03h0.13c3.92 0.03 7.57 1.58 10.3 4.35 2.72 2.77 4.21 6.45 4.17 10.37-0.03 3.92-1.58 7.57-4.35 10.3l-39.33 38.78c-2.73 2.69-6.37 4.17-10.24 4.17h-0.13c-3.92-0.03-7.57-1.58-10.3-4.35-2.72-2.77-4.21-6.45-4.17-10.37 0.03-3.92 1.58-7.57 4.35-10.3l39.33-38.78c2.74-2.69 6.38-4.17 10.24-4.17m-39.32 63.92c2.79 0 5.41-1.07 7.4-3.03l39.33-38.78c2.01-1.97 3.12-4.61 3.15-7.43 0.02-2.82-1.05-5.48-3.02-7.48-1.97-2.01-4.61-3.12-7.43-3.15h-0.09c-2.79 0-5.41 1.07-7.4 3.03l-39.34 38.78c-2.01 1.97-3.12 4.61-3.15 7.43-0.02 2.82 1.05 5.48 3.02 7.48 1.97 2.01 4.61 3.12 7.43 3.15h0.1m39.32-66.92c-4.66 0-9.04 1.78-12.34 5.04l-39.33 38.78c-3.34 3.29-5.2 7.69-5.24 12.41s1.75 9.15 5.03 12.5c3.29 3.34 7.69 5.2 12.41 5.24h0.15c4.66 0 9.04-1.78 12.34-5.04l39.33-38.79c3.34-3.29 5.2-7.69 5.24-12.41s-1.75-9.15-5.03-12.5c-3.29-3.34-7.69-5.2-12.41-5.24-0.05 0.01-0.1 0.01-0.15 0.01zm-39.32 63.92h-0.07c-2.02-0.02-3.91-0.82-5.32-2.25-2.92-2.97-2.88-7.76 0.09-10.67l39.33-38.79c1.42-1.4 3.3-2.16 5.29-2.16h0.07c2.02 0.02 3.91 0.82 5.32 2.25 2.92 2.97 2.88 7.76-0.09 10.67l-39.33 38.79c-1.42 1.39-3.29 2.16-5.29 2.16z" />
  </g>
</svg>
