<?xml version="1.0" encoding="UTF-8" standalone="no"?>
<svg
   xmlns:dc="http://purl.org/dc/elements/1.1/"
   xmlns:cc="http://creativecommons.org/ns#"
   xmlns:rdf="http://www.w3.org/1999/02/22-rdf-syntax-ns#"
   xmlns:svg="http://www.w3.org/2000/svg"
   xmlns="http://www.w3.org/2000/svg"
   id="svg164"
   version="1.1"
   viewBox="0 0 128 128"
   enable-background="new 0 0 128 128">
  <metadata
     id="metadata170">
    <rdf:RDF>
      <cc:Work
         rdf:about="">
        <dc:format>image/svg+xml</dc:format>
        <dc:type
           rdf:resource="http://purl.org/dc/dcmitype/StillImage" />
      </cc:Work>
    </rdf:RDF>
  </metadata>
  <defs
     id="defs168" />
  <radialGradient
     gradientUnits="userSpaceOnUse"
     gradientTransform="matrix(1 0 0 .6458 0 31.931)"
     r="64.375"
     cy="90.162"
     cx="63.202"
     id="i">
    <stop
       id="stop2"
       offset=".0816"
       stop-color="#F8981D" />
    <stop
       id="stop4"
       offset=".2277"
       stop-color="#F89A20" />
    <stop
       id="stop6"
       offset=".3708"
       stop-color="#F9A02A" />
    <stop
       id="stop8"
       offset=".5121"
       stop-color="#FBAC3D" />
    <stop
       id="stop10"
       offset=".6058"
       stop-color="#FCB64E" />
  </radialGradient>
  <path
     id="path13"
     fill="url(#i)"
     d="m113.28 92.98c0.01-0.19 0.02-0.39 0.02-0.58s-0.02-0.39-0.02-0.58v-31.69h-98.66v34.5h0.16c1.79 16.41 23.12 29.37 49.19 29.37s47.41-12.96 49.19-29.37h0.11v-1.65z" />
  <g
     id="g17"
     opacity=".2">
    <path
       id="path15"
       fill="#434343"
       d="m111.28 62.13v29.69 0.06c0 0.1 0.01 0.19 0.01 0.29 0 0.08 0.01 0.16 0.01 0.24s-0.01 0.16-0.01 0.24c-0.01 0.1-0.01 0.19-0.01 0.29v0.06 0.98c-0.05 0.14-0.08 0.29-0.1 0.45-1.69 15.45-22.42 27.57-47.21 27.57s-45.52-12.12-47.21-27.59c-0.02-0.2-0.07-0.39-0.15-0.57v-31.71h94.67m2-2h-98.66v34.5h0.16c1.79 16.41 23.12 29.37 49.19 29.37s47.41-12.96 49.19-29.37h0.11v-1.65c0.01-0.19 0.02-0.39 0.02-0.58 0-0.2-0.02-0.39-0.02-0.58v-31.69h0.01z" />
  </g>
  <radialGradient
     gradientUnits="userSpaceOnUse"
     gradientTransform="matrix(1 0 0 .5577 0 30.762)"
     r="59.663"
     cy="69.544"
     cx="64.38"
     id="h">
    <stop
       id="stop19"
       offset=".0506"
       stop-color="#FFE0B2" />
    <stop
       id="stop21"
       offset=".3205"
       stop-color="#FFDFAF" />
    <stop
       id="stop23"
       offset=".5246"
       stop-color="#FFDCA7" />
    <stop
       id="stop25"
       offset=".707"
       stop-color="#FFD69A" />
    <stop
       id="stop27"
       offset=".8758"
       stop-color="#FFCF87" />
    <stop
       id="stop29"
       offset=".927"
       stop-color="#FECC81" />
  </radialGradient>
  <path
     id="path32"
     fill="url(#h)"
     d="m115.42 57.03h-102.92v15.15 0.02 0.02 7.15s2.91 12.65 11.02 10.95c10.5-2.21 9.25 11.67 21.91 13.48 14.73 2.1 13.43-8.01 28.52-1.43 15.68 6.84 18.97-11.14 28.52-9.12 14.83 3.14 12.96-13.87 12.96-13.87v-22.35z" />
  <radialGradient
     gradientUnits="userSpaceOnUse"
     gradientTransform="matrix(1 0 0 .5755 0 24.135)"
     r="55.041"
     cy="56.85"
     cx="64.532"
     id="g">
    <stop
       id="stop34"
       offset=".3445"
       stop-color="#FFF3E1" />
    <stop
       id="stop36"
       offset=".554"
       stop-color="#FFF2DE" />
    <stop
       id="stop38"
       offset=".7124"
       stop-color="#FFEFD6" />
    <stop
       id="stop40"
       offset=".854"
       stop-color="#FFE9C8" />
    <stop
       id="stop42"
       offset=".9851"
       stop-color="#FFE1B4" />
    <stop
       id="stop44"
       offset="1"
       stop-color="#FFE0B2" />
  </radialGradient>
  <ellipse
     id="ellipse47"
     fill="url(#g)"
     ry="31.51"
     rx="51.46"
     cy="58.28"
     cx="63.96" />
  <g
     id="g51"
     opacity=".2">
    <path
       id="path49"
       fill="#434343"
       d="m63.96 28.77c13.04 0 25.36 3.03 34.69 8.55 9.02 5.33 14.25 12.37 14.72 19.85 0.01 0.11 0.02 0.22 0.05 0.33v21.89c0 0.07 0 0.15 0.01 0.22 0.2 1.81 0.16 7.14-2.4 9.99-1.24 1.38-2.93 2.05-5.17 2.05-0.91 0-1.92-0.12-3-0.34-0.63-0.13-1.27-0.2-1.9-0.2-4 0-6.98 2.7-9.86 5.31-3.14 2.84-6.1 5.53-10.47 5.53-1.79 0-3.78-0.47-5.9-1.39-3.79-1.65-6.84-2.42-9.61-2.42-3.1 0-5.33 0.99-7.49 1.94-2.37 1.05-4.61 2.04-8.34 2.04-1.11 0-2.32-0.09-3.59-0.27-5.4-0.77-7.89-4.08-10.3-7.28-2.4-3.17-4.87-6.46-9.76-6.46-0.8 0-1.66 0.09-2.54 0.28-0.36 0.08-0.72 0.12-1.06 0.12-4.8 0-7.18-8-7.54-9.36v-6.9-0.02-0.02-13.91-0.03-0.02-0.77c0.02-0.1 0.04-0.21 0.05-0.32 0.47-7.47 5.7-14.52 14.72-19.85 9.33-5.51 21.65-8.54 34.69-8.54m0-2c-27.74 0-50.34 13.44-51.41 30.26h-0.05v1.22 0.03 0.03 13.89 0.02s0 0.02 0 0.02v7.15s2.55 11.11 9.54 11.11c0.47 0 0.96-0.05 1.47-0.16 0.77-0.16 1.48-0.24 2.13-0.24 8.26 0 8.05 12.04 19.78 13.71 1.43 0.2 2.72 0.29 3.88 0.29 7.75 0 10.06-3.98 15.83-3.98 2.24 0 5 0.6 8.81 2.26 2.53 1.1 4.74 1.56 6.7 1.56 9.55 0 13.32-10.84 20.33-10.85 0.48 0 0.97 0.05 1.49 0.16 1.25 0.26 2.38 0.39 3.41 0.39 11.12 0 9.55-14.26 9.55-14.26v-22.35h-0.05c-1.07-16.82-23.67-30.26-51.41-30.26z" />
  </g>
  <radialGradient
     gradientUnits="userSpaceOnUse"
     r="7.1211"
     cy="35.313"
     cx="75.894"
     id="f">
    <stop
       id="stop53"
       offset="0"
       stop-color="#EF5451" />
    <stop
       id="stop55"
       offset=".7844"
       stop-color="#E53A35" />
    <stop
       id="stop57"
       offset="1"
       stop-color="#C62828" />
  </radialGradient>
  <path
     id="path60"
     fill="url(#f)"
     d="m85.56 37.93c0 4.23-3.43 5.37-7.65 5.37s-7.65-1.14-7.65-5.37 3.43-7.65 7.65-7.65 7.65 3.43 7.65 7.65z" />
  <radialGradient
     gradientUnits="userSpaceOnUse"
     r="7.1211"
     cy="35.313"
     cx="48.086"
     id="e">
    <stop
       id="stop62"
       offset="0"
       stop-color="#EF5451" />
    <stop
       id="stop64"
       offset=".7844"
       stop-color="#E53A35" />
    <stop
       id="stop66"
       offset="1"
       stop-color="#C62828" />
  </radialGradient>
  <path
     id="path69"
     fill="url(#e)"
     d="m57.75 37.93c0 4.23-3.43 5.37-7.65 5.37s-7.65-1.14-7.65-5.37 3.43-7.65 7.65-7.65 7.65 3.43 7.65 7.65z" />
  <rect
     id="rect71"
     fill="#44B3E6"
     height="23.32"
     width="12.22"
     y="30.08"
     x="57.67" />
  <ellipse
     id="ellipse73"
     fill="#84D2F6"
     ry="3.77"
     rx="6.16"
     cy="30.59"
     cx="63.78" />
  <ellipse
     id="ellipse75"
     fill="#44B3E6"
     ry="3.77"
     rx="6.16"
     cy="52.81"
     cx="63.78" />
  <g
     id="g79"
     opacity=".2">
    <path
       id="path77"
       fill="#434343"
       d="m63.78 27.82c2.85 0 4.83 1.26 5.1 2.48 0 0.01 0.01 0.03 0.01 0.04 0 0.02 0 0.05 0.01 0.07 0.01 0.05 0.02 0.11 0.03 0.18l-0.03 0.18c-0.01 0.04-0.01 0.09-0.01 0.14v21.59c0 0.05 0 0.09 0.01 0.14s0.02 0.11 0.03 0.18l-0.03 0.18c-0.01 0.04-0.01 0.07-0.01 0.11-0.01 0.02-0.01 0.03-0.01 0.05-0.31 1.2-2.3 2.43-5.09 2.43-2.8 0-4.79-1.24-5.1-2.43 0-0.02-0.01-0.03-0.01-0.05 0-0.04 0-0.08-0.01-0.11-0.01-0.05-0.02-0.11-0.03-0.18l0.03-0.18c0.01-0.04 0.01-0.09 0.01-0.14v-21.6c0-0.05 0-0.09-0.01-0.14s-0.02-0.11-0.03-0.18l0.03-0.18c0-0.02 0.01-0.05 0.01-0.07 0-0.01 0.01-0.03 0.01-0.04 0.27-1.21 2.25-2.47 5.09-2.47m0-1c-3.12 0-5.66 1.42-6.08 3.26h-0.03v0.2c-0.01 0.11-0.05 0.21-0.05 0.31 0 0.11 0.04 0.21 0.05 0.31v21.59c-0.01 0.11-0.05 0.21-0.05 0.31 0 0.11 0.04 0.21 0.05 0.31v0.28h0.05c0.46 1.8 2.99 3.18 6.06 3.18s5.6-1.38 6.06-3.18h0.05v-0.28c0.01-0.1 0.05-0.21 0.05-0.31 0-0.11-0.04-0.21-0.05-0.31v-21.59c0.01-0.1 0.05-0.21 0.05-0.31 0-0.11-0.04-0.21-0.05-0.31v-0.2h-0.03c-0.41-1.84-2.96-3.26-6.08-3.26z" />
  </g>
  <radialGradient
     gradientUnits="userSpaceOnUse"
     gradientTransform="matrix(1.0449 0 0 1.7881 1.1154 -19.416)"
     r="11.678"
     cy="25.662"
     cx="60.617"
     id="d">
    <stop
       id="stop81"
       offset=".2358"
       stop-color="#F78F1E" />
    <stop
       id="stop83"
       offset=".4942"
       stop-color="#FCB316" />
    <stop
       id="stop85"
       offset=".7611"
       stop-color="#FFD740" />
  </radialGradient>
  <path
     id="path88"
     fill="url(#d)"
     d="m71.9 20.55c0 7.39-4.53 10.23-7.9 10.23-3.36 0-7.9-2.84-7.9-10.23s4.54-16.55 7.9-16.55 7.9 9.15 7.9 16.55z" />
  <radialGradient
     gradientUnits="userSpaceOnUse"
     r="7.1211"
     cy="68.364"
     cx="45.375"
     id="c">
    <stop
       id="stop90"
       offset="0"
       stop-color="#EF5451" />
    <stop
       id="stop92"
       offset=".7844"
       stop-color="#E53A35" />
    <stop
       id="stop94"
       offset="1"
       stop-color="#C62828" />
  </radialGradient>
  <path
     id="path97"
     fill="url(#c)"
     d="m55.04 70.98c0 4.23-3.43 5.37-7.65 5.37s-7.65-1.14-7.65-5.37 3.43-7.65 7.65-7.65 7.65 3.43 7.65 7.65z" />
  <radialGradient
     gradientUnits="userSpaceOnUse"
     r="7.1211"
     cy="53.295"
     cx="27.889"
     id="b">
    <stop
       id="stop99"
       offset="0"
       stop-color="#EF5451" />
    <stop
       id="stop101"
       offset=".7844"
       stop-color="#E53A35" />
    <stop
       id="stop103"
       offset="1"
       stop-color="#C62828" />
  </radialGradient>
  <path
     id="path106"
     fill="url(#b)"
     d="m37.55 55.92c0 4.23-3.43 5.37-7.65 5.37s-7.65-1.14-7.65-5.37 3.43-7.65 7.65-7.65 7.65 3.42 7.65 7.65z" />
  <radialGradient
     gradientUnits="userSpaceOnUse"
     r="7.1211"
     cy="54.415"
     cx="97.692"
     id="a">
    <stop
       id="stop108"
       offset="0"
       stop-color="#EF5451" />
    <stop
       id="stop110"
       offset=".7844"
       stop-color="#E53A35" />
    <stop
       id="stop112"
       offset="1"
       stop-color="#C62828" />
  </radialGradient>
  <path
     id="path115"
     fill="url(#a)"
     d="m107.35 57.04c0 4.23-3.43 5.37-7.65 5.37-4.23 0-7.65-1.14-7.65-5.37s3.43-7.65 7.65-7.65c4.23-0.01 7.65 3.42 7.65 7.65z" />
  <rect
     id="rect117"
     fill="#44B3E6"
     height="23.32"
     width="12.22"
     y="39"
     x="32.62" />
  <ellipse
     id="ellipse119"
     fill="#84D2F6"
     ry="3.77"
     rx="6.16"
     cy="39.51"
     cx="38.73" />
  <ellipse
     id="ellipse121"
     fill="#44B3E6"
     ry="3.77"
     rx="6.16"
     cy="61.73"
     cx="38.73" />
  <g
     id="g125"
     opacity=".2">
    <path
       id="path123"
       fill="#434343"
       d="m38.73 36.74c2.85 0 4.83 1.26 5.1 2.48 0 0.01 0.01 0.03 0.01 0.04 0 0.02 0 0.05 0.01 0.07 0.01 0.05 0.02 0.11 0.03 0.18l-0.03 0.18c-0.01 0.04-0.01 0.09-0.01 0.14v21.59c0 0.05 0 0.09 0.01 0.14s0.02 0.11 0.03 0.18l-0.03 0.18c-0.01 0.04-0.01 0.07-0.01 0.11-0.01 0.02-0.01 0.03-0.01 0.05-0.31 1.2-2.3 2.43-5.09 2.43-2.8 0-4.79-1.24-5.1-2.43 0-0.02-0.01-0.03-0.01-0.05 0-0.04 0-0.08-0.01-0.11-0.01-0.05-0.02-0.11-0.03-0.18l0.03-0.18c0.01-0.04 0.01-0.09 0.01-0.14v-21.6c0-0.05 0-0.09-0.01-0.14s-0.02-0.11-0.03-0.18l0.03-0.18c0-0.02 0.01-0.05 0.01-0.07 0-0.01 0.01-0.03 0.01-0.04 0.26-1.21 2.24-2.47 5.09-2.47m0-1c-3.12 0-5.66 1.42-6.08 3.26h-0.03v0.2c-0.01 0.11-0.05 0.21-0.05 0.31 0 0.11 0.04 0.21 0.05 0.31v21.59c-0.01 0.11-0.05 0.21-0.05 0.31s0.04 0.21 0.05 0.31v0.28h0.05c0.46 1.8 2.99 3.18 6.06 3.18s5.6-1.38 6.06-3.18h0.05v-0.28c0.01-0.1 0.05-0.21 0.05-0.31 0-0.11-0.04-0.21-0.05-0.31v-21.59c0.01-0.1 0.05-0.21 0.05-0.31 0-0.11-0.04-0.21-0.05-0.31v-0.2h-0.04c-0.41-1.84-2.96-3.26-6.07-3.26z" />
  </g>
  <radialGradient
     gradientUnits="userSpaceOnUse"
     gradientTransform="matrix(1.0449 0 0 1.7881 1.1154 -27.908)"
     r="11.678"
     cy="35.352"
     cx="36.147"
     id="l">
    <stop
       id="stop127"
       offset=".2358"
       stop-color="#F78F1E" />
    <stop
       id="stop129"
       offset=".4942"
       stop-color="#FCB316" />
    <stop
       id="stop131"
       offset=".7611"
       stop-color="#FFD740" />
  </radialGradient>
  <path
     id="path134"
     fill="url(#l)"
     d="m46.84 29.47c0 7.39-4.53 10.23-7.9 10.23s-7.9-2.84-7.9-10.23 4.53-16.55 7.9-16.55 7.9 9.15 7.9 16.55z" />
  <rect
     id="rect136"
     fill="#44B3E6"
     height="23.32"
     width="12.22"
     y="39"
     x="82.87" />
  <ellipse
     id="ellipse138"
     fill="#84D2F6"
     ry="3.77"
     rx="6.16"
     cy="39.51"
     cx="88.98" />
  <ellipse
     id="ellipse140"
     fill="#44B3E6"
     ry="3.77"
     rx="6.16"
     cy="61.73"
     cx="88.98" />
  <g
     id="g144"
     opacity=".2">
    <path
       id="path142"
       fill="#434343"
       d="m88.98 36.74c2.85 0 4.83 1.26 5.1 2.48 0 0.01 0.01 0.03 0.01 0.04 0 0.02 0 0.05 0.01 0.07 0.01 0.05 0.02 0.11 0.03 0.18l-0.03 0.18c-0.01 0.04-0.01 0.09-0.01 0.14v21.59c0 0.05 0 0.09 0.01 0.14s0.02 0.11 0.03 0.18l-0.03 0.18c-0.01 0.04-0.01 0.07-0.01 0.11-0.01 0.02-0.01 0.03-0.01 0.05-0.31 1.2-2.3 2.43-5.09 2.43-2.8 0-4.79-1.24-5.1-2.43 0-0.02-0.01-0.03-0.01-0.05 0-0.04 0-0.08-0.01-0.11-0.01-0.05-0.02-0.11-0.03-0.18l0.03-0.18c0.01-0.04 0.01-0.09 0.01-0.14v-21.6c0-0.05 0-0.09-0.01-0.14s-0.02-0.11-0.03-0.18l0.03-0.18c0-0.02 0.01-0.05 0.01-0.07 0-0.01 0.01-0.03 0.01-0.04 0.26-1.21 2.24-2.47 5.09-2.47m0-1c-3.12 0-5.66 1.42-6.08 3.26h-0.03v0.2c-0.01 0.11-0.05 0.21-0.05 0.31 0 0.11 0.04 0.21 0.05 0.31v21.59c-0.01 0.11-0.05 0.21-0.05 0.31s0.04 0.21 0.05 0.31v0.28h0.05c0.46 1.8 2.99 3.18 6.06 3.18s5.6-1.38 6.06-3.18h0.05v-0.28c0.01-0.1 0.05-0.21 0.05-0.31 0-0.11-0.04-0.21-0.05-0.31v-21.59c0.01-0.1 0.05-0.21 0.05-0.31 0-0.11-0.04-0.21-0.05-0.31v-0.2h-0.03c-0.42-1.84-2.97-3.26-6.08-3.26z" />
  </g>
  <radialGradient
     gradientUnits="userSpaceOnUse"
     gradientTransform="matrix(1.0449 0 0 1.7881 1.1154 -27.99)"
     r="11.678"
     cy="35.446"
     cx="84.729"
     id="k">
    <stop
       id="stop146"
       offset=".2358"
       stop-color="#F78F1E" />
    <stop
       id="stop148"
       offset=".4942"
       stop-color="#FCB316" />
    <stop
       id="stop150"
       offset=".7611"
       stop-color="#FFD740" />
  </radialGradient>
  <path
     id="path153"
     fill="url(#k)"
     d="m97.09 29.47c0 7.39-4.53 10.23-7.9 10.23-3.36 0-7.9-2.84-7.9-10.23s4.53-16.55 7.9-16.55 7.9 9.15 7.9 16.55z" />
  <radialGradient
     gradientUnits="userSpaceOnUse"
     r="7.1211"
     cy="67.916"
     cx="79.652"
     id="j">
    <stop
       id="stop155"
       offset="0"
       stop-color="#EF5451" />
    <stop
       id="stop157"
       offset=".7844"
       stop-color="#E53A35" />
    <stop
       id="stop159"
       offset="1"
       stop-color="#C62828" />
  </radialGradient>
  <path
     id="path162"
     fill="url(#j)"
     d="m89.31 70.54c0 4.23-3.43 5.37-7.65 5.37-4.23 0-7.65-1.14-7.65-5.37s3.43-7.65 7.65-7.65c4.23-0.01 7.65 3.42 7.65 7.65z" />
</svg>
