<?xml version="1.0" encoding="UTF-8" standalone="no"?>
<svg
   xmlns:dc="http://purl.org/dc/elements/1.1/"
   xmlns:cc="http://creativecommons.org/ns#"
   xmlns:rdf="http://www.w3.org/1999/02/22-rdf-syntax-ns#"
   xmlns:svg="http://www.w3.org/2000/svg"
   xmlns="http://www.w3.org/2000/svg"
   xmlns:xlink="http://www.w3.org/1999/xlink"
   id="svg210"
   version="1.1"
   viewBox="0 0 128 128"
   enable-background="new 0 0 128 128">
  <metadata
     id="metadata214">
    <rdf:RDF>
      <cc:Work
         rdf:about="">
        <dc:format>image/svg+xml</dc:format>
        <dc:type
           rdf:resource="http://purl.org/dc/dcmitype/StillImage" />
      </cc:Work>
    </rdf:RDF>
  </metadata>
  <path
     id="path2"
     fill="#9E9E9E"
     d="m15.66 124c-2.98 0-4.76-1.45-5.83-3.11-1.91-3-1.38-7.1 1.26-9.75l5.64-5.65 2.12 2.12-5.64 5.65c-1.66 1.66-2.01 4.18-0.85 6.01 2.28 3.58 8.13 0.9 12.63-1.97 6.38-4.07 11.28-5.16 14.55-3.23 2.94 1.73 3.6 6.01 3.73 8.35 0.05 0.86-0.64 1.58-1.5 1.58-0.79 0-1.45-0.61-1.5-1.41-0.1-1.84-0.54-4.94-2.26-5.94-1.53-0.9-4.75-1.07-11.41 3.18-4.78 3.06-8.32 4.17-10.94 4.17z" />
  <path
     id="path4"
     fill="#757575"
     d="m12.7 110.81c-1.56-1.56-1.56-4.1 0-5.66l4.24-7.08 8.49 8.5-7.07 4.25c-1.57 1.56-4.1 1.56-5.66-0.01z" />
  <g
     id="g8"
     opacity=".2">
    <path
       id="path6"
       fill="#eee"
       d="m17.54 102.91 3.06 3.06-3.78 2.27-0.32 0.19-0.26 0.26c-0.23 0.23-0.5 0.28-0.69 0.28-0.08 0-0.16-0.01-0.24-0.03l-0.4-0.09-0.22-0.35c-0.2-0.33-0.25-0.86 0.14-1.24l0.26-0.26 0.19-0.32 2.26-3.77m-0.6-4.84-4.24 7.08c-1.34 1.34-1.52 3.4-0.56 4.95l-1.04 1.05c-2.64 2.65-3.17 6.74-1.26 9.75 1.06 1.67 2.84 3.11 5.83 3.11 2.62 0 6.16-1.11 10.95-4.17 4.44-2.83 7.35-3.7 9.25-3.7 0.95 0 1.65 0.22 2.16 0.52 1.72 1.01 2.16 4.11 2.26 5.94 0.04 0.79 0.71 1.41 1.5 1.41 0.86 0 1.55-0.72 1.5-1.58-0.13-2.34-0.79-6.62-3.73-8.35-1.05-0.62-2.26-0.92-3.64-0.92-2.92 0-6.57 1.39-10.91 4.16-2.96 1.89-6.5 3.69-9.22 3.69-1.42 0-2.62-0.49-3.41-1.72-1.16-1.82-0.8-4.35 0.85-6.01l1.4-1.4c0.31 0.07 0.62 0.11 0.93 0.11 1.02 0 2.04-0.38 2.81-1.16l7.07-4.25-8.5-8.51z" />
  </g>
  <radialGradient
     gradientUnits="userSpaceOnUse"
     gradientTransform="matrix(1 0 0 1.0013 0 -.0852)"
     r="70.217"
     cy="35.587"
     cx="53.976"
     id="d">
    <stop
       id="stop10"
       offset="0"
       stop-color="#40C4FF" />
    <stop
       id="stop12"
       offset=".2233"
       stop-color="#3ABFFD" />
    <stop
       id="stop14"
       offset=".5256"
       stop-color="#29B1F7" />
    <stop
       id="stop16"
       offset=".8716"
       stop-color="#0C9BEE" />
    <stop
       id="stop18"
       offset="1"
       stop-color="#0091EA" />
  </radialGradient>
  <path
     id="path21"
     fill="url(#d)"
     d="m65.93 41.52-50.4 55.13c-1.56 1.56-0.3 5.37 2.83 8.5s6.92 4.4 8.49 2.83l55.05-50.47c-3.58-1.25-6.94-3.31-9.81-6.17-2.86-2.87-4.91-6.24-6.16-9.82z" />
  <path
     id="path23"
     fill="#0091EA"
     d="m74.92 31.51-8.99 10.01c1.25 3.59 3.3 6.95 6.16 9.82s6.22 4.92 9.81 6.17l9.99-9.01-16.97-16.99z" />
  <path
     id="path25"
     fill="#0091EA"
     d="m57.25 69.71c-0.94 0-1.82-0.36-2.47-1.02-1.36-1.37-1.36-3.59 0-4.96l4.24-4.25c0.66-0.66 1.54-1.02 2.48-1.02s1.82 0.36 2.47 1.02c1.36 1.37 1.36 3.59 0 4.96l-4.24 4.25c-0.67 0.65-1.55 1.02-2.48 1.02z" />
  <g
     id="g29"
     opacity=".2">
    <path
       id="path27"
       fill="#eee"
       d="m61.49 58.45c0.94 0 1.82 0.36 2.47 1.02 1.36 1.37 1.36 3.59 0 4.96l-4.24 4.25c-0.66 0.66-1.54 1.02-2.48 1.02s-1.82-0.36-2.47-1.02c-1.36-1.37-1.36-3.59 0-4.96l4.24-4.25c0.66-0.65 1.54-1.02 2.48-1.02m0-2c-1.47 0-2.85 0.57-3.89 1.61l-4.24 4.25c-2.14 2.15-2.14 5.64 0 7.78 1.04 1.04 2.42 1.61 3.89 1.61s2.85-0.57 3.89-1.61l4.24-4.25c2.14-2.15 2.14-5.64 0-7.78-1.04-1.04-2.42-1.61-3.89-1.61z" />
  </g>
  <g
     id="g33"
     opacity=".2">
    <path
       id="path31"
       fill="#424242"
       d="m75.04 35.87 12.5 12.52-7.67 6.91-54.93 50.35c-0.78-0.02-2.58-0.73-4.47-2.62-2.04-2.04-2.61-3.87-2.62-4.48l50.31-55.03 6.88-7.65m-0.12-4.36-8.99 10.01-50.4 55.13c-1.56 1.56-0.3 5.37 2.83 8.5 2.22 2.22 4.77 3.5 6.63 3.5 0.76 0 1.4-0.22 1.86-0.67l55.05-50.47 9.99-9.01-16.97-16.99z" />
  </g>
  <radialGradient
     gradientUnits="userSpaceOnUse"
     gradientTransform="matrix(1 0 0 1.0013 0 -.0852)"
     r="51.366"
     cy="5.9204"
     cx="93.642"
     id="c">
    <stop
       id="stop35"
       offset="0"
       stop-color="#757575" />
    <stop
       id="stop37"
       offset=".2223"
       stop-color="#6F6F6F" />
    <stop
       id="stop39"
       offset=".5051"
       stop-color="#606060" />
    <stop
       id="stop41"
       offset=".8196"
       stop-color="#464646" />
    <stop
       id="stop43"
       offset=".8589"
       stop-color="#424242" />
    <stop
       id="stop45"
       offset="1"
       stop-color="#424242" />
  </radialGradient>
  <ellipse
     id="ellipse48"
     fill="url(#c)"
     ry="26.03"
     rx="26"
     cy="30.09"
     cx="93.31" />
  <defs
     id="defs51">
    <ellipse
       ry="26.03"
       rx="26"
       cy="30.03"
       cx="93.3"
       id="b" />
  </defs>
  <clipPath
     id="a">
    <use
       id="use53"
       xlink:href="#b" />
  </clipPath>
  <g
     id="g200"
     fill="#9E9E9E"
     clip-path="url(#a)">
    <ellipse
       id="ellipse56"
       opacity=".2"
       ry="2"
       rx="2"
       cy="-11.86"
       cx="97.54" />
    <ellipse
       id="ellipse58"
       opacity=".2"
       ry="2"
       rx="2"
       cy="-6.2"
       cx="91.88" />
    <ellipse
       id="ellipse60"
       opacity=".2"
       ry="2"
       rx="2"
       cy="-.53"
       cx="86.23" />
    <ellipse
       id="ellipse62"
       opacity=".2"
       ry="2"
       rx="2"
       cy="5.13"
       cx="80.57" />
    <ellipse
       id="ellipse64"
       opacity=".2"
       ry="2"
       rx="2"
       cy="10.8"
       cx="74.91" />
    <ellipse
       id="ellipse66"
       opacity=".2"
       ry="2"
       rx="2"
       cy="16.46"
       cx="69.25" />
    <ellipse
       id="ellipse68"
       opacity=".2"
       ry="2"
       rx="2"
       cy="22.12"
       cx="63.6" />
    <ellipse
       id="ellipse70"
       opacity=".2"
       ry="2"
       rx="2"
       cy="27.79"
       cx="57.94" />
    <ellipse
       id="ellipse72"
       opacity=".2"
       ry="2"
       rx="2"
       cy="33.45"
       cx="52.28" />
    <ellipse
       id="ellipse74"
       opacity=".2"
       ry="2"
       rx="2"
       cy="-3.37"
       cx="100.37" />
    <ellipse
       id="ellipse76"
       opacity=".2"
       ry="2"
       rx="2"
       cy="2.3"
       cx="94.71" />
    <ellipse
       id="ellipse78"
       opacity=".2"
       ry="2"
       rx="2"
       cy="7.96"
       cx="89.05" />
    <ellipse
       id="ellipse80"
       opacity=".2"
       ry="2"
       rx="2"
       cy="13.63"
       cx="83.4" />
    <ellipse
       id="ellipse82"
       opacity=".2"
       ry="2"
       rx="2"
       cy="19.29"
       cx="77.74" />
    <ellipse
       id="ellipse84"
       opacity=".2"
       ry="2"
       rx="2"
       cy="24.96"
       cx="72.08" />
    <ellipse
       id="ellipse86"
       opacity=".2"
       ry="2"
       rx="2"
       cy="30.62"
       cx="66.43" />
    <ellipse
       id="ellipse88"
       opacity=".2"
       ry="2"
       rx="2"
       cy="36.29"
       cx="60.77" />
    <ellipse
       id="ellipse90"
       opacity=".2"
       ry="2"
       rx="2"
       cy="41.95"
       cx="55.11" />
    <ellipse
       id="ellipse92"
       opacity=".2"
       ry="2"
       rx="2"
       cy="-.53"
       cx="108.85" />
    <ellipse
       id="ellipse94"
       opacity=".2"
       ry="2"
       rx="2"
       cy="5.13"
       cx="103.2" />
    <ellipse
       id="ellipse96"
       opacity=".2"
       ry="2"
       rx="2"
       cy="10.8"
       cx="97.54" />
    <ellipse
       id="ellipse98"
       opacity=".2"
       ry="2"
       rx="2"
       cy="16.46"
       cx="91.88" />
    <ellipse
       id="ellipse100"
       opacity=".2"
       ry="2"
       rx="2"
       cy="22.12"
       cx="86.23" />
    <ellipse
       id="ellipse102"
       opacity=".2"
       ry="2"
       rx="2"
       cy="27.79"
       cx="80.57" />
    <ellipse
       id="ellipse104"
       opacity=".2"
       ry="2"
       rx="2"
       cy="33.45"
       cx="74.91" />
    <ellipse
       id="ellipse106"
       opacity=".2"
       ry="2"
       rx="2"
       cy="39.12"
       cx="69.25" />
    <ellipse
       id="ellipse108"
       opacity=".2"
       ry="2"
       rx="2"
       cy="44.78"
       cx="63.6" />
    <ellipse
       id="ellipse110"
       opacity=".2"
       ry="2"
       rx="2"
       cy="7.96"
       cx="111.68" />
    <ellipse
       id="ellipse112"
       opacity=".2"
       ry="2"
       rx="2"
       cy="13.63"
       cx="106.02" />
    <ellipse
       id="ellipse114"
       opacity=".2"
       ry="2"
       rx="2"
       cy="19.29"
       cx="100.37" />
    <ellipse
       id="ellipse116"
       opacity=".2"
       ry="2"
       rx="2"
       cy="24.96"
       cx="94.71" />
    <ellipse
       id="ellipse118"
       opacity=".2"
       ry="2"
       rx="2"
       cy="30.62"
       cx="89.05" />
    <ellipse
       id="ellipse120"
       opacity=".2"
       ry="2"
       rx="2"
       cy="36.29"
       cx="83.4" />
    <ellipse
       id="ellipse122"
       opacity=".2"
       ry="2"
       rx="2"
       cy="41.95"
       cx="77.74" />
    <ellipse
       id="ellipse124"
       opacity=".2"
       ry="2"
       rx="2"
       cy="47.61"
       cx="72.08" />
    <ellipse
       id="ellipse126"
       opacity=".2"
       ry="2"
       rx="2"
       cy="53.28"
       cx="66.43" />
    <ellipse
       id="ellipse128"
       opacity=".2"
       ry="2"
       rx="2"
       cy="10.8"
       cx="120.17" />
    <ellipse
       id="ellipse130"
       opacity=".2"
       ry="2"
       rx="2"
       cy="16.46"
       cx="114.51" />
    <ellipse
       id="ellipse132"
       opacity=".2"
       ry="2"
       rx="2"
       cy="22.12"
       cx="108.85" />
    <ellipse
       id="ellipse134"
       opacity=".2"
       ry="2"
       rx="2"
       cy="27.79"
       cx="103.2" />
    <ellipse
       id="ellipse136"
       opacity=".2"
       ry="2"
       rx="2"
       cy="33.45"
       cx="97.54" />
    <ellipse
       id="ellipse138"
       opacity=".2"
       ry="2"
       rx="2"
       cy="39.12"
       cx="91.88" />
    <ellipse
       id="ellipse140"
       opacity=".2"
       ry="2"
       rx="2"
       cy="44.78"
       cx="86.23" />
    <ellipse
       id="ellipse142"
       opacity=".2"
       ry="2"
       rx="2"
       cy="50.45"
       cx="80.57" />
    <ellipse
       id="ellipse144"
       opacity=".2"
       ry="2"
       rx="2"
       cy="56.11"
       cx="74.91" />
    <ellipse
       id="ellipse146"
       opacity=".2"
       ry="2"
       rx="2"
       cy="19.29"
       cx="123" />
    <ellipse
       id="ellipse148"
       opacity=".2"
       ry="2"
       rx="2"
       cy="24.96"
       cx="117.34" />
    <ellipse
       id="ellipse150"
       opacity=".2"
       ry="2"
       rx="2"
       cy="30.62"
       cx="111.68" />
    <ellipse
       id="ellipse152"
       opacity=".2"
       ry="2"
       rx="2"
       cy="36.29"
       cx="106.02" />
    <ellipse
       id="ellipse154"
       opacity=".2"
       ry="2"
       rx="2"
       cy="41.95"
       cx="100.37" />
    <ellipse
       id="ellipse156"
       opacity=".2"
       ry="2"
       rx="2"
       cy="47.61"
       cx="94.71" />
    <ellipse
       id="ellipse158"
       opacity=".2"
       ry="2"
       rx="2"
       cy="53.28"
       cx="89.05" />
    <ellipse
       id="ellipse160"
       opacity=".2"
       ry="2"
       rx="2"
       cy="58.94"
       cx="83.4" />
    <ellipse
       id="ellipse162"
       opacity=".2"
       ry="2"
       rx="2"
       cy="64.61"
       cx="77.74" />
    <ellipse
       id="ellipse164"
       opacity=".2"
       ry="2"
       rx="2"
       cy="22.12"
       cx="131.48" />
    <ellipse
       id="ellipse166"
       opacity=".2"
       ry="2"
       rx="2"
       cy="27.79"
       cx="125.82" />
    <ellipse
       id="ellipse168"
       opacity=".2"
       ry="2"
       rx="2"
       cy="33.45"
       cx="120.17" />
    <ellipse
       id="ellipse170"
       opacity=".2"
       ry="2"
       rx="2"
       cy="39.12"
       cx="114.51" />
    <ellipse
       id="ellipse172"
       opacity=".2"
       ry="2"
       rx="2"
       cy="44.78"
       cx="108.85" />
    <ellipse
       id="ellipse174"
       opacity=".2"
       ry="2"
       rx="2"
       cy="50.45"
       cx="103.2" />
    <ellipse
       id="ellipse176"
       opacity=".2"
       ry="2"
       rx="2"
       cy="56.11"
       cx="97.54" />
    <ellipse
       id="ellipse178"
       opacity=".2"
       ry="2"
       rx="2"
       cy="61.78"
       cx="91.88" />
    <ellipse
       id="ellipse180"
       opacity=".2"
       ry="2"
       rx="2"
       cy="67.44"
       cx="86.23" />
    <ellipse
       id="ellipse182"
       opacity=".2"
       ry="2"
       rx="2"
       cy="30.62"
       cx="134.31" />
    <ellipse
       id="ellipse184"
       opacity=".2"
       ry="2"
       rx="2"
       cy="36.29"
       cx="128.65" />
    <ellipse
       id="ellipse186"
       opacity=".2"
       ry="2"
       rx="2"
       cy="41.95"
       cx="123" />
    <ellipse
       id="ellipse188"
       opacity=".2"
       ry="2"
       rx="2"
       cy="47.61"
       cx="117.34" />
    <ellipse
       id="ellipse190"
       opacity=".2"
       ry="2"
       rx="2"
       cy="53.28"
       cx="111.68" />
    <ellipse
       id="ellipse192"
       opacity=".2"
       ry="2"
       rx="2"
       cy="58.94"
       cx="106.02" />
    <ellipse
       id="ellipse194"
       opacity=".2"
       ry="2"
       rx="2"
       cy="64.61"
       cx="100.37" />
    <ellipse
       id="ellipse196"
       opacity=".2"
       ry="2"
       rx="2"
       cy="70.27"
       cx="94.71" />
    <ellipse
       id="ellipse198"
       opacity=".2"
       ry="2"
       rx="2"
       cy="75.94"
       cx="89.05" />
  </g>
  <g
     id="g204"
     opacity=".2">
    <path
       id="path202"
       fill="#eee"
       d="m93.31 7.06c6.14 0 11.92 2.4 16.26 6.75 8.97 8.98 8.97 23.6 0 32.58-4.34 4.35-10.12 6.75-16.26 6.75s-11.92-2.4-16.26-6.75c-8.97-8.98-8.97-23.6 0-32.58 4.34-4.36 10.12-6.75 16.26-6.75m0-3c-6.65 0-13.31 2.54-18.38 7.63-10.15 10.17-10.15 26.65 0 36.82 5.08 5.08 11.73 7.63 18.38 7.63s13.31-2.54 18.38-7.63c10.15-10.17 10.15-26.65 0-36.82-5.07-5.09-11.73-7.63-18.38-7.63z" />
  </g>
  <path
     id="path206"
     fill="#BDBDBD"
     d="m107.93 51.1-35.6-35.65c-1.1-1.1-1.1-2.9 0-4.01l1.66-1.66c1.1-1.1 2.9-1.1 4 0l35.6 35.65c1.1 1.1 1.1 2.9 0 4.01l-1.66 1.66c-1.1 1.1-2.9 1.1-4 0z" />
  <path
     id="path208"
     fill="#E0E0E0"
     d="m110.63 50.98-38.18-38.23c-0.78-0.78-0.78-2.05 0-2.83s2.05-0.78 2.83 0l38.18 38.23c0.78 0.78 0.78 2.05 0 2.83s-2.05 0.78-2.83 0z" />
</svg>
