<?xml version="1.0" encoding="UTF-8" standalone="no"?>
<svg
   xmlns:dc="http://purl.org/dc/elements/1.1/"
   xmlns:cc="http://creativecommons.org/ns#"
   xmlns:rdf="http://www.w3.org/1999/02/22-rdf-syntax-ns#"
   xmlns:svg="http://www.w3.org/2000/svg"
   xmlns="http://www.w3.org/2000/svg"
   id="svg121"
   version="1.1"
   viewBox="0 0 128 128"
   enable-background="new 0 0 128 128">
  <metadata
     id="metadata127">
    <rdf:RDF>
      <cc:Work
         rdf:about="">
        <dc:format>image/svg+xml</dc:format>
        <dc:type
           rdf:resource="http://purl.org/dc/dcmitype/StillImage" />
      </cc:Work>
    </rdf:RDF>
  </metadata>
  <defs
     id="defs125" />
  <radialGradient
     gradientUnits="userSpaceOnUse"
     gradientTransform="matrix(1 0 0 -1 0 130)"
     r="12.849"
     cy="100.64"
     cx="52.44"
     id="i">
    <stop
       id="stop2"
       offset=".0875"
       stop-color="#D99914" />
    <stop
       id="stop4"
       offset=".4098"
       stop-color="#D59612" />
    <stop
       id="stop6"
       offset=".735"
       stop-color="#C98D0D" />
    <stop
       id="stop8"
       offset=".987"
       stop-color="#BA8207" />
  </radialGradient>
  <path
     id="path11"
     fill="url(#i)"
     d="m47.73 29.72 0.02 9.37c5.59 0.15 6.46-9.3-0.02-9.37z" />
  <linearGradient
     gradientUnits="userSpaceOnUse"
     gradientTransform="matrix(1 0 0 -1 0 130)"
     y2="21.966"
     y1="78.096"
     x2="64"
     x1="64"
     id="f">
    <stop
       id="stop13"
       offset=".0197"
       stop-color="#F7BC00" />
    <stop
       id="stop15"
       offset="1"
       stop-color="#FCD73E" />
  </linearGradient>
  <path
     id="path18"
     fill="url(#f)"
     d="m124 35.87s-0.19 35.19 0 49.06c0.05 4.06-2.3 7.8-6.51 8.68l-113.49 22.92v-52.56c0-0.16 120-28.1 120-28.1z" />
  <path
     id="path20"
     fill="#FFE959"
     d="M124,35.9c0,0-14.19-20.98-40.22-24.39C77.17,10.64,53.83,26.09,47.8,29.7c0,0,9.01,3.69,0.54,7.84 c-5.04,2.47-7.3-1.89-7.3-1.89L4.02,62.21l0,1.76C25.05,59.1,124,35.9,124,35.9z" />
  <g
     id="g24"
     opacity=".2">
    <path
       id="path22"
       fill="#606060"
       d="m83.2 14.72c0.09 0 0.14 0.01 0.16 0.01 21.69 2.85 34.61 18.5 37.39 22.22-0.03 6.07-0.17 35.53 0.01 48.03 0.03 2.14-0.98 4.85-3.91 5.46l-109.61 22.12v-48.22c0.01-0.12 0.02-0.25 0.02-0.37v-0.09l33.36-23.95c1.22 0.89 2.82 1.59 4.78 1.59 1.16 0 2.36-0.24 3.55-0.73 1.23-0.49 2.04-1.69 2.03-3.02l-0.01-6.22c0.69-0.43 1.48-0.92 2.38-1.48 6.74-4.2 24.63-15.36 29.85-15.35m0-3.25c-7.29 0-29.54 14.72-35.41 18.22 0 0 0.03 0.01 0.09 0.04-0.06 0-0.1-0.02-0.16-0.02l0.02 8.06c-0.87 0.35-1.65 0.49-2.35 0.49-2.99 0-4.36-2.63-4.36-2.63l-37.01 26.58v1.75l-0.02 0.01v52.55l113.49-22.92c4.2-0.88 6.56-4.62 6.51-8.68-0.19-13.72 0-48.3 0-49.02v-0.03s-0.02 0-0.02 0c-0.42-0.61-14.56-21-40.2-24.36-0.18-0.03-0.37-0.04-0.58-0.04zm40.8 24.4z" />
  </g>
  <radialGradient
     gradientUnits="userSpaceOnUse"
     r="14.631"
     cy="83.019"
     cx="113.64"
     id="e">
    <stop
       id="stop26"
       offset=".0813"
       stop-color="#DE7F14" />
    <stop
       id="stop28"
       offset=".3389"
       stop-color="#DA7D12" />
    <stop
       id="stop30"
       offset=".5993"
       stop-color="#CE760D" />
    <stop
       id="stop32"
       offset=".8602"
       stop-color="#BA6C05" />
    <stop
       id="stop34"
       offset=".987"
       stop-color="#AD6500" />
  </radialGradient>
  <path
     id="path37"
     opacity=".9"
     fill="url(#e)"
     enable-background="new"
     d="m108.03 68.6c4.65-0.42 8.42 2.85 8.42 7.32 0 4.46-3.77 8.41-8.42 8.83s-8.41-2.85-8.41-7.32c0.01-4.46 3.77-8.41 8.41-8.83z" />
  <radialGradient
     gradientUnits="userSpaceOnUse"
     r="11.845"
     cy="45.694"
     cx="89.314"
     id="h">
    <stop
       id="stop39"
       offset="0"
       stop-color="#DE7F14" />
    <stop
       id="stop41"
       offset=".3288"
       stop-color="#DB7E13" />
    <stop
       id="stop43"
       offset=".5269"
       stop-color="#D37911" />
    <stop
       id="stop45"
       offset=".6903"
       stop-color="#C5720D" />
    <stop
       id="stop47"
       offset=".8348"
       stop-color="#B06708" />
    <stop
       id="stop49"
       offset=".9657"
       stop-color="#975901" />
    <stop
       id="stop51"
       offset=".9891"
       stop-color="#915600" />
  </radialGradient>
  <path
     id="path54"
     fill="url(#h)"
     d="m99.31 41.64s-3.41-6.99-13.05-4.56-8.83 9.54-8.83 9.54 3.51 7.75 12.97 5.23c8.29-2.97 8.91-10.21 8.91-10.21z" />
  <radialGradient
     gradientUnits="userSpaceOnUse"
     gradientTransform="matrix(.8944 .0132 -.0148 .9999 3.9954 -.463)"
     r="7.6828"
     cy="58.198"
     cx="32.778"
     id="g">
    <stop
       id="stop56"
       offset="0"
       stop-color="#DE7F14" />
    <stop
       id="stop58"
       offset=".2654"
       stop-color="#DA7D13" />
    <stop
       id="stop60"
       offset=".5099"
       stop-color="#CF770F" />
    <stop
       id="stop62"
       offset=".7461"
       stop-color="#BD6D09" />
    <stop
       id="stop64"
       offset=".976"
       stop-color="#A26000" />
    <stop
       id="stop66"
       offset=".987"
       stop-color="#A15F00" />
  </radialGradient>
  <path
     id="path69"
     fill="url(#g)"
     d="m38.38 55.9s-1.94-4.64-7.65-3.12c-5.7 1.52-5.3 6.21-5.3 6.21s2.55 4.35 7.46 3.09 5.49-6.18 5.49-6.18z" />
  <radialGradient
     gradientUnits="userSpaceOnUse"
     gradientTransform="matrix(.723 .6909 .5657 -.592 -287.64 68.918)"
     r="8.5432"
     cy="353.29"
     cx="229.26"
     id="d">
    <stop
       id="stop71"
       offset=".0875"
       stop-color="#D99914" />
    <stop
       id="stop73"
       offset=".4098"
       stop-color="#D59612" />
    <stop
       id="stop75"
       offset=".735"
       stop-color="#C98D0D" />
    <stop
       id="stop77"
       offset=".987"
       stop-color="#BA8207" />
  </radialGradient>
  <path
     id="path80"
     fill="url(#d)"
     d="m81.21 19.22c3.03-0.27 5.47 1.24 5.47 3.37 0 2.14-2.44 4.1-5.47 4.37s-5.48-1.24-5.48-3.38 2.44-4.09 5.48-4.36z" />
  <radialGradient
     gradientUnits="userSpaceOnUse"
     r="26.321"
     cy="83.38"
     cx="77.251"
     id="c">
    <stop
       id="stop82"
       offset=".0813"
       stop-color="#DE7F14" />
    <stop
       id="stop84"
       offset=".3389"
       stop-color="#DA7D12" />
    <stop
       id="stop86"
       offset=".5993"
       stop-color="#CE760D" />
    <stop
       id="stop88"
       offset=".8602"
       stop-color="#BA6C05" />
    <stop
       id="stop90"
       offset=".987"
       stop-color="#AD6500" />
  </radialGradient>
  <path
     id="path93"
     opacity=".9"
     fill="url(#c)"
     enable-background="new"
     d="m66.86 60.84c7.92-0.71 14.33 4.87 14.33 12.46 0 7.6-6.42 14.33-14.33 15.06-7.92 0.71-14.33-4.86-14.33-12.46s6.42-14.35 14.33-15.06z" />
  <radialGradient
     gradientUnits="userSpaceOnUse"
     r="12.936"
     cy="97.791"
     cx="44.104"
     id="b">
    <stop
       id="stop95"
       offset=".0813"
       stop-color="#DE7F14" />
    <stop
       id="stop97"
       offset=".3389"
       stop-color="#DA7D12" />
    <stop
       id="stop99"
       offset=".5993"
       stop-color="#CE760D" />
    <stop
       id="stop101"
       offset=".8602"
       stop-color="#BA6C05" />
    <stop
       id="stop103"
       offset=".987"
       stop-color="#AD6500" />
  </radialGradient>
  <path
     id="path106"
     opacity=".9"
     fill="url(#b)"
     enable-background="new"
     d="m39.49 84.59c4.01-0.36 7.26 2.46 7.26 6.31s-3.25 7.26-7.26 7.62-7.26-2.46-7.26-6.31 3.25-7.26 7.26-7.62z" />
  <radialGradient
     gradientUnits="userSpaceOnUse"
     r="4.5957"
     cy="80.858"
     cx="20.37"
     id="a">
    <stop
       id="stop108"
       offset=".0813"
       stop-color="#DE7F14" />
    <stop
       id="stop110"
       offset=".3389"
       stop-color="#DA7D12" />
    <stop
       id="stop112"
       offset=".5993"
       stop-color="#CE760D" />
    <stop
       id="stop114"
       offset=".8602"
       stop-color="#BA6C05" />
    <stop
       id="stop116"
       offset=".987"
       stop-color="#AD6500" />
  </radialGradient>
  <path
     id="path119"
     opacity=".9"
     fill="url(#a)"
     enable-background="new"
     d="m18.12 74c2.14-0.19 3.89 1.32 3.89 3.38s-1.74 3.89-3.89 4.09c-2.15 0.19-3.89-1.32-3.89-3.38 0-2.05 1.74-3.89 3.89-4.09z" />
</svg>
