<?xml version="1.0" encoding="UTF-8" standalone="no"?>
<svg
   xmlns:dc="http://purl.org/dc/elements/1.1/"
   xmlns:cc="http://creativecommons.org/ns#"
   xmlns:rdf="http://www.w3.org/1999/02/22-rdf-syntax-ns#"
   xmlns:svg="http://www.w3.org/2000/svg"
   xmlns="http://www.w3.org/2000/svg"
   xmlns:xlink="http://www.w3.org/1999/xlink"
   id="svg75"
   version="1.1"
   viewBox="0 0 128 128"
   enable-background="new 0 0 128 128">
  <metadata
     id="metadata79">
    <rdf:RDF>
      <cc:Work
         rdf:about="">
        <dc:format>image/svg+xml</dc:format>
        <dc:type
           rdf:resource="http://purl.org/dc/dcmitype/StillImage" />
      </cc:Work>
    </rdf:RDF>
  </metadata>
  <radialGradient
     gradientUnits="userSpaceOnUse"
     r="65.44"
     cy="31.209"
     cx="64"
     id="g">
    <stop
       id="stop2"
       offset="0"
       stop-color="#616262" />
    <stop
       id="stop4"
       offset=".9036"
       stop-color="#212121" />
  </radialGradient>
  <circle
     id="circle7"
     fill="url(#g)"
     r="60"
     cy="64"
     cx="64" />
  <defs
     id="defs10">
    <circle
       r="60"
       cy="64"
       cx="64"
       id="f" />
  </defs>
  <clipPath
     id="e">
    <use
       id="use12"
       xlink:href="#f" />
  </clipPath>
  <radialGradient
     gradientUnits="userSpaceOnUse"
     gradientTransform="matrix(-1 0 0 -1 130 125.03)"
     r="77.756"
     cy="93.349"
     cx="75.775"
     id="d">
    <stop
       id="stop15"
       offset=".3419"
       stop-color="#F5F5F5" />
    <stop
       id="stop17"
       offset=".7571"
       stop-color="#E0E0E0" />
  </radialGradient>
  <polygon
     id="polygon20"
     fill="url(#d)"
     clip-path="url(#e)"
     points="64 145.14 39.38 95.25 -15.68 87.25 24.16 48.41 14.75 -6.42 64 19.47 113.25 -6.42 103.84 48.41 143.68 87.25 88.62 95.25" />
  <defs
     id="defs23">
    <circle
       r="60"
       cy="64"
       cx="64"
       id="c" />
  </defs>
  <clipPath
     id="clipPath27">
    <use
       id="use25"
       xlink:href="#c" />
  </clipPath>
  <g
     id="g31"
     opacity=".2">
    <path
       id="path29"
       fill="#434343"
       d="M64,7c31.43,0,57,25.57,57,57s-25.57,57-57,57S7,95.43,7,64S32.57,7,64,7 M64,4 C30.86,4,4,30.86,4,64s26.86,60,60,60s60-26.86,60-60S97.14,4,64,4L64,4z" />
  </g>
  <linearGradient
     gradientUnits="userSpaceOnUse"
     y2="101.52"
     y1="63.464"
     x2="43.647"
     x1="43.647"
     id="b">
    <stop
       id="stop33"
       offset="0"
       stop-color="#616262" />
    <stop
       id="stop35"
       offset=".8972"
       stop-color="#212121" />
  </linearGradient>
  <path
     id="path38"
     fill="url(#b)"
     d="m38.48 98.24c-0.26 0-0.52-0.06-0.77-0.2-0.78-0.43-1.07-1.4-0.64-2.18l10.33-18.9c0.43-0.78 1.4-1.07 2.18-0.64s1.07 1.4 0.64 2.18l-10.33 18.9c-0.29 0.54-0.84 0.84-1.41 0.84z" />
  <linearGradient
     gradientUnits="userSpaceOnUse"
     y2="101.52"
     y1="63.464"
     x2="84.5"
     x1="84.5"
     id="a">
    <stop
       id="stop40"
       offset="0"
       stop-color="#616262" />
    <stop
       id="stop42"
       offset=".8972"
       stop-color="#212121" />
  </linearGradient>
  <path
     id="path45"
     fill="url(#a)"
     d="m89.93 98.9c-0.57 0-1.12-0.3-1.41-0.84l-10.86-19.93c-0.42-0.78-0.14-1.76 0.64-2.18s1.76-0.14 2.18 0.64l10.85 19.93c0.42 0.78 0.14 1.76-0.64 2.18-0.24 0.14-0.5 0.2-0.76 0.2z" />
  <linearGradient
     gradientUnits="userSpaceOnUse"
     y2="48.556"
     y1="49.627"
     x2="98.916"
     x1="86.416"
     id="k">
    <stop
       id="stop47"
       offset="0"
       stop-color="#434343" />
    <stop
       id="stop49"
       offset=".8963"
       stop-color="#212121" />
  </linearGradient>
  <path
     id="path52"
     fill="url(#k)"
     d="m88.46 50.88c-0.84 0-1.55-0.65-1.6-1.51-0.06-0.89 0.62-1.65 1.5-1.71l16.45-1.04c0.9-0.05 1.65 0.62 1.71 1.5 0.06 0.89-0.62 1.65-1.5 1.71l-16.45 1.04c-0.04 0-0.07 0.01-0.11 0.01z" />
  <linearGradient
     gradientUnits="userSpaceOnUse"
     y2="32.956"
     y1="18.464"
     x2="64.212"
     x1="64.212"
     id="j">
    <stop
       id="stop54"
       offset=".0941"
       stop-color="#434343" />
    <stop
       id="stop56"
       offset="1"
       stop-color="#616262" />
  </linearGradient>
  <path
     id="path59"
     fill="url(#j)"
     d="m64.21 32.68c-0.89 0-1.61-0.72-1.61-1.61v-12.98c0-0.89 0.72-1.61 1.61-1.61s1.61 0.72 1.61 1.61v12.98c0 0.89-0.72 1.61-1.61 1.61z" />
  <linearGradient
     gradientUnits="userSpaceOnUse"
     y2="49.518"
     y1="46.84"
     x2="36.349"
     x1="17.242"
     id="i">
    <stop
       id="stop61"
       offset="0"
       stop-color="#434343" />
    <stop
       id="stop63"
       offset=".8963"
       stop-color="#212121" />
  </linearGradient>
  <path
     id="path66"
     fill="url(#i)"
     d="m39.58 50.97h-0.11l-16.49-1.1c-0.89-0.06-1.56-0.82-1.5-1.71s0.83-1.56 1.71-1.5l16.49 1.1c0.89 0.06 1.56 0.82 1.5 1.71-0.05 0.85-0.76 1.5-1.6 1.5z" />
  <linearGradient
     gradientUnits="userSpaceOnUse"
     y2="76.321"
     y1="21.679"
     x2="64"
     x1="64"
     id="h">
    <stop
       id="stop68"
       offset="0"
       stop-color="#616262" />
    <stop
       id="stop70"
       offset=".9013"
       stop-color="#212121" />
  </linearGradient>
  <polygon
     id="polygon73"
     fill="url(#h)"
     points="48.17 78.72 38.38 48.61 64 30 89.62 48.61 79.83 78.72" />
</svg>
