<?xml version="1.0" encoding="UTF-8" standalone="no"?>
<svg
   xmlns:dc="http://purl.org/dc/elements/1.1/"
   xmlns:cc="http://creativecommons.org/ns#"
   xmlns:rdf="http://www.w3.org/1999/02/22-rdf-syntax-ns#"
   xmlns:svg="http://www.w3.org/2000/svg"
   xmlns="http://www.w3.org/2000/svg"
   id="svg67"
   version="1.1"
   viewBox="0 0 128 128"
   enable-background="new 0 0 128 128">
  <metadata
     id="metadata73">
    <rdf:RDF>
      <cc:Work
         rdf:about="">
        <dc:format>image/svg+xml</dc:format>
        <dc:type
           rdf:resource="http://purl.org/dc/dcmitype/StillImage" />
      </cc:Work>
    </rdf:RDF>
  </metadata>
  <defs
     id="defs71" />
  <rect
     id="rect2"
     fill="#F2F2F2"
     height=".67"
     width="0"
     y="-56.67"
     x="-528" />
  <circle
     id="circle4"
     fill="#757575"
     r="3"
     cy="64.09"
     cx="28.87" />
  <path
     id="path6"
     fill="#616161"
     d="m110.73 72h-7.11c-2.46 0-4.45-1.99-4.45-4.45v-7.44c0-2.46 1.99-4.45 4.45-4.45h7.11c2.46 0 4.45 1.99 4.45 4.45v7.44c-0.01 2.46-2 4.45-4.45 4.45z" />
  <g
     id="g10"
     opacity=".2">
    <path
       id="path8"
       fill="#424242"
       d="m110.73 57.67c1.35 0 2.45 1.1 2.45 2.45v7.44c0 1.35-1.1 2.45-2.45 2.45h-7.11c-1.35 0-2.45-1.1-2.45-2.45v-7.44c0-1.35 1.1-2.45 2.45-2.45h7.11m0-2h-7.11c-2.46 0-4.45 1.99-4.45 4.45v7.44c0 2.46 1.99 4.45 4.45 4.45h7.11c2.46 0 4.45-1.99 4.45-4.45v-7.44c-0.01-2.46-2-4.45-4.45-4.45z" />
  </g>
  <linearGradient
     gradientUnits="userSpaceOnUse"
     y2="21.678"
     y1="1.6667"
     x2="60.456"
     x1="60.456"
     id="c">
    <stop
       id="stop12"
       offset="0"
       stop-color="#A1887F" />
    <stop
       id="stop14"
       offset="1"
       stop-color="#795548" />
  </linearGradient>
  <polygon
     id="polygon17"
     fill="url(#c)"
     points="78.43 3.97 42.32 3.97 36.46 32.06 84.45 32.06" />
  <linearGradient
     gradientUnits="userSpaceOnUse"
     y2="108.98"
     y1="136.33"
     x2="60.456"
     x1="60.456"
     id="b">
    <stop
       id="stop19"
       offset="0"
       stop-color="#A1887F" />
    <stop
       id="stop21"
       offset="1"
       stop-color="#795548" />
  </linearGradient>
  <polygon
     id="polygon24"
     fill="url(#b)"
     points="42.48 123.82 78.6 123.82 84.45 95.73 36.46 95.73" />
  <g
     id="g28"
     opacity=".2">
    <path
       id="path26"
       fill="#424242"
       d="m76.01 6.97 4.73 22.09h-40.59l4.6-22.09h31.26m2.42-3h-36.11l-5.85 28.09h47.98l-6.02-28.09z" />
  </g>
  <g
     id="g32"
     opacity=".2">
    <path
       id="path30"
       fill="#424242"
       d="m80.76 98.73-4.6 22.09h-31.25l-4.73-22.09h40.58m3.69-3zm0 0h-47.99l6.02 28.09h36.12l5.85-28.09z" />
  </g>
  <circle
     id="circle34"
     fill="#9E9E9E"
     r="47.5"
     cy="64"
     cx="60.33" />
  <linearGradient
     gradientUnits="userSpaceOnUse"
     y2="111.85"
     y1="33.893"
     x2="60.546"
     x1="60.546"
     id="a">
    <stop
       id="stop36"
       offset=".3212"
       stop-color="#ECEFF1" />
    <stop
       id="stop38"
       offset="1"
       stop-color="#B0BEC5" />
  </linearGradient>
  <circle
     id="circle41"
     fill="url(#a)"
     r="40.5"
     cy="64"
     cx="60.55" />
  <path
     id="path43"
     fill="#424242"
     d="m60.33 34c-1.66 0-3 1.34-3 3v24c0 1.66 1.34 3 3 3s3-1.34 3-3v-24c0-1.66-1.35-3-3-3z" />
  <path
     id="path45"
     fill="#424242"
     d="m60.23 63.99c0 1.66 1.34 3 3 3h15.89c1.66 0 3-1.34 3-3s-1.34-3-3-3h-15.89c-1.65 0-3 1.34-3 3z" />
  <circle
     id="circle47"
     fill="#424242"
     r="5.25"
     cy="64"
     cx="60.33" />
  <circle
     id="circle49"
     fill="#CFD8DC"
     r="2.25"
     cy="64"
     cx="60.33" />
  <circle
     id="circle51"
     fill="#757575"
     r="3"
     cy="29.04"
     cx="60.24" />
  <circle
     id="circle53"
     fill="#757575"
     r="3"
     cy="99.15"
     cx="60.24" />
  <circle
     id="circle55"
     fill="#757575"
     r="3"
     cy="64.09"
     cx="95.3" />
  <circle
     id="circle57"
     fill="#757575"
     r="3"
     cy="64.09"
     cx="26.3" />
  <g
     id="g61"
     opacity=".2">
    <path
       id="path59"
       fill="#424242"
       d="m60.55 25.5c21.23 0 38.5 17.27 38.5 38.5s-17.27 38.5-38.5 38.5-38.5-17.27-38.5-38.5 17.27-38.5 38.5-38.5m0-2c-22.37 0-40.5 18.13-40.5 40.5s18.13 40.5 40.5 40.5 40.5-18.13 40.5-40.5-18.14-40.5-40.5-40.5z" />
  </g>
  <g
     id="g65"
     opacity=".2">
    <path
       id="path63"
       fill="#424242"
       d="m60.33 19.5c24.54 0 44.5 19.96 44.5 44.5s-19.96 44.5-44.5 44.5-44.5-19.96-44.5-44.5 19.96-44.5 44.5-44.5m0-3c-26.23 0-47.5 21.27-47.5 47.5s21.27 47.5 47.5 47.5 47.5-21.27 47.5-47.5-21.27-47.5-47.5-47.5z" />
  </g>
</svg>
