<?xml version="1.0" encoding="UTF-8" standalone="no"?>
<svg
   xmlns:dc="http://purl.org/dc/elements/1.1/"
   xmlns:cc="http://creativecommons.org/ns#"
   xmlns:rdf="http://www.w3.org/1999/02/22-rdf-syntax-ns#"
   xmlns:svg="http://www.w3.org/2000/svg"
   xmlns="http://www.w3.org/2000/svg"
   id="svg56"
   version="1.1"
   viewBox="0 0 128 128"
   enable-background="new 0 0 128 128">
  <metadata
     id="metadata62">
    <rdf:RDF>
      <cc:Work
         rdf:about="">
        <dc:format>image/svg+xml</dc:format>
        <dc:type
           rdf:resource="http://purl.org/dc/dcmitype/StillImage" />
      </cc:Work>
    </rdf:RDF>
  </metadata>
  <defs
     id="defs60" />
  <path
     id="path2"
     fill="#424242"
     d="m64.15 4.02h-0.27c-1.17 0-2.12 0.95-2.12 2.12v4.45c0 1.17 0.95 2.12 2.12 2.12h0.27c1.17 0 2.12-0.95 2.12-2.12v-4.44c0-1.18-0.95-2.13-2.12-2.13z" />
  <rect
     id="rect4"
     fill="#E0E0E0"
     height="57.91"
     width="5.94"
     y="40.82"
     x="61.03"
     transform="matrix(-1 -.00013922 .00013922 -1 127.99 139.56)" />
  <g
     id="g8"
     opacity=".2">
    <path
       id="path6"
       fill="#424242"
       d="m62.03 41.82h3.94l-0.01 56.16h-3.94l0.01-56.16m-1-1-0.01 58.16h5.94l0.01-58.16h-5.94z" />
  </g>
  <path
     id="path10"
     fill="#424242"
     d="m68.2 112.17v-17.68h-8.91v17.68c0 1.64-1.33 2.97-2.97 2.97s-2.97-1.33-2.97-2.97v-1.49c0-2.46-1.99-4.46-4.46-4.46-2.46 0-4.46 1.99-4.46 4.46v1.49c0 6.56 5.32 11.88 11.88 11.89 6.57-0.01 11.89-5.33 11.89-11.89z" />
  <g
     id="g14"
     opacity=".2">
    <path
       id="path12"
       fill="#424242"
       d="m61.29 96.48h4.91v15.68c0 5.45-4.43 9.88-9.89 9.88-2.64 0-5.12-1.03-6.99-2.9s-2.89-4.35-2.89-6.99v-1.49c0-1.35 1.1-2.46 2.46-2.46 1.35 0 2.46 1.1 2.46 2.46v1.49c0 1.33 0.52 2.58 1.46 3.52s2.19 1.46 3.51 1.46c2.74 0 4.97-2.23 4.97-4.97v-15.68m-2-2v17.68c0 1.64-1.33 2.97-2.97 2.97s-2.97-1.33-2.97-2.97v-1.49c0-2.46-1.99-4.46-4.46-4.46-2.46 0-4.46 1.99-4.46 4.46v1.49c0 6.56 5.32 11.88 11.88 11.89 6.56 0 11.88-5.32 11.88-11.88v-17.68l-8.9-0.01z" />
  </g>
  <linearGradient
     gradientUnits="userSpaceOnUse"
     y2="85.185"
     y1="14.167"
     x2="80.552"
     x1="39.549"
     id="b">
    <stop
       id="stop16"
       offset="0"
       stop-color="#BA68C8" />
    <stop
       id="stop18"
       offset="1"
       stop-color="#9C27B0" />
  </linearGradient>
  <path
     id="path21"
     fill="url(#b)"
     d="m19.69 55.57c6.2 0 11.51 4.02 13.76 9.73 0.41 1.05 1.83 1.05 2.25 0 2.25-5.72 7.55-9.73 13.76-9.73 6.2 0 11.51 4.02 13.76 9.73 0.41 1.05 1.83 1.05 2.25 0 2.25-5.72 7.55-9.73 13.76-9.73 6.2 0 11.51 4.02 13.76 9.73 0.41 1.05 1.83 1.05 2.25 0 2.25-5.72 7.55-9.73 13.76-9.73 4.51 0 8.55 2.13 11.28 5.49 0.83 1.02 2.41 0.25 2.16-1.08-5.37-29.07-29.41-51.46-58.27-51.46-29.01 0-53.16 22.66-58.33 51.98-0.24 1.35 1.38 2.11 2.18 1.04 2.73-3.64 6.94-5.97 11.67-5.97z" />
  <path
     id="path23"
     fill="#424242"
     d="m95.14 70.85h-1.15c-0.56 0-1.01-0.46-1.01-1.01v-4.37c0-0.56 0.46-1.01 1.01-1.01h1.15c0.56 0 1.01 0.46 1.01 1.01v4.37c0 0.56-0.45 1.01-1.01 1.01z" />
  <path
     id="path25"
     fill="#424242"
     d="m64.79 71.77h-1.15c-0.56 0-1.01-0.46-1.01-1.01v-4.37c0-0.56 0.46-1.01 1.01-1.01h1.15c0.56 0 1.01 0.46 1.01 1.01v4.37c0.01 0.55-0.45 1.01-1.01 1.01z" />
  <path
     id="path27"
     fill="#424242"
     d="m35.18 70.85h-1.15c-0.56 0-1.01-0.46-1.01-1.01v-4.37c0-0.56 0.46-1.01 1.01-1.01h1.15c0.56 0 1.01 0.46 1.01 1.01v4.37c0 0.56-0.46 1.01-1.01 1.01z" />
  <path
     id="path29"
     fill="#424242"
     d="m123.13 65.91-0.99 0.3c-0.56 0.17-1.16-0.16-1.33-0.73l-1.19-4.04c-0.17-0.57 0.15-1.19 0.72-1.36l0.99-0.3c0.56-0.17 1.16 0.16 1.33 0.73l1.19 4.04c0.17 0.58-0.15 1.19-0.72 1.36z" />
  <path
     id="path31"
     fill="#424242"
     d="m5.19 65.91 0.99 0.3c0.56 0.17 1.16-0.16 1.33-0.73l1.19-4.04c0.17-0.57-0.15-1.19-0.72-1.36l-0.99-0.3c-0.56-0.17-1.16 0.16-1.33 0.73l-1.19 4.04c-0.16 0.58 0.16 1.19 0.72 1.36z" />
  <linearGradient
     gradientUnits="userSpaceOnUse"
     y2="91.477"
     y1="41.734"
     x2="-11.084"
     x1="22.856"
     id="a">
    <stop
       id="stop33"
       offset="0"
       stop-color="#BA68C8" />
    <stop
       id="stop35"
       offset="1"
       stop-color="#9C27B0" />
  </linearGradient>
  <polygon
     id="polygon38"
     fill="url(#a)"
     points="5.88 66.61 5.88 66.61 5.88 66.6" />
  <g
     id="g42"
     opacity=".2">
    <path
       id="path40"
       d="m64 65.82c-0.62 0-1-0.48-1-1.08v-55.08c0-0.6 0.38-1.08 1-1.08s1 0.48 1 1.08v55.08c0 0.6-0.38 1.08-1 1.08z" />
  </g>
  <g
     id="g46"
     opacity=".2">
    <path
       id="path44"
       d="m34.53 67c-0.62 0-1.13-1.3-1.14-1.88-0.02-0.92-0.33-23.18 8.38-38.04 8.81-15.02 21.49-18.39 22.03-18.52 0.6-0.14 1.22 0.1 1.38 0.67 0.15 0.57-0.21 1.11-0.82 1.25-0.12 0.03-12.29 3.09-20.59 17.24-8.42 14.36-8.1 37.14-8.1 37.36 0.01 0.59-0.49 1.91-1.12 1.91-0.01 0.01-0.01 0.01-0.02 0.01z" />
  </g>
  <g
     id="g50"
     opacity=".2">
    <path
       id="path48"
       d="m94.21 67c-0.63 0-1.14-1.36-1.14-1.95 0-0.22-0.15-22.54-8.59-36.9-8.35-14.21-20.53-17.46-20.65-17.49-0.61-0.14-0.98-0.84-0.83-1.41 0.15-0.58 0.78-0.98 1.38-0.83 0.54 0.13 13.26 3.27 22.09 18.28 8.73 14.85 8.87 37.45 8.88 38.37 0 0.58-0.51 1.93-1.14 1.93z" />
  </g>
  <g
     id="g54"
     opacity=".2">
    <path
       id="path52"
       fill="#424242"
       d="m64.17 11.52c25.15 0 47.17 18.13 54.11 43.8-2.78-1.78-5.99-2.75-9.32-2.75-6.07 0-11.6 3.18-14.88 8.35-3.28-5.16-8.81-8.35-14.88-8.35s-11.6 3.18-14.88 8.35c-3.28-5.16-8.81-8.35-14.88-8.35s-11.6 3.18-14.88 8.35c-3.28-5.16-8.81-8.35-14.88-8.35-3.49 0-6.83 1.05-9.68 2.97 3.1-11.53 9.4-21.96 18.06-29.8 10.15-9.17 22.96-14.22 36.11-14.22m0-3c-29.01 0-53.16 22.66-58.33 51.98-0.16 0.91 0.52 1.55 1.22 1.55 0.35 0 0.7-0.15 0.96-0.51 2.73-3.64 6.94-5.97 11.67-5.97 6.2 0 11.51 4.02 13.76 9.73 0.21 0.53 0.67 0.79 1.12 0.79s0.92-0.26 1.12-0.79c2.25-5.72 7.55-9.73 13.76-9.73 6.2 0 11.51 4.02 13.76 9.73 0.21 0.53 0.67 0.79 1.12 0.79 0.46 0 0.92-0.26 1.12-0.79 2.25-5.72 7.55-9.73 13.76-9.73 6.2 0 11.51 4.02 13.76 9.73 0.21 0.53 0.67 0.79 1.12 0.79 0.46 0 0.92-0.26 1.12-0.79 2.25-5.72 7.55-9.73 13.76-9.73 4.51 0 8.55 2.13 11.28 5.49 0.27 0.33 0.61 0.47 0.94 0.47 0.71 0 1.38-0.65 1.22-1.55-5.34-29.07-29.38-51.46-58.24-51.46z" />
  </g>
</svg>
