<?xml version="1.0" encoding="UTF-8" standalone="no"?>
<svg
   xmlns:dc="http://purl.org/dc/elements/1.1/"
   xmlns:cc="http://creativecommons.org/ns#"
   xmlns:rdf="http://www.w3.org/1999/02/22-rdf-syntax-ns#"
   xmlns:svg="http://www.w3.org/2000/svg"
   xmlns="http://www.w3.org/2000/svg"
   xmlns:xlink="http://www.w3.org/1999/xlink"
   id="svg34"
   version="1.1"
   viewBox="0 0 128 128"
   enable-background="new 0 0 128 128">
  <metadata
     id="metadata38">
    <rdf:RDF>
      <cc:Work
         rdf:about="">
        <dc:format>image/svg+xml</dc:format>
        <dc:type
           rdf:resource="http://purl.org/dc/dcmitype/StillImage" />
      </cc:Work>
    </rdf:RDF>
  </metadata>
  <linearGradient
     gradientUnits="userSpaceOnUse"
     y2="104.33"
     y1="36.833"
     x2="64"
     x1="64"
     id="d">
    <stop
       id="stop2"
       offset="0"
       stop-color="#FFC107" />
    <stop
       id="stop4"
       offset="1"
       stop-color="#FFD54F" />
  </linearGradient>
  <path
     id="path7"
     fill="url(#d)"
     d="m120 104h-112c-2.21 0-4-1.79-4-4v-72c0-2.21 1.79-4 4-4h112c2.21 0 4 1.79 4 4v72c0 2.21-1.79 4-4 4z" />
  <linearGradient
     gradientUnits="userSpaceOnUse"
     y2="72.154"
     y1="8.4562"
     x2="64"
     x1="64"
     id="c">
    <stop
       id="stop9"
       offset="0"
       stop-color="#FFE082" />
    <stop
       id="stop11"
       offset=".9931"
       stop-color="#FFCA28" />
  </linearGradient>
  <path
     id="path14"
     fill="url(#c)"
     d="M124,30.16V28c0-2.21-1.79-4-4-4H8c-2.21,0-4,1.79-4,4v2.02l59.91,46.13L124,30.16z" />
  <defs
     id="defs17">
    <path
       d="m120 104h-112c-2.21 0-4-1.79-4-4v-72c0-2.21 1.79-4 4-4h112c2.21 0 4 1.79 4 4v72c0 2.21-1.79 4-4 4z"
       id="b" />
  </defs>
  <clipPath
     id="a">
    <use
       id="use19"
       xlink:href="#b" />
  </clipPath>
  <g
     id="g26"
     stroke-width="3"
     stroke-miterlimit="10"
     stroke="#FFB300"
     fill="none"
     clip-path="url(#a)">
    <line
       id="line22"
       y2="107.93"
       y1="60.76"
       x2="-.19"
       x1="43.01" />
    <line
       id="line24"
       y2="108.12"
       y1="60.66"
       x2="128"
       x1="84.88" />
  </g>
  <polyline
     id="polyline28"
     stroke-width="3"
     stroke-miterlimit="10"
     stroke="#FFB300"
     fill="none"
     clip-path="url(#a)"
     points="0.08 27.78 63.91 76.14 127.92 27.94" />
  <g
     id="g32"
     opacity=".2">
    <path
       id="path30"
       fill="#444"
       d="m120 27c0.55 0 1 0.45 1 1v72c0 0.55-0.45 1-1 1h-112c-0.55 0-1-0.45-1-1v-72c0-0.55 0.45-1 1-1h112m0-3h-112c-2.21 0-4 1.79-4 4v72c0 2.21 1.79 4 4 4h112c2.21 0 4-1.79 4-4v-72c0-2.21-1.79-4-4-4z" />
  </g>
</svg>
