<?xml version="1.0" encoding="UTF-8" standalone="no"?>
<svg
   xmlns:dc="http://purl.org/dc/elements/1.1/"
   xmlns:cc="http://creativecommons.org/ns#"
   xmlns:rdf="http://www.w3.org/1999/02/22-rdf-syntax-ns#"
   xmlns:svg="http://www.w3.org/2000/svg"
   xmlns="http://www.w3.org/2000/svg"
   id="svg30"
   version="1.1"
   viewBox="0 0 128 128"
   enable-background="new 0 0 128 128">
  <metadata
     id="metadata36">
    <rdf:RDF>
      <cc:Work
         rdf:about="">
        <dc:format>image/svg+xml</dc:format>
        <dc:type
           rdf:resource="http://purl.org/dc/dcmitype/StillImage" />
      </cc:Work>
    </rdf:RDF>
  </metadata>
  <defs
     id="defs34" />
  <linearGradient
     gradientUnits="userSpaceOnUse"
     y2="120.08"
     y1="6.5"
     x2="64"
     x1="64"
     id="b">
    <stop
       id="stop2"
       offset=".0059391"
       stop-color="#FFE2B8" />
    <stop
       id="stop4"
       offset=".9219"
       stop-color="#FFA726" />
  </linearGradient>
  <polygon
     id="polygon7"
     fill="url(#b)"
     points="69.1 8.17 8.07 38.09 8.07 91.65 58.9 121.08 119.93 87.06 119.93 33.5" />
  <path
     id="path9"
     fill="#593E37"
     d="m38.46 67.02-10-5.19c-1.95-1.01-3.84-0.23-4.16 1.85-0.39 2.15 0.99 4.62 3.05 5.77l10.64 5.57c0.59 0.28 1.2 0.42 1.75 0.41 1.3-0.06 2.18-1 2.24-2.53 0.13-2.17-1.41-4.71-3.52-5.88z" />
  <polygon
     id="polygon11"
     fill="#A17F69"
     points="38.99 63.45 28.65 57.9 28.65 48.47 38.8 53.52" />
  <polygon
     id="polygon13"
     fill="#A17F69"
     points="38.31 109.06 28.65 103.46 28.65 92.14 38.31 97.9" />
  <polygon
     id="polygon15"
     fill="#FFE082"
     points="8.07 38.09 58.99 63.38 119.93 33.03 69.1 8.17" />
  <polygon
     id="polygon17"
     fill="#C99470"
     points="99.15 22.89 89.2 17.93 28.74 48.47 38.8 53.52" />
  <linearGradient
     gradientUnits="userSpaceOnUse"
     y2="113.82"
     y1="57.25"
     x2="89.459"
     x1="89.459"
     id="a">
    <stop
       id="stop19"
       offset=".011"
       stop-color="#FFAF39" />
    <stop
       id="stop21"
       offset=".927"
       stop-color="#DE8400" />
  </linearGradient>
  <polygon
     id="polygon24"
     fill="url(#a)"
     points="58.99 63.38 58.99 121.18 119.93 87.06 119.93 33.5" />
  <g
     id="g28"
     opacity=".2">
    <path
       id="path26"
       fill="#444"
       d="m69.11 11.46 47.83 23.4v50.4l-57.88 32.4-47.99-27.79v-49.96l58.04-28.45m-0.01-3.34-61.03 29.92v53.56l50.83 29.43 0.09-0.05v0.15l60.94-34.12v-53.56l-0.47-0.23 0.47-0.23-50.83-24.87z" />
  </g>
</svg>
